<?xml version="1.0" encoding="utf-8"?>
<!-- Generator: Adobe Illustrator 22.0.1, SVG Export Plug-In . SVG Version: 6.00 Build 0)  -->
<svg version="1.1" id="Layer_1" xmlns="http://www.w3.org/2000/svg" xmlns:xlink="http://www.w3.org/1999/xlink" x="0px" y="0px"
	 viewBox="0 0 21.2999992 21.2999992" style="enable-background:new 0 0 21.2999992 21.2999992;" xml:space="preserve">
<style type="text/css">
	.st0{fill:#AA882B;}
	.st1{fill:url(#SVGID_1_);}
</style>
<g>
	<path class="st0" d="M21.299902,21.299902H0.0000977V0.0000977H21.299902V21.299902z M0.2999023,21.0000973h20.7001953V0.2999023
		H0.2999023V21.0000973z"/>
</g>
<linearGradient id="SVGID_1_" gradientUnits="userSpaceOnUse" x1="1.2521302" y1="20.5360718" x2="20.5021305" y2="0.2860709">
	<stop  offset="0" style="stop-color:#AA8829"/>
	<stop  offset="1" style="stop-color:#BB9D52;stop-opacity:0.7"/>
</linearGradient>
<path class="st1" d="M0.65,0.65v20h20v-20H0.65z M11.5374508,13.414587
	c-0.5881958,0.6320801-1.3519287,0.9385986-2.2091064,1.0325317c-1.7521968,0.1939087-3.3848872-0.8008423-4.0231929-2.4216309
	c-0.2567749-0.6757812-0.3067017-1.3703613-0.1878662-2.0211792C5.373755,8.4714108,6.5748048,7.1572633,8.2456417,6.8881593
	c1.1575928-0.1940308,2.1903687,0.0876465,3.0914307,0.8448486c0.0249634,0.031189,0.0686035,0.0625,0.0935669,0.0813599
	c-0.3877563,0.3878779-0.7445679,0.7445674-1.1201172,1.1200557c-0.2685547-0.2439575-0.5879517-0.4130249-0.9569702-0.4943237
	C8.320776,8.2085323,7.2757325,8.7717037,6.8505006,9.6977291c-0.0626221,0.1627808-0.125061,0.3379517-0.1502075,0.5194702
	c-0.2313232,1.2763672,0.5567017,2.4528809,1.8333125,2.6657715c1.0322876,0.1688232,1.9897461-0.2880859,2.2966919-1.2142334
	c0.0313721-0.0688477,0.0501099-0.1438599,0.0686035-0.2438965c-0.6819458,0-1.3514404,0-2.0334473,0
	c0-0.5005493,0-0.9822998,0.0062256-1.4642944c0-0.031311,0.0751343-0.0875244,0.1248169-0.0875244
	c0.2319946-0.0125122,0.4760132,0,0.713623,0c0.8322144,0,1.6643677,0,2.496582-0.0125122
	c0.1940918,0,0.2752686,0.0375366,0.300415,0.2440186C12.650671,11.3497066,12.4191036,12.4761105,11.5374508,13.414587z
	 M17.0560665,10.2109737c0,0.2501831,0,0.4879761,0,0.7445068c-0.4379272,0-0.8633423,0-1.3137817,0
	c0,0.4506226,0,0.8758545,0,1.3141479c-0.3318481,0-0.6380615-0.0063477-0.9701538,0c0-0.4254761,0-0.8511353,0-1.3141479
	c-0.2128296,0-0.4125366,0.0062256-0.6070557,0c-0.2436523,0-0.4752197-0.0123901-0.7067261-0.0249634
	c-0.0185547-0.237793-0.0249634-0.4817505-0.0377197-0.7195435c0-0.0687866,0-0.1377563,0-0.2442627
	c0.4633789,0,0.8886108,0,1.3457031,0c0-0.0686646,0-0.1437378,0-0.2125854c0-0.3690796,0-0.7321167,0-1.1201782
	c0.3062134,0,0.600647,0,0.8881226,0.0125732c0.0252075,0,0.0878296,0.0939941,0.0878296,0.1439209
	c0.0062256,0.3253784,0,0.6445312,0,0.9636841c0,0.0501099,0,0.1063843,0,0.1751099c0,0.0062866,0,0.031311,0,0.050293
	c0.0878296,0,0.1751709,0,0.250061,0c0.3570557,0,0.713623,0,1.0637207,0
	C17.0560665,10.0545406,17.0560665,10.1295528,17.0560665,10.2109737z"/>
</svg>
