<?xml version="1.0" encoding="utf-8"?>
<!-- Generator: Adobe Illustrator 22.0.1, SVG Export Plug-In . SVG Version: 6.00 Build 0)  -->
<svg version="1.1" id="Layer_1" xmlns="http://www.w3.org/2000/svg" xmlns:xlink="http://www.w3.org/1999/xlink" x="0px" y="0px"
	 viewBox="0 0 20 20" style="enable-background:new 0 0 20 20;" xml:space="preserve">
<style type="text/css">
	.st0{fill:#AA882B;}
</style>
<g>
	<path class="st0" d="M9.9971313,7.3549805c-1.4552002,0-2.6364746,1.1870117-2.6364746,2.6422119
		c0,1.4607544,1.1812744,2.6421509,2.6364746,2.6421509c1.4609985,0,2.6421509-1.1813965,2.6421509-2.6421509
		C12.6392822,8.5419922,11.4581299,7.3549805,9.9971313,7.3549805z"/>
	<path class="st0" d="M12.7249756,5.4434204H7.2752075c-1.0102539,0-1.8319092,0.8215332-1.8319092,1.8317871v5.4497681
		c0,1.0099487,0.8216553,1.831604,1.8319092,1.831604h5.4497681c1.0101318,0,1.8317871-0.8216553,1.8317871-1.831604V7.2752075
		C14.5567627,6.2649536,13.7351074,5.4434204,12.7249756,5.4434204z M9.9971313,13.329895
		c-1.8375854,0-3.3326416-1.4894409-3.3326416-3.3327026c0-1.8375854,1.4950562-3.3326416,3.3326416-3.3326416
		c1.8432617,0,3.3325806,1.4950562,3.3325806,3.3326416C13.3297119,11.8404541,11.8403931,13.329895,9.9971313,13.329895z
		 M13.2670288,7.286499c-0.2967529,0-0.536377-0.239624-0.536377-0.536499c0-0.2966309,0.239624-0.5362549,0.536377-0.5362549
		s0.536499,0.239624,0.536499,0.5362549C13.8035278,7.046875,13.5637817,7.286499,13.2670288,7.286499z"/>
	<path class="st0" d="M0,0v20h20V0H0z M15.1673584,12.7249756c0,1.3408813-1.0956421,2.4423218-2.4423828,2.4423218H7.2752075
		c-1.3410645,0-2.4425049-1.1014404-2.4425049-2.4423218V7.2752075c0-1.3469238,1.1014404-2.4424438,2.4425049-2.4424438h5.4497681
		c1.3467407,0,2.4423828,1.09552,2.4423828,2.4424438V12.7249756z"/>
</g>
</svg>
