<?xml version="1.0" encoding="utf-8"?>
<!-- Generator: Adobe Illustrator 22.0.1, SVG Export Plug-In . SVG Version: 6.00 Build 0)  -->
<svg version="1.1" id="Layer_1" xmlns="http://www.w3.org/2000/svg" xmlns:xlink="http://www.w3.org/1999/xlink" x="0px" y="0px"
	 viewBox="0 0 21.2999992 21.2999992" style="enable-background:new 0 0 21.2999992 21.2999992;" xml:space="preserve">
<style type="text/css">
	.st0{fill:url(#SVGID_1_);}
	.st1{fill:url(#SVGID_2_);}
	.st2{fill:url(#SVGID_3_);}
	.st3{fill:#AA882B;}
</style>
<g>
	<g>
		<linearGradient id="SVGID_1_" gradientUnits="userSpaceOnUse" x1="1.2671512" y1="20.1123009" x2="20.4338188" y2="0.7789682">
			<stop  offset="0" style="stop-color:#AA8829"/>
			<stop  offset="1" style="stop-color:#BB9D52;stop-opacity:0.7"/>
		</linearGradient>
		<path class="st0" d="M10.647131,8.0049801c-1.4552002,0-2.6364746,1.1870117-2.6364746,2.6422119
			c0,1.4607544,1.1812744,2.6421509,2.6364746,2.6421509c1.4609985,0,2.6421509-1.1813965,2.6421509-2.6421509
			C13.2892818,9.1919918,12.1081295,8.0049801,10.647131,8.0049801z"/>
		<linearGradient id="SVGID_2_" gradientUnits="userSpaceOnUse" x1="1.2682333" y1="20.1133747" x2="20.4349003" y2="0.7800409">
			<stop  offset="0" style="stop-color:#AA8829"/>
			<stop  offset="1" style="stop-color:#BB9D52;stop-opacity:0.7"/>
		</linearGradient>
		<path class="st1" d="M13.3749752,6.0934205H7.9252076c-1.0102539,0-1.8319092,0.8215332-1.8319092,1.8317871v5.4497676
			c0,1.0099487,0.8216553,1.831604,1.8319092,1.831604h5.4497676c1.0101318,0,1.8317871-0.8216553,1.8317871-1.831604V7.9252076
			C15.2067623,6.9149537,14.385107,6.0934205,13.3749752,6.0934205z M10.647131,13.9798946
			c-1.8375854,0-3.3326411-1.4894409-3.3326411-3.3327026c0-1.8375854,1.4950557-3.3326411,3.3326411-3.3326411
			c1.8432617,0,3.3325806,1.4950557,3.3325806,3.3326411C13.9797115,12.4904537,12.4903927,13.9798946,10.647131,13.9798946z
			 M13.9170284,7.9364991c-0.2967529,0-0.536377-0.239624-0.536377-0.536499c0-0.2966309,0.239624-0.5362549,0.536377-0.5362549
			s0.536499,0.239624,0.536499,0.5362549C14.4535275,7.6968751,14.2137814,7.9364991,13.9170284,7.9364991z"/>
		<linearGradient id="SVGID_3_" gradientUnits="userSpaceOnUse" x1="1.2682198" y1="20.1133614" x2="20.4348869" y2="0.7800276">
			<stop  offset="0" style="stop-color:#AA8829"/>
			<stop  offset="1" style="stop-color:#BB9D52;stop-opacity:0.7"/>
		</linearGradient>
		<path class="st2" d="M0.65,0.65v20h20v-20H0.65z M15.817358,13.3749752c0,1.3408813-1.0956421,2.4423218-2.4423828,2.4423218
			H7.9252076c-1.3410645,0-2.4425049-1.1014404-2.4425049-2.4423218V7.9252076c0-1.3469238,1.1014404-2.4424438,2.4425049-2.4424438
			h5.4497676c1.3467407,0,2.4423828,1.09552,2.4423828,2.4424438V13.3749752z"/>
	</g>
	<g>
		<path class="st3" d="M21.299902,21.299902H0.0000977V0.0000977H21.299902V21.299902z M0.2999023,21.0000973h20.7001953V0.2999023
			H0.2999023V21.0000973z"/>
	</g>
</g>
</svg>
