<?xml version="1.0" encoding="utf-8"?>
<!-- Generator: Adobe Illustrator 22.0.1, SVG Export Plug-In . SVG Version: 6.00 Build 0)  -->
<svg version="1.1" id="Layer_1" xmlns="http://www.w3.org/2000/svg" xmlns:xlink="http://www.w3.org/1999/xlink" x="0px" y="0px"
	 viewBox="0 0 20 20" style="enable-background:new 0 0 20 20;" xml:space="preserve">
<style type="text/css">
	.st0{fill:#AA882B;}
</style>
<path class="st0" d="M0,0v20h20V0H0z M14.0716553,9.4429932c-0.3937988,1.7176514-1.6036377,2.8989868-3.2299805,2.8989868
	c-0.6790161,0-1.3123779-0.3537598-1.5235596-0.7589722c0,0-0.3710327,1.392395-0.4395142,1.6662598
	c-0.2739868,0.9529419-1.0670776,1.8945923-1.1297607,1.9744263c-0.0458374,0.0513916-0.1427002,0.0341797-0.1483765-0.0341797
	c-0.0172729-0.119812-0.2226562-1.3126831,0.0169678-2.2940063c0.1142578-0.4907227,0.7990112-3.2927856,0.7990112-3.2927856
	S8.3193359,9.4087524,8.2565308,9.0890503c-0.0229492-0.119751-0.0397949-0.27948-0.0397949-0.4451294
	c0-0.8900757,0.5362549-1.5634155,1.2041626-1.5634155c0.5761719,0,0.8500977,0.4050903,0.8500977,0.9072876
	c0,0.2852783-0.1026611,0.6561279-0.2224731,1.0385132C9.9343262,9.3915405,9.8032227,9.7683716,9.711853,10.1276245
	c-0.1598511,0.6448975,0.3366699,1.1642456,0.9871826,1.1642456c0.9188843,0,1.6036377-0.8787842,1.8660278-2.0942993
	c0.0742188-0.3537598,0.1142578-0.7246094,0.1142578-1.1185303c0-1.3239746-0.9244995-2.3112793-2.5965576-2.3112793
	c-1.8947144,0-3.0759277,1.369751-3.0759277,2.8934326c0,0.2110596,0.0285645,0.3936768,0.0743408,0.5591431
	c0.0683594,0.2510986,0.1939697,0.4508057,0.3422241,0.6278076c0.1141357,0.1313477,0.1313477,0.1825562,0.0856934,0.336731
	c-0.0344238,0.1140137-0.0969238,0.3765869-0.1312866,0.4850464c-0.0342407,0.1483765-0.1654663,0.2110596-0.3080444,0.1483765
	c-0.6049805-0.2398682-0.9873047-0.7590332-1.1642456-1.4038696c-0.079834-0.279541-0.1140747-0.5878296-0.1140747-0.9072876
	c0-1.7177124,1.5009155-3.7663574,4.4567871-3.7663574c2.3910522,0,3.9603271,1.6605225,3.9603271,3.4581909
	C14.2085571,8.6325073,14.1629639,9.0548706,14.0716553,9.4429932z"/>
</svg>
