<?xml version="1.0" encoding="utf-8"?>
<!-- Generator: Adobe Illustrator 22.0.1, SVG Export Plug-In . SVG Version: 6.00 Build 0)  -->
<svg version="1.1" id="Layer_1" xmlns="http://www.w3.org/2000/svg" xmlns:xlink="http://www.w3.org/1999/xlink" x="0px" y="0px"
	 viewBox="0 0 21.2999992 21.2999992" style="enable-background:new 0 0 21.2999992 21.2999992;" xml:space="preserve">
<style type="text/css">
	.st0{fill:url(#SVGID_1_);}
	.st1{fill:#AA882B;}
</style>
<g>
	<linearGradient id="SVGID_1_" gradientUnits="userSpaceOnUse" x1="0.8941041" y1="20.5684948" x2="20.894104" y2="0.2351608">
		<stop  offset="0" style="stop-color:#AA8829"/>
		<stop  offset="1" style="stop-color:#BB9D52;stop-opacity:0.7"/>
	</linearGradient>
	<path class="st0" d="M0.65,0.65v20h20v-20H0.65z M14.7216549,10.0929928
		c-0.3937988,1.7176514-1.6036377,2.8989868-3.2299805,2.8989868c-0.6790161,0-1.3123779-0.3537598-1.5235596-0.7589722
		c0,0-0.3710327,1.392395-0.4395142,1.6662598c-0.2739868,0.9529419-1.0670776,1.8945923-1.1297607,1.9744263
		c-0.0458374,0.0513916-0.1427002,0.0341797-0.1483765-0.0341797c-0.0172729-0.119812-0.2226562-1.3126831,0.0169678-2.2940063
		c0.1142578-0.4907227,0.7990112-3.2927856,0.7990112-3.2927856s-0.0971069-0.1939697-0.1599121-0.5136719
		c-0.0229492-0.119751-0.0397949-0.27948-0.0397949-0.4451294c0-0.8900757,0.5362549-1.5634151,1.2041626-1.5634151
		c0.5761719,0,0.8500977,0.4050899,0.8500977,0.9072871c0,0.2852783-0.1026611,0.6561279-0.2224731,1.0385132
		c-0.1141968,0.3652344-0.2453003,0.7420654-0.3366699,1.1013184c-0.1598511,0.6448975,0.3366699,1.1642456,0.9871826,1.1642456
		c0.9188843,0,1.6036377-0.8787842,1.8660278-2.0942993c0.0742188-0.3537598,0.1142578-0.7246094,0.1142578-1.1185303
		c0-1.3239741-0.9244995-2.3112788-2.5965576-2.3112788c-1.8947144,0-3.0759273,1.369751-3.0759273,2.8934321
		c0,0.2110596,0.0285645,0.3936768,0.0743408,0.5591431c0.0683594,0.2510986,0.1939697,0.4508057,0.3422236,0.6278076
		c0.1141357,0.1313477,0.1313477,0.1825562,0.0856934,0.336731C8.12467,10.9488888,8.06217,11.211462,8.0278072,11.3199215
		c-0.0342402,0.1483765-0.1654658,0.2110596-0.308044,0.1483765c-0.6049805-0.2398682-0.9873047-0.7590332-1.1642456-1.4038696
		C6.4756837,9.7848873,6.441443,9.4765987,6.441443,9.1571407c0-1.7177119,1.5009155-3.7663569,4.4567866-3.7663569
		c2.3910522,0,3.9603271,1.6605225,3.9603271,3.4581904C14.8585567,9.2825069,14.8129635,9.7048702,14.7216549,10.0929928z"/>
	<g>
		<path class="st1" d="M21.299902,21.299902H0.0000977V0.0000977H21.299902V21.299902z M0.2999023,21.0000973h20.7001953V0.2999023
			H0.2999023V21.0000973z"/>
	</g>
</g>
</svg>
