<?xml version="1.0" encoding="utf-8"?>
<!-- Generator: Adobe Illustrator 22.0.1, SVG Export Plug-In . SVG Version: 6.00 Build 0)  -->
<svg version="1.1" id="Layer_1" xmlns="http://www.w3.org/2000/svg" xmlns:xlink="http://www.w3.org/1999/xlink" x="0px" y="0px"
	 viewBox="0 0 21.2999992 21.2999992" style="enable-background:new 0 0 21.2999992 21.2999992;" xml:space="preserve">
<style type="text/css">
	.st0{fill:url(#SVGID_1_);}
	.st1{fill:#AA882B;}
</style>
<g>
	<linearGradient id="SVGID_1_" gradientUnits="userSpaceOnUse" x1="-0.0117837" y1="21.1408253" x2="20.8215504" y2="0.6408247">
		<stop  offset="0" style="stop-color:#AA8829"/>
		<stop  offset="1" style="stop-color:#BB9D52;stop-opacity:0.7"/>
	</linearGradient>
	<path class="st0" d="M0.6498715,0.6497558v20h20v-20H0.6498715z M14.7408752,8.5383053c0,0.0857544,0,0.1826172,0,0.2739258
		c0,0.4223022-0.0452881,0.8503418-0.1426392,1.2838745c-0.5418701,2.425293-2.6248169,4.7594604-5.9973755,4.7594604
		c-1.2156377,0-2.3511968-0.3537598-3.3096929-0.953064c0.1768188,0.0169678,0.342041,0.0285645,0.519043,0.0285645
		c1.0101929,0,1.9345703-0.336731,2.6766362-0.9073486c-0.941834-0.0229492-1.7349248-0.6390991-2.014832-1.4837036
		c0.1315308,0.0284424,0.2684937,0.0455322,0.4055176,0.0455322c0.199585,0,0.3820801-0.0283813,0.5706787-0.0797729
		c-0.7247314-0.1427002-1.3239746-0.6447144-1.586731-1.3126221C5.7647395,9.9536495,5.7132869,9.7024288,5.7132869,9.428503
		c0-0.0113525,0-0.0170288,0-0.0285034c0.2908936,0.159729,0.6219482,0.256897,0.9755859,0.2625732
		c-0.5704956-0.376709-0.9584961-1.0272217-0.9584961-1.7691035c0-0.3880005,0.1140137-0.7475586,0.2965088-1.0671387
		C7.08847,8.116003,8.6807556,8.9606075,10.478302,9.0463009c-0.0341187-0.1541748-0.0629883-0.3140259-0.0629883-0.4852295
		c0-1.1697383,0.9703369-2.1228023,2.1572876-2.1228023c0.6278687,0,1.1923218,0.256958,1.5808716,0.6732788
		c0.4907227-0.0969238,0.9585571-0.2738647,1.3752441-0.5192261c-0.1601562,0.5021362-0.5024414,0.913147-0.953064,1.1812134
		c0.4394531-0.0568848,0.8557129-0.1710205,1.2382202-0.3366699C15.528717,7.8591065,15.1575623,8.235815,14.7408752,8.5383053z"/>
	<g>
		<path class="st1" d="M21.299902,21.299902H0.0000977V0.0000977H21.299902V21.299902z M0.2999023,21.0000973h20.7001953V0.2999023
			H0.2999023V21.0000973z"/>
	</g>
</g>
</svg>
