<?xml version="1.0" encoding="utf-8"?>
<!-- Generator: Adobe Illustrator 22.0.1, SVG Export Plug-In . SVG Version: 6.00 Build 0)  -->
<svg version="1.1" id="Layer_1" xmlns="http://www.w3.org/2000/svg" xmlns:xlink="http://www.w3.org/1999/xlink" x="0px" y="0px"
	 viewBox="0 0 20 20" style="enable-background:new 0 0 20 20;" xml:space="preserve">
<style type="text/css">
	.st0{fill:#AA882B;}
</style>
<path class="st0" d="M0,0v20h20V0H0z M14.0910034,7.8885498c0,0.0857544,0,0.1826172,0,0.2739258
	c0,0.4223022-0.0452881,0.8503418-0.1426392,1.2838745c-0.5418701,2.425293-2.6248169,4.7594604-5.9973755,4.7594604
	c-1.2156372,0-2.3511963-0.3537598-3.3096924-0.953064c0.1768188,0.0169678,0.342041,0.0285645,0.519043,0.0285645
	c1.0101929,0,1.9345703-0.336731,2.6766357-0.9073486c-0.9418335-0.0229492-1.7349243-0.6390991-2.0148315-1.4837036
	c0.1315308,0.0284424,0.2684937,0.0455322,0.4055176,0.0455322c0.199585,0,0.3820801-0.0283813,0.5706787-0.0797729
	c-0.7247314-0.1427002-1.3239746-0.6447144-1.586731-1.3126221C5.1148682,9.303894,5.0634155,9.0526733,5.0634155,8.7787476
	c0-0.0113525,0-0.0170288,0-0.0285034c0.2908936,0.159729,0.6219482,0.256897,0.9755859,0.2625732
	c-0.5704956-0.376709-0.9584961-1.0272217-0.9584961-1.769104c0-0.3880005,0.1140137-0.7475586,0.2965088-1.0671387
	c1.0615845,1.2896729,2.6538696,2.1342773,4.451416,2.2199707C9.7943115,8.2423706,9.7654419,8.0825195,9.7654419,7.9113159
	c0-1.1697388,0.9703369-2.1228027,2.1572876-2.1228027c0.6278687,0,1.1923218,0.256958,1.5808716,0.6732788
	c0.4907227-0.0969238,0.9585571-0.2738647,1.3752441-0.5192261c-0.1601562,0.5021362-0.5024414,0.913147-0.953064,1.1812134
	c0.4394531-0.0568848,0.8557129-0.1710205,1.2382202-0.3366699C14.8788452,7.2093506,14.5076904,7.5860596,14.0910034,7.8885498z"/>
</svg>
