<?xml version="1.0" encoding="utf-8"?>
<!-- Generator: Adobe Illustrator 22.0.1, SVG Export Plug-In . SVG Version: 6.00 Build 0)  -->
<svg version="1.1" id="Layer_1" xmlns="http://www.w3.org/2000/svg" xmlns:xlink="http://www.w3.org/1999/xlink" x="0px" y="0px"
	 viewBox="0 0 21.2999992 21.2999992" style="enable-background:new 0 0 21.2999992 21.2999992;" xml:space="preserve">
<style type="text/css">
	.st0{fill:#AA882B;}
	.st1{fill:url(#SVGID_1_);}
	.st2{fill:url(#SVGID_2_);}
</style>
<g>
	<path class="st0" d="M21.299902,21.299902H0.0000977V0.0000977H21.299902V21.299902z M0.2999023,21.0000973h20.7001953V0.2999023
		H0.2999023V21.0000973z"/>
</g>
<g>
	<linearGradient id="SVGID_1_" gradientUnits="userSpaceOnUse" x1="0.7338426" y1="19.9009247" x2="20.4005089" y2="0.400924">
		<stop  offset="0" style="stop-color:#AA8829"/>
		<stop  offset="1" style="stop-color:#BB9D52;stop-opacity:0.7"/>
	</linearGradient>
	<polygon class="st1" points="9.5141964,8.9120235 9.5141964,9.6631832 9.5141964,12.1314449 12.4894772,10.5278683 
		10.8617916,9.645483 	"/>
	<linearGradient id="SVGID_2_" gradientUnits="userSpaceOnUse" x1="1.0244311" y1="20.1939964" x2="20.6910973" y2="0.6939963">
		<stop  offset="0" style="stop-color:#AA8829"/>
		<stop  offset="1" style="stop-color:#BB9D52;stop-opacity:0.7"/>
	</linearGradient>
	<path class="st2" d="M0.65,0.65v20h20v-20H0.65z M16.1499996,10.3727779v0.7093506
		c0,0.9300537-0.1072998,1.8483887-0.1072998,1.8483887s-0.112915,0.7929688-0.4412231,1.1447144
		c-0.4170532,0.4589844-0.8882446,0.4589844-1.0968018,0.4888306c-1.538269,0.1074219-3.845459,0.1193237-3.845459,0.1193237
		s-2.861877-0.0298462-3.7382197-0.1193237c-0.2503662-0.0476074-0.7990723-0.0298462-1.2163696-0.4888306
		c-0.328064-0.3517456-0.44104-1.1447144-0.44104-1.1447144s-0.1135864-0.918335-0.1135864-1.8483887v-0.7570801v-0.1193237
		c0-0.9180908,0.1135864-1.8482056,0.1135864-1.8482056s0.1129761-0.7929072,0.44104-1.1386714
		c0.4172974-0.453064,0.8823242-0.4591064,1.1025391-0.4890747c1.5386958-0.1131592,3.8397212-0.1131592,3.8397212-0.1131592
		h0.0123291c0,0,2.3071899,0,3.845459,0.1131592c0.2085571,0.0299683,0.6797485,0.0360107,1.0968018,0.4890747
		c0.3283081,0.3457642,0.4412231,1.1386714,0.4412231,1.1386714s0.1072998,0.9301147,0.1072998,1.8482056V10.3727779z"/>
</g>
</svg>
