<?xml version="1.0" encoding="utf-8"?>
<!-- Generator: Adobe Illustrator 22.0.1, SVG Export Plug-In . SVG Version: 6.00 Build 0)  -->
<svg version="1.1" id="Layer_1" xmlns="http://www.w3.org/2000/svg" xmlns:xlink="http://www.w3.org/1999/xlink" x="0px" y="0px"
	 viewBox="0 0 70.8718491 70.8401184" style="enable-background:new 0 0 70.8718491 70.8401184;" xml:space="preserve">
<style type="text/css">
	.st0{fill:#AA882B;}
	.st1{fill:url(#SVGID_1_);}
	.st2{fill:url(#SVGID_2_);}
	.st3{fill:url(#SVGID_3_);}
	.st4{fill:url(#SVGID_4_);}
	.st5{fill:url(#SVGID_5_);}
	.st6{fill:url(#SVGID_6_);}
	.st7{fill:url(#SVGID_7_);}
	.st8{fill:url(#SVGID_8_);}
</style>
<g>
	<path class="st0" d="M383.6845093,369.4993591v70.8661194h70.8661499v-70.8661194H383.6845093z M453.8124695,439.6273193
		H384.422699v-69.3897705h69.3897705V439.6273193z"/>
	
		<linearGradient id="SVGID_1_" gradientUnits="userSpaceOnUse" x1="404.0511475" y1="439.7097778" x2="420.4270935" y2="376.6871643">
		<stop  offset="0" style="stop-color:#AA8829"/>
		<stop  offset="1" style="stop-color:#BB9D52"/>
	</linearGradient>
	<path class="st1" d="M414.6101074,402.9019165c-0.1725159-0.2465515-0.375824-0.4344482-0.6103516-0.5646973
		c-0.2345276-0.1302185-0.5454712-0.1950989-0.9323425-0.1950989c-0.4416504,0-0.8174744,0.1037903-1.1274719,0.3109436
		c-0.3104553,0.2071228-0.5358582,0.5132446-0.676178,0.9188843c-0.1408081,0.4051208-0.2109985,0.8530579-0.2109985,1.3427734
		c0,0.7050171,0.0966187,1.2879639,0.2902832,1.7493591c0.1936951,0.4613647,0.4416809,0.7872009,0.7439575,0.9779968
		c0.3027649,0.1903076,0.6598511,0.2859497,1.071228,0.2859497c0.381134,0,0.7218628-0.0908203,1.0231934-0.2724915
		c0.3008423-0.1816711,0.5368347-0.4882812,0.7079163-0.9212952c0.1705933-0.4325256,0.2561646-0.9573364,0.2561646-1.5744324
		c0-0.4234009-0.0461426-0.8107605-0.1384277-1.1615906S414.7826538,403.148468,414.6101074,402.9019165z"/>
	
		<linearGradient id="SVGID_2_" gradientUnits="userSpaceOnUse" x1="415.8177795" y1="442.7672424" x2="432.1937561" y2="379.7446289">
		<stop  offset="0" style="stop-color:#AA8829"/>
		<stop  offset="1" style="stop-color:#BB9D52"/>
	</linearGradient>
	<path class="st2" d="M420.5759277,425.8391113c-0.0624695-0.0888977-0.1359863-0.157135-0.2205811-0.2042236
		c-0.0845947-0.0466309-0.197052-0.0701904-0.3368835-0.0701904c-0.1595764,0-0.295105,0.0375061-0.407074,0.1119995
		c-0.111969,0.0749512-0.1932068,0.1854858-0.2441406,0.3320923c-0.0509338,0.1460876-0.076416,0.3080444-0.076416,0.4848938
		c0,0.2547302,0.0350952,0.46521,0.1052551,0.6315002c0.0696716,0.1667786,0.1595459,0.2845154,0.2686462,0.353241
		s0.2378845,0.1033325,0.3868713,0.1033325c0.1374512,0,0.260498-0.0326843,0.3695984-0.0985107
		c0.1086121-0.0653687,0.1936646-0.1763916,0.255188-0.3325806c0.0619812-0.156189,0.0927429-0.3455505,0.0927429-0.5685425
		c0-0.152832-0.0168152-0.2926941-0.0499878-0.4195557C420.6860046,426.0361633,420.6379395,425.9280396,420.5759277,425.8391113z"
		/>
	
		<linearGradient id="SVGID_3_" gradientUnits="userSpaceOnUse" x1="403.8162231" y1="439.6487122" x2="420.1921692" y2="376.6261292">
		<stop  offset="0" style="stop-color:#AA8829"/>
		<stop  offset="1" style="stop-color:#BB9D52"/>
	</linearGradient>
	<path class="st3" d="M406.805542,426.8229065c0.1028442,0.0033569,0.2191467,0.0052795,0.3489075,0.0052795
		c0.1259155,0,0.2383728-0.0019226,0.3378601-0.0052795l-0.3508301-0.8453674L406.805542,426.8229065z"/>
	<linearGradient id="SVGID_4_" gradientUnits="userSpaceOnUse" x1="409.699585" y1="441.1774597" x2="426.075531" y2="378.1548767">
		<stop  offset="0" style="stop-color:#AA8829"/>
		<stop  offset="1" style="stop-color:#BB9D52"/>
	</linearGradient>
	<path class="st4" d="M385.1608887,370.9757385v67.9133911h67.9133911v-67.9133911H385.1608887z M393.7207031,402.1329651
		c-0.3056335,0.0091553-0.4868164,0.0202026-0.5444946,0.0341187c-0.0571899,0.0134583-0.098053,0.030304-0.1225586,0.0499878
		c-0.0240173,0.0197144-0.040863,0.0447083-0.0494995,0.0744934c-0.021637,0.0519104-0.0365295,0.1499634-0.0456543,0.2950745
		c-0.0062561,0.0788269-0.0105896,0.2268677-0.0134583,0.4445496c-0.0120239,0.7444458-0.0182495,1.1452637-0.0182495,1.2024536
		v1.8286438l0.0134277,0.8304749c0,0.3118896,0.0153809,0.5142212,0.0456848,0.6079407
		c0.0119934,0.0427856,0.032196,0.0749817,0.0610352,0.0975647c0.0288086,0.0230713,0.0740051,0.040863,0.1359863,0.0547791
		c0.0620117,0.0134583,0.241272,0.0235596,0.5377808,0.0293274v0.399353
		c-0.4930725-0.0182495-1.0193176-0.0273743-1.5787354-0.0273743c-0.4873352,0-0.9212952,0.0091248-1.3023987,0.0273743v-0.399353
		c0.3143005-0.0120239,0.4959717-0.022583,0.5444946-0.0317383c0.063446-0.0119934,0.1066895-0.0288086,0.129303-0.0499573
		c0.022583-0.0211487,0.0369873-0.0451965,0.0432434-0.0725708c0.0091248-0.0360413,0.0211487-0.1783142,0.0360413-0.4263
		c0.0240173-0.3633118,0.0365295-0.698761,0.0365295-1.0073242v-1.8968811c0-0.6021729-0.0033569-0.9890747-0.0091248-1.1615906
		c-0.0153809-0.3840027-0.0336609-0.6247864-0.0543213-0.7213745c-0.0091248-0.0393982-0.0235596-0.0696716-0.0432434-0.0908203
		c-0.0197144-0.0211487-0.0562439-0.0384521-0.1091003-0.0523987c-0.0528564-0.0134583-0.2441406-0.0264282-0.573822-0.0384521
		v-0.399353c0.3811035,0.0182495,0.8179626,0.0273743,1.3110352,0.0273743c0.5536499,0,1.0770264-0.0091248,1.5700989-0.0273743
		V402.1329651z M404.0844421,427.3212585c-0.0437317,0.0798035-0.1043091,0.152832-0.1816711,0.218689
		c-0.0778503,0.0663147-0.1576233,0.1153259-0.2393494,0.1484985c-0.1311951,0.0523682-0.2883301,0.0783386-0.4719238,0.0783386
		c-0.1345825,0-0.2542419-0.0125122-0.3590088-0.0375061c-0.1047668-0.0249634-0.2201233-0.0682373-0.3455505-0.1292725
		c0.0336609-0.124939,0.0509644-0.3143005,0.0523987-0.5690002h0.1374512
		c-0.0024109,0.0787964,0.0038452,0.1763611,0.0182495,0.2936401c0.0413208,0.067749,0.1124573,0.1273499,0.2129211,0.1782837
		c0.1004333,0.0514221,0.2099915,0.0773926,0.3291931,0.0773926c0.1038208,0,0.1965637-0.01828,0.277771-0.0552673
		c0.0812378-0.0365295,0.1403503-0.0870056,0.1768799-0.1513977c0.0369873-0.0643921,0.0552673-0.1374512,0.0552673-0.219635
		c0-0.0687256-0.0130005-0.1278381-0.0384521-0.1768494c-0.0259705-0.0490112-0.0658569-0.0884399-0.120636-0.1182251
		c-0.0547791-0.0293274-0.1509094-0.0600891-0.2883606-0.0917969c-0.197998-0.0413208-0.3277588-0.0711365-0.3902283-0.0898743
		c-0.0937195-0.0283508-0.1696472-0.0692139-0.2268372-0.1230164c-0.0571899-0.0533447-0.1004639-0.1182251-0.1288147-0.1941833
		c-0.0283508-0.0759277-0.0422974-0.1576233-0.0422974-0.2450867c0-0.1220703,0.0254822-0.2350159,0.0769043-0.3383484
		s0.1192017-0.1831055,0.2033081-0.2398071c0.0840759-0.0571899,0.1792603-0.0975647,0.2849731-0.1220703
		c0.1062012-0.0249939,0.2148132-0.0370178,0.3263245-0.0370178c0.1158142,0,0.2278137,0.0105896,0.3364258,0.03125
		s0.2032776,0.0504761,0.2825623,0.0898743l0.0134583,0.0393982c-0.0153809,0.0711365-0.0264282,0.1408081-0.0336304,0.2090759
		c-0.0072021,0.0682373-0.0124817,0.1581116-0.0158691,0.2695923h-0.1374512
		c-0.0023804-0.1268616-0.0076904-0.2162476-0.0163269-0.2686462c-0.0341187-0.0480652-0.0927429-0.0908203-0.1763916-0.1278381
		c-0.0831299-0.0374756-0.1768494-0.0557556-0.2806396-0.0557556c-0.1489868,0-0.263855,0.0375061-0.3450623,0.1119995
		c-0.0812378,0.0749512-0.1220703,0.1624146-0.1220703,0.2628784c0.000946,0.0720825,0.01297,0.1307068,0.0360413,0.175415
		c0.0230713,0.045166,0.0557251,0.0802612,0.0980225,0.1066895c0.0427856,0.0259399,0.1057434,0.0504456,0.1888733,0.0720825
		c0.0629578,0.01297,0.1513977,0.0293274,0.2643433,0.0490112c0.1134033,0.0197144,0.1864624,0.0336609,0.2205811,0.040863
		c0.0884399,0.0230713,0.1600342,0.0509338,0.2148132,0.0831299c0.0543213,0.0322266,0.098053,0.0692139,0.130249,0.1115112
		c0.032196,0.0418091,0.0586243,0.0946655,0.0792847,0.1585999c0.0206909,0.0639038,0.03125,0.1360168,0.03125,0.2157898
		C404.1714172,427.0924988,404.1425781,427.2150574,404.0844421,427.3212585z M400.3288574,405.9805908
		c0.1436768,0.3633423,0.3349609,0.6636963,0.5743103,0.901123c0.2388306,0.2373962,0.479126,0.4104004,0.721344,0.5195007
		c0.3297119,0.1451416,0.7290649,0.2177124,1.1981201,0.2177124c0.3085327,0,0.6002808-0.0346069,0.8756409-0.1042786
		c0.2749023-0.0697021,0.5747986-0.1893616,0.8982239-0.3585205l0.1134338,0.1042786l-0.2085876,0.4584961
		c-0.3782349,0.1994324-0.7175293,0.3363953-1.0188599,0.4104309c-0.3008423,0.0740051-0.6766663,0.1109924-1.1274719,0.1109924
		c-0.6410828,0-1.2086792-0.1014099-1.7017517-0.3037109c-0.3869019-0.1634216-0.7151184-0.3796692-0.9842529-0.6488037
		c-0.2696228-0.2691345-0.4767456-0.5613403-0.6218872-0.8761292c-0.2206116-0.474823-0.3311462-0.990509-0.3311462-1.5470276
		c0-0.9530029,0.3258362-1.7310791,0.9780273-2.3347168c0.6516724-0.6036072,1.571991-0.905426,2.7609863-0.905426
		c0.4085083,0,0.7752075,0.0302734,1.1000671,0.0908203c0.3253784,0.0605774,0.7026367,0.1682129,1.1322937,0.3224792
		l0.022583,0.0586243c-0.0480652,0.1422729-0.0860291,0.3210449-0.1134338,0.5358887
		c-0.045166,0.3416748-0.0740051,0.6579285-0.0860291,0.9481812h-0.354187
		c-0.0057678-0.33255-0.0211487-0.5988159-0.045166-0.7987366c-0.2028198-0.2114563-0.4301453-0.3695679-0.6829224-0.4743347
		c-0.2528076-0.1042786-0.5757446-0.156189-0.9688721-0.156189c-0.7108154,0-1.2793579,0.2244263-1.7061157,0.6737976
		c-0.4262695,0.4493408-0.6396484,1.0760193-0.6396484,1.8805542
		C400.1135559,405.1929016,400.1851501,405.6177368,400.3288574,405.9805908z M408.5327759,427.7095947l-0.4555969-0.009613
		l-0.5752563,0.009613v-0.1360168c0.1321716-0.0052795,0.2071228-0.01297,0.2239685-0.0220947
		c0.0168152-0.0091248,0.0254517-0.0249939,0.0254517-0.0466309c0-0.0273743-0.01297-0.0720825-0.0379639-0.134552
		l-0.1408081-0.3604431h-0.8424683l-0.072113,0.1965637c-0.0542908,0.1509094-0.0816956,0.2445984-0.0816956,0.2821045
		c0,0.0259399,0.008667,0.0446777,0.0259705,0.0557556c0.0264282,0.0148926,0.1042786,0.0249634,0.2345276,0.0292969v0.1360168
		l-0.3787231-0.009613l-0.37677,0.009613v-0.1360168c0.0884094-0.0067139,0.1412964-0.0124817,0.1581116-0.0173035
		c0.0168152-0.0047913,0.03125-0.0124817,0.0432434-0.0230713c0.0120239-0.0100708,0.0245056-0.0264282,0.0370178-0.0490112
		c0.0124817-0.0220947,0.0499878-0.1057434,0.1124573-0.2499084c0.0283508-0.067749,0.0826721-0.201355,0.1638794-0.4013062
		l0.4277344-1.0553589l0.144165-0.3719788h0.232605l0.7324219,1.710907l0.1018982,0.2244263l0.0653381,0.1509094
		c0.0110779,0.0192261,0.0211487,0.0336304,0.03125,0.0422974c0.009613,0.0086365,0.0206604,0.0153809,0.0336304,0.0196838
		c0.0125122,0.0043335,0.04422,0.0081787,0.0956421,0.0115356c0.0163574,0.0024109,0.0403748,0.0048218,0.0720825,0.0081787
		V427.7095947z M412.9619141,425.5546265c-0.1331177,0.0033569-0.2124023,0.01297-0.2373962,0.0297852
		c-0.0091248,0.0052795-0.0148926,0.0134583-0.01828,0.0245056c-0.0163269,0.0543213-0.026886,0.1792603-0.0317078,0.3743896
		c-0.0052795,0.1951294-0.0076904,0.3388062-0.0076904,0.4315796c0,0.7266541,0.0072021,1.1673584,0.021637,1.3225708
		l-0.021637,0.0148926c-0.0917969-0.0153809-0.1850281-0.0297852-0.2801819-0.0427551
		c-0.3527527-0.3945618-0.8530579-0.9866638-1.500885-1.7762756v0.81604c0,0.1691895,0.0033569,0.3455505,0.009613,0.5291443
		c0.0043335,0.1268616,0.0110474,0.2037659,0.0196838,0.2311707c0.0043335,0.01297,0.0120239,0.0235291,0.0221252,0.0317078
		c0.0105591,0.0086365,0.0288391,0.0139465,0.0552673,0.0173035c0.0706482,0.0091248,0.1225586,0.0134583,0.1552429,0.0134583
		c0.0067139,0,0.0177612-0.0009766,0.0331421-0.0019226v0.1326294c-0.2076111-0.0019226-0.3258362-0.0028687-0.354187-0.0028687
		c-0.1057434,0-0.2494202,0.0028687-0.4310913,0.009613v-0.1393738c0.1292725-0.0062561,0.2028198-0.0125122,0.2215576-0.0177917
		c0.0119934-0.0043335,0.0220947-0.0115356,0.0302734-0.0216064c0.0081787-0.009613,0.0148926-0.0298157,0.0201721-0.0605774
		c0.0067444-0.0413208,0.0144348-0.1417542,0.0230713-0.3013306c0.0043335-0.0908203,0.0067444-0.2085571,0.0067444-0.354187
		v-0.5257568l-0.0067444-0.4772339c-0.000946-0.0793152-0.0043335-0.1311951-0.009613-0.1552429
		c-0.0057678-0.0240173-0.0134583-0.0418091-0.0240173-0.0533447c-0.0101013-0.0115356-0.0274048-0.0206604-0.0514221-0.0273743
		c-0.0240479-0.0062561-0.0942078-0.0134583-0.210022-0.0211487v-0.1374512
		c0.1388855,0.0062256,0.2412415,0.009613,0.3066101,0.009613l0.2374268-0.0048218l0.1509094-0.0047913
		c0.2249146,0.2936401,0.4978638,0.6324463,0.8179626,1.0159607c0.2301941,0.2763367,0.4214783,0.4926147,0.5733337,0.6488037
		v-0.3787231c0-0.587738-0.0067139-0.9332886-0.0197144-1.0371094c-0.004303-0.0403748-0.013916-0.066803-0.0292969-0.0787964
		c-0.0254822-0.0197144-0.1105347-0.030304-0.2556763-0.0326843v-0.1374512
		c0.1331177,0.0062256,0.2556763,0.009613,0.367157,0.009613c0.1081543,0,0.2470398-0.0033875,0.4176331-0.009613V425.5546265z
		 M412.976593,408.2403259c-0.680542,0-1.2654114-0.1230164-1.7536926-0.3695679
		c-0.4887695-0.2465515-0.8722839-0.6103516-1.1505432-1.0914307c-0.2782593-0.4810486-0.4171448-1.079895-0.4171448-1.796936
		c0-0.5536194,0.0836182-1.035675,0.2518311-1.4475403c0.1677246-0.411377,0.4075317-0.7607727,0.7189636-1.0481567
		s0.650238-0.4945374,1.016449-0.6213989c0.4690552-0.1605225,0.9804077-0.2407837,1.5335693-0.2407837
		c0.5507507,0,1.0501099,0.0773621,1.4975281,0.2316284c0.3330383,0.1177673,0.6271667,0.2883606,0.882843,0.5104065
		c0.255188,0.2225037,0.4498291,0.4503174,0.5829468,0.6829224c0.1331482,0.2330933,0.2335815,0.4887695,0.3018188,0.7670288
		c0.0677795,0.2782593,0.1018982,0.5853577,0.1018982,0.9208069c0,0.5690308-0.098053,1.0967102-0.2950745,1.5840149
		c-0.1451416,0.362854-0.3575745,0.684845-0.6372681,0.9664917c-0.2797241,0.2811279-0.5983582,0.497406-0.9554138,0.6488037
		C414.1655579,408.138916,413.6056824,408.2403259,412.976593,408.2403259z M416.8763428,425.6089172
		c-0.000946,0.008667-0.0033569,0.1283264-0.0067139,0.3585205h-0.1360168
		c-0.0019226-0.0850525-0.0091248-0.1662903-0.0211487-0.2441406c-0.0067139-0.0389099-0.0134583-0.0624695-0.0211487-0.0701599
		c-0.0067139-0.0057678-0.0240173-0.009613-0.0523682-0.0115356c-0.0898743-0.0086365-0.1975403-0.01297-0.3229675-0.01297
		h-0.2345276c-0.0028992,0.0379639-0.0048218,0.1878967-0.0048218,0.4488831v0.9813538
		c0,0.2359619,0.0062561,0.3782349,0.01828,0.4262695c0.0072021,0.0283813,0.0240173,0.04953,0.0490112,0.0629578
		c0.0249939,0.0139465,0.1033325,0.0226135,0.2345276,0.0269165v0.1345825
		c-0.2124329-0.009613-0.3907166-0.0148926-0.5358582-0.0148926c-0.1552429,0-0.3340149,0.0052795-0.5358582,0.0148926v-0.1345825
		c0.1307068-0.004303,0.2085876-0.01297,0.2330933-0.0259399c0.0249939-0.01297,0.0413208-0.0350952,0.0499878-0.0658264
		c0.0119934-0.0466309,0.0182495-0.1884155,0.0182495-0.4243774v-0.9813538c0-0.2677002-0.0014343-0.4171753-0.0047913-0.4488831
		h-0.2345581c-0.1177368,0-0.2215271,0.0038452-0.3114014,0.0110474c-0.0360413,0.0033569-0.0567322,0.0076904-0.0620117,0.0134583
		c-0.0076904,0.0062561-0.0144043,0.0254822-0.0196838,0.0571899c-0.0144348,0.076416-0.0226135,0.1624451-0.0245361,0.2571106
		h-0.1359863c-0.0048218-0.223938-0.0072021-0.3498535-0.0081787-0.3782043
		c-0.0033569-0.0480652-0.0091248-0.0999756-0.0168152-0.1557312l0.0148926-0.0163269
		c0.0514221,0.0052795,0.1062012,0.0091248,0.1638794,0.0115356c0.0942078,0.0028687,0.2749023,0.0047913,0.5426025,0.0047913
		h0.6617737c0.2753601,0,0.4594421-0.0019226,0.5521851-0.0047913c0.0504761-0.0024109,0.1014099-0.0062561,0.1523438-0.0115356
		l0.0168152,0.0163269C416.8845215,425.5003052,416.8787537,425.5584717,416.8763428,425.6089172z M421.1675415,427.073761
		c-0.0523682,0.1311951-0.1292725,0.2474976-0.2301941,0.3489075c-0.1014099,0.1018982-0.2162781,0.1797485-0.3450623,0.2345276
		c-0.1768494,0.0730591-0.3791809,0.1095886-0.6065063,0.1095886c-0.245575,0-0.4570618-0.04422-0.6334229-0.133606
		c-0.1763916-0.0888977-0.3147888-0.2201233-0.4152222-0.3940735c-0.1004639-0.1735229-0.1509094-0.3897705-0.1509094-0.6488037
		c0-0.1999512,0.0302734-0.3739014,0.0908203-0.5228882c0.0610352-0.1484985,0.1475525-0.2744141,0.2600098-0.3782349
		c0.1124573-0.1037903,0.2350159-0.178772,0.367157-0.2244263c0.1691895-0.0581665,0.3537292-0.0870056,0.5536499-0.0870056
		c0.1989746,0,0.3791809,0.0278931,0.5406799,0.0836487c0.1201477,0.0422668,0.2268372,0.1037903,0.3190918,0.1840515
		c0.0922852,0.0802612,0.1624451,0.1629333,0.2105103,0.2470398c0.0480652,0.0840759,0.0841064,0.1763611,0.1091003,0.2767944
		c0.0245056,0.1004639,0.0365295,0.2114868,0.0365295,0.3325806
		C421.2737732,426.7070618,421.2381897,426.8978577,421.1675415,427.073761z M425.4356995,427.7095947
		c-0.1682129-0.0043335-0.2898254-0.0067444-0.3652649-0.0067444c-0.0874634,0-0.174469,0.0024109-0.2604675,0.0067444
		c-0.0057678-0.0240479-0.0187683-0.0552673-0.0394287-0.0932312l-0.3508301-0.5786438
		c-0.1004333-0.1662903-0.1855164-0.2965088-0.2556763-0.3916931c-0.0350647-0.0480347-0.0687256-0.0840759-0.1014099-0.1081238
		l0.0177917-0.0542908c0.1311951,0.0047913,0.2301941-0.008667,0.2965393-0.0398865
		c0.066803-0.03125,0.1230164-0.0870056,0.1691589-0.1672668c0.0456543-0.0802612,0.0687256-0.1701355,0.0687256-0.2695923
		c0-0.1004639-0.0240479-0.184082-0.0720825-0.2503967c-0.0480652-0.066803-0.107666-0.1134338-0.1788025-0.1393738
		c-0.0456543-0.0163574-0.1278381-0.0245056-0.245575-0.0245056c-0.0523682,0-0.1042786,0.004303-0.1557007,0.01297
		c-0.0033569,0.0393982-0.0067444,0.1278381-0.0101013,0.2652893c-0.0062561,0.3095093-0.009613,0.5156555-0.009613,0.6194763
		c0,0.1638794,0.0014343,0.3378601,0.0048218,0.5209656c0.004303,0.2254028,0.0076904,0.353241,0.0100708,0.3835144
		c0.0028992,0.0615234,0.0091553,0.1014099,0.0177917,0.1196594c0.0043335,0.008667,0.0115356,0.0168152,0.0211487,0.0240479
		c0.0101013,0.0067139,0.0259399,0.0124817,0.0475769,0.0168152c0.0220947,0.0047913,0.0855408,0.0076904,0.1903076,0.0100708
		v0.1441956c-0.1869507-0.0067444-0.375824-0.009613-0.5671082-0.009613c-0.1705933,0-0.3282166,0.0028687-0.4733582,0.009613
		v-0.1441956c0.1244507-0.004303,0.197998-0.0105591,0.2210693-0.0182495c0.01297-0.0028687,0.022583-0.0086365,0.0288391-0.0163269
		c0.0057678-0.0076904,0.0105591-0.0226135,0.013916-0.0456848c0.0072327-0.0427551,0.0130005-0.1071472,0.0163574-0.1931763
		l0.01297-0.4786682v-0.6079712l-0.0067139-0.3460083c-0.0019226-0.1365051-0.008667-0.2182007-0.0197144-0.245575
		c-0.0052795-0.0120239-0.0134583-0.0211487-0.0245056-0.0278931c-0.0259705-0.01297-0.1071777-0.0240173-0.242218-0.0326843
		v-0.134552c0.0249939,0,0.1124573,0.0024109,0.2619019,0.0067139c0.0730591,0.0019226,0.1768799,0.0033875,0.3114319,0.0033875
		c0.1148682,0,0.2128906-0.0024109,0.2950745-0.0067444c0.1355286-0.0052795,0.2475281-0.0081787,0.3359375-0.0081787
		c0.1715698,0,0.2998962,0.0120239,0.3849487,0.0370178c0.085083,0.0245056,0.1581421,0.07547,0.2182007,0.152832
		c0.0600891,0.0778503,0.0898743,0.1720581,0.0898743,0.2835388c0,0.1321716-0.040863,0.2523193-0.1230469,0.3604431
		c-0.0816956,0.1086121-0.2080688,0.1941833-0.3782043,0.2575989c0.0273743,0.0490417,0.058136,0.0994873,0.0932312,0.1509094
		c0.0350647,0.0509338,0.0552673,0.0821838,0.0615234,0.0932312c0.0057678,0.0110474,0.0124817,0.0211487,0.0187378,0.03125
		l0.2542114,0.3815918c0.0677795,0.1018677,0.1043091,0.156189,0.1095886,0.1638794
		c0.0821838,0.1091003,0.1321716,0.1739807,0.1509094,0.1932068c0.0182495,0.0196838,0.0365295,0.0336304,0.053833,0.0413208
		c0.0177612,0.0076904,0.0518799,0.0120239,0.1033325,0.01297V427.7095947z M428.3374939,425.5613403
		c-0.1105347,0.0033569-0.1759033,0.0072021-0.1965637,0.0120239c-0.0206604,0.0052795-0.035553,0.0110474-0.04422,0.0182495
		c-0.0091248,0.0072021-0.0148926,0.0158691-0.0182495,0.0269165c-0.0076904,0.0187378-0.01297,0.0543213-0.0163574,0.1066895
		c-0.0018921,0.0283508-0.0038147,0.0816956-0.0047913,0.1605225c-0.0043335,0.2686462-0.0067139,0.4132996-0.0067139,0.4344482
		v0.6603394l0.0047913,0.2998962c0,0.1124573,0.0057678,0.1855164,0.0168152,0.219635
		c0.0043335,0.0148926,0.0115356,0.0269165,0.0221252,0.0350647c0.0100708,0.0081787,0.0264282,0.0148926,0.0490112,0.0197144
		c0.0220947,0.0047913,0.0869751,0.0081787,0.1941528,0.0105591v0.1441956
		c-0.1782837-0.0067444-0.3681335-0.009613-0.5704651-0.009613c-0.1759033,0-0.33255,0.0028687-0.4700012,0.009613v-0.1441956
		c0.1134033-0.004303,0.1792603-0.0081482,0.1965637-0.0115356c0.0230408-0.004303,0.0384216-0.0105591,0.0466003-0.0177612
		c0.0081787-0.0076904,0.0134583-0.0168152,0.0153809-0.0264282c0.0033569-0.0130005,0.0076904-0.0644226,0.0134583-0.1542664
		c0.0086365-0.1307373,0.01297-0.2523193,0.01297-0.3633423v-0.6853333c0-0.2172241-0.000946-0.3570557-0.0033569-0.4195557
		c-0.0052795-0.1383972-0.0120239-0.2254028-0.0197144-0.2604675c-0.0033569-0.0139465-0.0081482-0.0249939-0.0153809-0.0326843
		c-0.0072021-0.0076904-0.0201721-0.0139465-0.0393982-0.0187378c-0.0192261-0.0048218-0.0884399-0.009613-0.2071228-0.0139465
		v-0.144165c0.1374512,0.0062256,0.2955627,0.009613,0.4733582,0.009613c0.1999512,0,0.3888245-0.0033875,0.5671082-0.009613
		V425.5613403z M428.5895691,402.1147156c-0.3691101,0.0091248-0.5887146,0.0365295-0.6579285,0.0816956
		c-0.0245056,0.0153809-0.040863,0.0379639-0.0499878,0.0682373c-0.0456543,0.1513977-0.0749817,0.4969482-0.0884399,1.0366516
		c-0.013916,0.5401917-0.0206604,0.9385986-0.0206604,1.1957092c0,2.0117493,0.0197144,3.2324524,0.0591125,3.6621094
		l-0.0591125,0.0403748c-0.2542114-0.0422974-0.5127869-0.0812378-0.7756653-0.1177673
		c-0.9775391-1.0918884-2.3625793-2.7316589-4.1566467-4.9188538v2.2597656c0,0.4690552,0.0091248,0.9573364,0.0274048,1.4657898
		c0.0120239,0.3508301,0.0297852,0.564209,0.0542908,0.639679c0.0120239,0.0365295,0.0322266,0.0658264,0.0610352,0.0884094
		c0.0288391,0.0226135,0.0798035,0.0384521,0.1523743,0.0475769c0.1965332,0.0245361,0.3402405,0.0365295,0.4310913,0.0365295
		c0.0177612,0,0.0480347-0.0014343,0.090332-0.0047913v0.3676453c-0.5747681-0.0057678-0.9010925-0.0091248-0.9799194-0.0091248
		c-0.2936401,0-0.6911011,0.0091248-1.1932983,0.0273743v-0.3858948c0.3570557-0.0177917,0.5608521-0.0346069,0.6127319-0.0494995
		c0.0331726-0.0120239,0.0610352-0.0317383,0.0836182-0.0591125c0.0226135-0.0274048,0.0418396-0.0831604,0.0567322-0.1677246
		c0.0182495-0.1153564,0.0393982-0.3936157,0.0634155-0.8352661c0.0120239-0.250885,0.01828-0.5776978,0.01828-0.97995v-1.456665
		l-0.01828-1.3201904c-0.0028687-0.2210693-0.0119934-0.3647766-0.026886-0.4310913
		c-0.0153809-0.066803-0.0370178-0.1158142-0.0658569-0.147522c-0.0288391-0.0317383-0.076416-0.0567322-0.143219-0.0749817
		c-0.0663147-0.01828-0.2599792-0.0379639-0.5805359-0.0591125v-0.3811035
		c0.3839722,0.0182495,0.6670532,0.0273743,0.8482361,0.0273743l0.6584167-0.013916l0.4171448-0.0134583
		c0.6233215,0.8136292,1.3778687,1.7517395,2.2645569,2.813385c0.6382141,0.7651062,1.1673584,1.3643799,1.5878601,1.796936
		v-1.0481873c0-1.6277466-0.0182495-2.5851135-0.0542908-2.8724976c-0.0120239-0.111969-0.0394287-0.1845398-0.0817261-0.2177124
		c-0.0696716-0.0542908-0.3056335-0.0845642-0.7078857-0.0908203v-0.3811035
		c0.3690796,0.0182495,0.7078857,0.0273743,1.016449,0.0273743c0.299408,0,0.6853027-0.0091248,1.1572571-0.0273743V402.1147156z
		 M432.7940369,425.5546265c-0.1331482,0.0033569-0.2124329,0.01297-0.2374268,0.0297852
		c-0.0091248,0.0052795-0.0148926,0.0134583-0.0182495,0.0245056c-0.0163574,0.0543213-0.0269165,0.1792603-0.0317383,0.3743896
		c-0.0052795,0.1951294-0.0076904,0.3388062-0.0076904,0.4315796c0,0.7266541,0.0072327,1.1673584,0.021637,1.3225708
		l-0.021637,0.0148926c-0.0917969-0.0153809-0.1850281-0.0297852-0.2801819-0.0427551
		c-0.3527527-0.3945618-0.8530579-0.9866638-1.500885-1.7762756v0.81604c0,0.1691895,0.0033569,0.3455505,0.009613,0.5291443
		c0.0043335,0.1268616,0.0110474,0.2037659,0.0197144,0.2311707c0.004303,0.01297,0.0119934,0.0235291,0.0220947,0.0317078
		c0.0105896,0.0086365,0.0288391,0.0139465,0.0552673,0.0173035c0.0706482,0.0091248,0.1225586,0.0134583,0.1552429,0.0134583
		c0.0067139,0,0.0177612-0.0009766,0.0331421-0.0019226v0.1326294c-0.2076111-0.0019226-0.3258362-0.0028687-0.354187-0.0028687
		c-0.1057129,0-0.2494202,0.0028687-0.4310913,0.009613v-0.1393738c0.1292725-0.0062561,0.2028198-0.0125122,0.2215576-0.0177917
		c0.0120239-0.0043335,0.0220947-0.0115356,0.0302734-0.0216064c0.0081787-0.009613,0.0148926-0.0298157,0.0202026-0.0605774
		c0.0067139-0.0413208,0.0144043-0.1417542,0.0230408-0.3013306c0.0043335-0.0908203,0.0067444-0.2085571,0.0067444-0.354187
		v-0.5257568l-0.0067444-0.4772339c-0.000946-0.0793152-0.004303-0.1311951-0.009613-0.1552429
		c-0.0057678-0.0240173-0.0134277-0.0418091-0.0240173-0.0533447c-0.0101013-0.0115356-0.0274048-0.0206604-0.0514221-0.0273743
		c-0.0240173-0.0062561-0.0942078-0.0134583-0.210022-0.0211487v-0.1374512
		c0.1388855,0.0062256,0.241272,0.009613,0.3066101,0.009613l0.2374268-0.0048218l0.1509094-0.0047913
		c0.2249146,0.2936401,0.4978943,0.6324463,0.8179626,1.0159607c0.2301941,0.2763367,0.4214783,0.4926147,0.5733337,0.6488037
		v-0.3787231c0-0.587738-0.0067139-0.9332886-0.0196838-1.0371094c-0.0043335-0.0403748-0.0139465-0.066803-0.0293274-0.0787964
		c-0.0254822-0.0197144-0.1105347-0.030304-0.2556763-0.0326843v-0.1374512
		c0.1331177,0.0062256,0.2556763,0.009613,0.3671875,0.009613c0.1081238,0,0.2470093-0.0033875,0.4176331-0.009613V425.5546265z
		 M435.74823,425.5613403c-0.1105347,0.0033569-0.1759033,0.0072021-0.1965637,0.0120239
		c-0.0206604,0.0052795-0.0355835,0.0110474-0.04422,0.0182495c-0.0091248,0.0072021-0.0148926,0.0158691-0.0182495,0.0269165
		c-0.0076904,0.0187378-0.0130005,0.0543213-0.0163574,0.1066895c-0.0019226,0.0283508-0.0038452,0.0816956-0.0047913,0.1605225
		c-0.0043335,0.2686462-0.0067444,0.4132996-0.0067444,0.4344482v0.6603394l0.0048218,0.2998962
		c0,0.1124573,0.0057678,0.1855164,0.0168152,0.219635c0.0043335,0.0148926,0.0115356,0.0269165,0.0220947,0.0350647
		c0.0101013,0.0081787,0.0264282,0.0148926,0.0490417,0.0197144c0.0220947,0.0047913,0.0869751,0.0081787,0.1941528,0.0105591
		v0.1441956c-0.1783142-0.0067444-0.3681335-0.009613-0.5704651-0.009613c-0.1759033,0-0.3325806,0.0028687-0.4700317,0.009613
		v-0.1441956c0.1134338-0.004303,0.1792603-0.0081482,0.1965637-0.0115356
		c0.0230713-0.004303,0.0384521-0.0105591,0.0466309-0.0177612c0.0081482-0.0076904,0.0134583-0.0168152,0.0153809-0.0264282
		c0.0033569-0.0130005,0.0076904-0.0644226,0.0134583-0.1542664c0.0086365-0.1307373,0.01297-0.2523193,0.01297-0.3633423
		v-0.6853333c0-0.2172241-0.0009766-0.3570557-0.0033569-0.4195557c-0.0053101-0.1383972-0.0120239-0.2254028-0.0197144-0.2604675
		c-0.0033569-0.0139465-0.0081787-0.0249939-0.0153809-0.0326843s-0.0201721-0.0139465-0.0393982-0.0187378
		c-0.0192261-0.0048218-0.0884399-0.009613-0.2071533-0.0139465v-0.144165
		c0.1374512,0.0062256,0.2955627,0.009613,0.4733887,0.009613c0.1999207,0,0.3887939-0.0033875,0.5671082-0.009613V425.5613403z
		 M436.4064026,402.1329651c-0.3056641,0.0091553-0.4868469,0.0202026-0.5445251,0.0341187
		c-0.0571899,0.0134583-0.0980225,0.030304-0.1225586,0.0499878c-0.0240173,0.0197144-0.0408325,0.0447083-0.0494995,0.0744934
		c-0.0216064,0.0519104-0.036499,0.1499634-0.0456543,0.2950745c-0.0062256,0.0788269-0.0105591,0.2268677-0.0134583,0.4445496
		c-0.0119934,0.7444458-0.0182495,1.1452637-0.0182495,1.2024536v1.8286438l0.0134583,0.8304749
		c0,0.3118896,0.0153809,0.5142212,0.0456543,0.6079407c0.0120239,0.0427856,0.032196,0.0749817,0.0610352,0.0975647
		c0.0288391,0.0230713,0.0740051,0.040863,0.1360168,0.0547791c0.0619812,0.0134583,0.2412415,0.0235596,0.5377808,0.0293274
		v0.399353c-0.493103-0.0182495-1.0193481-0.0273743-1.5787659-0.0273743c-0.4873047,0-0.9212952,0.0091248-1.3023987,0.0273743
		v-0.399353c0.3143005-0.0120239,0.4959717-0.022583,0.5445251-0.0317383
		c0.063446-0.0119934,0.1066895-0.0288086,0.1292725-0.0499573s0.0370178-0.0451965,0.0432434-0.0725708
		c0.0091553-0.0360413,0.0211487-0.1783142,0.0360413-0.4263c0.0240479-0.3633118,0.0365295-0.698761,0.0365295-1.0073242
		v-1.8968811c0-0.6021729-0.0033569-0.9890747-0.0091248-1.1615906c-0.0153809-0.3840027-0.0336304-0.6247864-0.0542908-0.7213745
		c-0.0091553-0.0393982-0.0235596-0.0696716-0.0432739-0.0908203c-0.0196838-0.0211487-0.0562134-0.0384521-0.1091003-0.0523987
		c-0.0528564-0.0134583-0.2441406-0.0264282-0.573822-0.0384521v-0.399353
		c0.3811035,0.0182495,0.8179626,0.0273743,1.3110657,0.0273743c0.5536499,0,1.0769958-0.0091248,1.5700989-0.0273743V402.1329651z
		 M443.0145264,405.9805908c0.1437073,0.3633423,0.3349915,0.6636963,0.5743103,0.901123
		c0.2388611,0.2373962,0.4791565,0.4104004,0.7213745,0.5195007c0.3296814,0.1451416,0.7290649,0.2177124,1.1981201,0.2177124
		c0.3085327,0,0.6002502-0.0346069,0.8756409-0.1042786c0.2748718-0.0697021,0.5747681-0.1893616,0.8982239-0.3585205
		l0.1134033,0.1042786l-0.2085571,0.4584961c-0.3782349,0.1994324-0.7175293,0.3363953-1.0188599,0.4104309
		c-0.3008728,0.0740051-0.6766968,0.1109924-1.1274719,0.1109924c-0.6411133,0-1.2086792-0.1014099-1.7017822-0.3037109
		c-0.3868713-0.1634216-0.7151184-0.3796692-0.9842529-0.6488037c-0.2696228-0.2691345-0.4767456-0.5613403-0.6218872-0.8761292
		c-0.2205811-0.474823-0.3311157-0.990509-0.3311157-1.5470276c0-0.9530029,0.3258362-1.7310791,0.9779968-2.3347168
		c0.6516724-0.6036072,1.5720215-0.905426,2.7609863-0.905426c0.4085083,0,0.7752075,0.0302734,1.1000977,0.0908203
		c0.3253479,0.0605774,0.7026062,0.1682129,1.1322632,0.3224792l0.022583,0.0586243
		c-0.0480652,0.1422729-0.0860291,0.3210449-0.1134033,0.5358887c-0.0451965,0.3416748-0.0740356,0.6579285-0.0860291,0.9481812
		h-0.3542175c-0.0057678-0.33255-0.0211182-0.5988159-0.045166-0.7987366
		c-0.2028198-0.2114563-0.4301147-0.3695679-0.6829224-0.4743347c-0.2527771-0.1042786-0.5757446-0.156189-0.9688721-0.156189
		c-0.7107849,0-1.2793274,0.2244263-1.7060852,0.6737976c-0.4263,0.4493408-0.639679,1.0760193-0.639679,1.8805542
		C442.7992249,405.1929016,442.8708191,405.6177368,443.0145264,405.9805908z"/>
</g>
<g>
	<path class="st0" d="M0.0028537-0.0130117v70.8661346h70.8661423V-0.0130117H0.0028537z M70.130806,70.1149445H0.7410426V0.7251773
		H70.130806V70.1149445z"/>
	<linearGradient id="SVGID_5_" gradientUnits="userSpaceOnUse" x1="-0.4431115" y1="77.2960434" x2="55.6109428" y2="-1.3534458">
		<stop  offset="0" style="stop-color:#AA8829"/>
		<stop  offset="1" style="stop-color:#BB9D52;stop-opacity:0.7"/>
	</linearGradient>
	<path class="st5" d="M30.9284534,33.3895607c-0.1725311-0.2465439-0.3758221-0.4344559-0.6103516-0.5646973
		c-0.2345276-0.1302414-0.5454712-0.1951218-0.9323463-0.1951218c-0.4416656,0-0.8174877,0.1038094-1.12747,0.3109436
		c-0.310461,0.2071342-0.5358582,0.5132713-0.6761913,0.9188919c-0.1408138,0.4051399-0.2109795,0.8530502-0.2109795,1.3427734
		c0,0.7050285,0.0965977,1.2879868,0.2902775,1.7493553c0.1936779,0.4613686,0.4416637,0.7872086,0.7439556,0.9780045
		c0.3027725,0.1903152,0.659853,0.2859497,1.0712395,0.2859497c0.3811092,0,0.7218475-0.0908318,1.0231781-0.2724953
		c0.3008518-0.1816635,0.5368214-0.4882812,0.7079124-0.9212914c0.1706104-0.4325333,0.256155-0.9573402,0.256155-1.5744209
		c0-0.4234009-0.0461369-0.8107567-0.1384106-1.1615906C31.2331486,33.9350319,31.1009865,33.6361008,30.9284534,33.3895607z"/>
	<linearGradient id="SVGID_6_" gradientUnits="userSpaceOnUse" x1="14.387351" y1="87.8658218" x2="70.4414062" y2="9.2163315">
		<stop  offset="0" style="stop-color:#AA8829"/>
		<stop  offset="1" style="stop-color:#BB9D52;stop-opacity:0.7"/>
	</linearGradient>
	<path class="st6" d="M36.8942795,56.3267632c-0.0624771-0.0889091-0.1360054-0.1571541-0.2205925-0.2042503
		c-0.0845833-0.0466194-0.1970406-0.0701675-0.336895-0.0701675c-0.1595535,0-0.2950821,0.037487-0.4070587,0.1119766
		c-0.1119804,0.0749741-0.1931992,0.1855087-0.2441406,0.3320885c-0.0509453,0.1461029-0.076416,0.3080597-0.076416,0.4849167
		c0,0.254715,0.0350838,0.4652138,0.1052513,0.6315002c0.0696869,0.1667633,0.1595573,0.2845078,0.2686501,0.3532333
		s0.2378922,0.1033287,0.3868752,0.1033287c0.1374512,0,0.2604828-0.0326805,0.3695755-0.0985222
		c0.1086159-0.065361,0.1936798-0.1763763,0.2551956-0.3325691c0.0619965-0.1561928,0.0927544-0.3455467,0.0927544-0.5685387
		c0-0.1528282-0.0168228-0.2926826-0.0499802-0.4195595C37.0043373,56.5238037,36.9562759,56.4156723,36.8942795,56.3267632z"/>
	<linearGradient id="SVGID_7_" gradientUnits="userSpaceOnUse" x1="5.8788972" y1="81.8017807" x2="61.9329529" y2="3.1522951">
		<stop  offset="0" style="stop-color:#AA8829"/>
		<stop  offset="1" style="stop-color:#BB9D52;stop-opacity:0.7"/>
	</linearGradient>
	<path class="st7" d="M23.1238842,57.3105354c0.1028461,0.0033646,0.2191505,0.0052872,0.3489094,0.0052872
		c0.1259155,0,0.2383728-0.0019226,0.3378563-0.0052872l-0.350832-0.8453636L23.1238842,57.3105354z"/>
	<linearGradient id="SVGID_8_" gradientUnits="userSpaceOnUse" x1="3.5581589" y1="80.1477737" x2="59.6122131" y2="1.4982884">
		<stop  offset="0" style="stop-color:#AA8829"/>
		<stop  offset="1" style="stop-color:#BB9D52;stop-opacity:0.7"/>
	</linearGradient>
	<path class="st8" d="M1.4792316,1.4633663v67.9133911h67.9133835V1.4633663H1.4792316z M10.039052,32.6206131
		c-0.3056564,0.0091286-0.4868393,0.0201836-0.5445108,0.0341225c-0.0571899,0.0134544-0.0980406,0.0302773-0.122551,0.0499802
		c-0.0240297,0.0197029-0.0408497,0.0446968-0.0495005,0.0744934c-0.0216265,0.0519028-0.0365248,0.1499443-0.0456562,0.2950821
		c-0.0062475,0.0788155-0.0105734,0.2268372-0.0134573,0.4445457c-0.0120144,0.7444382-0.0182619,1.1452522-0.0182619,1.2024422
		v1.8286514l0.0134563,0.8304634c0,0.3119049,0.015379,0.5142326,0.0456562,0.6079483
		c0.0120153,0.0427704,0.0321999,0.0749702,0.0610352,0.0975609c0.0288353,0.0230675,0.0740108,0.0408478,0.1360073,0.0547867
		c0.0619965,0.0134544,0.2412577,0.0235481,0.5377827,0.0293159v0.3993721
		c-0.4930878-0.0182648-1.0193357-0.0273933-1.5787439-0.0273933c-0.4873204,0-0.9212947,0.0091286-1.3024039,0.0273933v-0.3993721
		c0.3143072-0.0120163,0.4959707-0.0225868,0.5445104-0.0317192c0.0634384-0.0120163,0.1066914-0.0288353,0.1292791-0.0499802
		c0.0225878-0.0211487,0.0370059-0.0451775,0.0432534-0.0725708c0.0091314-0.0360451,0.0211458-0.178299,0.0360441-0.4262848
		c0.0240297-0.363327,0.0365252-0.6987801,0.0365252-1.0073204v-1.8968964c0-0.6021805-0.0033641-0.9890594-0.0091314-1.1615906
		c-0.015379-0.3839912-0.0336413-0.6247673-0.0543065-0.7213669c-0.0091314-0.0394096-0.0235491-0.0696869-0.0432534-0.0908318
		c-0.0197043-0.0211487-0.0562291-0.0384483-0.1090946-0.0523872c-0.052865-0.0134544-0.2441406-0.026432-0.5738263-0.0384445
		V32.221241c0.3811092,0.018261,0.8179669,0.0273933,1.3110547,0.0273933c0.5536413,0,1.0770054-0.0091324,1.5700932-0.0273933
		V32.6206131z M20.4027729,57.8089066c-0.0437336,0.0797806-0.1042881,0.1528282-0.1816635,0.2186699
		c-0.0778561,0.0663223-0.1576347,0.1153412-0.2393341,0.1485023c-0.1312027,0.0523872-0.2883549,0.0783386-0.471941,0.0783386
		c-0.1345654,0-0.2542343-0.0124969-0.3590031-0.037487s-0.2201099-0.0682449-0.3455448-0.1292801
		c0.0336418-0.1249542,0.0509434-0.3143044,0.0523834-0.5690193h0.1374493
		c-0.0024014,0.0788155,0.0038452,0.1763763,0.0182629,0.2936401c0.0413322,0.0677643,0.1124592,0.1273575,0.2129021,0.178299
		c0.1004448,0.0514259,0.2100201,0.0773773,0.3292065,0.0773773c0.1038074,0,0.1965618-0.0182648,0.2777824-0.0552673
		c0.0812187-0.0365257,0.1403313-0.0869865,0.176857-0.1513863c0.0370064-0.0643997,0.0552673-0.1374512,0.0552673-0.2196312
		c0-0.0687256-0.0129757-0.1278381-0.0384464-0.176857c-0.0259514-0.0490227-0.0658417-0.0884285-0.1206284-0.1182251
		c-0.0547886-0.0293198-0.1509056-0.0600777-0.2883549-0.0917931c-0.1980038-0.0413322-0.3277645-0.0711288-0.3902416-0.0898743
		c-0.0937157-0.0283546-0.1696491-0.0692024-0.2268391-0.1230316c-0.0571899-0.0533447-0.1004429-0.1182251-0.1287975-0.1941566
		c-0.0283566-0.0759354-0.0422935-0.1576347-0.0422935-0.2451019c0-0.1220703,0.0254726-0.2350082,0.0768948-0.3383369
		c0.051424-0.1033287,0.1191864-0.1831055,0.2032909-0.2398148c0.0841026-0.0571899,0.1792603-0.0975609,0.2849903-0.1220703
		c0.1062107-0.0249901,0.2148247-0.0370064,0.3263226-0.0370064c0.1158218,0,0.2278004,0.0105743,0.3364143,0.0312386
		s0.2032909,0.0504608,0.2825871,0.0898705l0.0134563,0.0394096c-0.015379,0.071125-0.026432,0.1408119-0.0336399,0.2090569
		c-0.0072098,0.0682449-0.0124969,0.1581154-0.0158596,0.2696114h-0.1374493
		c-0.0024033-0.1268768-0.0076904-0.2162666-0.0163403-0.2686501c-0.0341225-0.0480614-0.0927544-0.0908318-0.1763783-0.1278381
		c-0.0831413-0.037487-0.176857-0.055748-0.2806644-0.055748c-0.1489849,0-0.2638454,0.037487-0.3450661,0.1119766
		c-0.0812187,0.0749741-0.1220703,0.1624413-0.1220703,0.262886c0.0009613,0.0720863,0.0129757,0.1307182,0.0360451,0.175415
		c0.0230675,0.0451736,0.055748,0.0802574,0.0980415,0.1066895c0.0427723,0.0259552,0.1057301,0.0504646,0.1888714,0.0720901
		c0.0629578,0.0129776,0.1513863,0.0293159,0.2643261,0.0490189c0.1134186,0.0197067,0.18647,0.0336418,0.2205906,0.0408516
		c0.0884304,0.0230675,0.160038,0.0509415,0.2148247,0.0831413c0.0543079,0.0321999,0.0980415,0.0692062,0.1302414,0.1114998
		c0.0321999,0.0418091,0.0586319,0.094677,0.079298,0.158596c0.0206642,0.0639153,0.0312386,0.1360054,0.0312386,0.2157822
		C20.4897614,57.5801468,20.4609241,57.7026978,20.4027729,57.8089066z M16.6471882,36.4682312
		c0.1436977,0.363327,0.3349724,0.6636963,0.5743084,0.9011078c0.2388535,0.2374115,0.4791489,0.4104271,0.7213669,0.5195198
		c0.3296871,0.1451378,0.7290592,0.2177086,1.1981163,0.2177086c0.3085403,0,0.6002598-0.0346031,0.875639-0.10429
		c0.2748985-0.0696831,0.5747871-0.1893501,0.8982258-0.3585205l0.1134186,0.10429l-0.2085762,0.4584846
		c-0.3782253,0.1994438-0.7175236,0.3364143-1.0188541,0.4104233c-0.3008518,0.0740128-0.6766739,0.1110191-1.1274681,0.1110191
		c-0.6411095,0-1.2086887-0.1014061-1.7017765-0.3037338c-0.3868771-0.1634026-0.7151203-0.3796692-0.984252-0.6487999
		c-0.2696114-0.2691307-0.4767466-0.5613327-0.6218853-0.8761177c-0.2205915-0.4748268-0.3311281-0.9905014-0.3311281-1.5470276
		c0-0.9530144,0.325841-1.7310905,0.9780045-2.334713c0.6516819-0.6036224,1.5720158-0.9054375,2.7609997-0.9054375
		c0.4085026,0,0.7751942,0.0302773,1.1000748,0.0908318c0.3253613,0.0605545,0.7026253,0.1682091,1.1322746,0.3224792
		l0.0225868,0.0586319c-0.0480595,0.1422539-0.0860252,0.3210335-0.1134186,0.5358582
		c-0.0451756,0.3417015-0.0740108,0.6579323-0.0860271,0.9482079h-0.3541946
		c-0.0057678-0.3325691-0.0211468-0.5988159-0.0451775-0.7987442c-0.2028084-0.2114601-0.4301281-0.3695717-0.6829205-0.4743423
		c-0.2527905-0.10429-0.5757484-0.1561928-0.9688721-0.1561928c-0.7107964,0-1.279335,0.2244377-1.7061005,0.67379
		c-0.4262867,0.4493523-0.6396694,1.076046-0.6396694,1.8805542C16.4318829,35.6805382,16.5034924,36.1053848,16.6471882,36.4682312
		z M24.8511314,58.1972275l-0.4556007-0.009613l-0.5752697,0.009613v-0.1360092
		c0.132164-0.0052872,0.2071362-0.0129738,0.2239571-0.0221062c0.016819-0.0091324,0.0254707-0.0249901,0.0254707-0.0466194
		c0-0.0273933-0.0129757-0.0720863-0.0379677-0.1345634l-0.1408119-0.3604431h-0.8424778l-0.0720882,0.1965599
		c-0.0543079,0.1509056-0.0817013,0.2446213-0.0817013,0.2821083c0,0.0259514,0.0086498,0.044693,0.0259514,0.055748
		c0.026432,0.0149002,0.1042881,0.0249901,0.2345295,0.0293159v0.1360092l-0.378706-0.009613l-0.3767853,0.009613v-0.1360092
		c0.0884304-0.0067291,0.1412945-0.0124931,0.1581154-0.0172997s0.0312386-0.0124969,0.0432529-0.0230713
		c0.0120144-0.0100899,0.0245113-0.026432,0.0370064-0.0490189c0.012495-0.0221062,0.0499802-0.105732,0.1124573-0.2499084
		c0.0283546-0.0677643,0.0826626-0.2013664,0.1638832-0.4012947l0.4277267-1.055378l0.1441765-0.3719788h0.2326069
		l0.7324219,1.710907l0.1018848,0.2244377l0.065361,0.1509056c0.0110531,0.0192223,0.0211468,0.0336418,0.0312386,0.0422897
		c0.0096111,0.0086517,0.0206661,0.0153809,0.0336418,0.0197067c0.012495,0.0043259,0.0442142,0.0081673,0.0956364,0.0115318
		c0.0163403,0.0024033,0.0403709,0.0048065,0.0720901,0.0081711V58.1972275z M29.2802639,56.0422516
		c-0.1331234,0.0033646-0.2124214,0.0129776-0.2374115,0.0297966c-0.0091305,0.0052872-0.0148983,0.0134583-0.0182629,0.0245094
		c-0.0163403,0.0543098-0.0269127,0.1792641-0.0317192,0.374382c-0.0052853,0.1951218-0.0076885,0.3388176-0.0076885,0.431572
		c0,0.7266541,0.0072079,1.1673584,0.0216255,1.3225899l-0.0216255,0.0148964
		c-0.0917931-0.015377-0.1850281-0.0297966-0.2801857-0.0427704c-0.3527546-0.3945656-0.8530502-0.9866562-1.5008888-1.776268
		v0.8160439c0,0.1691704,0.0033646,0.3455467,0.009613,0.5291328c0.0043259,0.1268768,0.0110531,0.2037697,0.0197048,0.231163
		c0.004324,0.0129776,0.0120144,0.0235481,0.0221062,0.0317192c0.0105724,0.0086517,0.0288353,0.0139389,0.0552673,0.0173035
		c0.0706482,0.0091286,0.122551,0.0134544,0.1552315,0.0134544c0.0067291,0,0.0177822-0.0009613,0.0331612-0.0019226v0.1326447
		c-0.2076149-0.0019226-0.3258419-0.0028839-0.3541965-0.0028839c-0.1057301,0-0.2494259,0.0028839-0.4310894,0.009613v-0.1393738
		c0.1292782-0.0062485,0.2028084-0.0124931,0.2215519-0.0177803c0.0120144-0.0043259,0.0221081-0.0115356,0.0302773-0.0216293
		c0.0081711-0.0096092,0.0148983-0.0297966,0.0201855-0.0605545c0.0067272-0.0413284,0.0144176-0.1417732,0.0230675-0.3013306
		c0.0043259-0.0908318,0.0067291-0.2085762,0.0067291-0.3541946v-0.5257683l-0.0067291-0.4772263
		c-0.0009613-0.0792999-0.004324-0.1312027-0.0096111-0.1552315c-0.0057678-0.0240288-0.0134563-0.0418129-0.0240307-0.0533447
		c-0.0100918-0.0115356-0.0273933-0.020668-0.0514221-0.0273933c-0.0240307-0.0062485-0.0941963-0.0134583-0.2100182-0.0211487
		v-0.1374474c0.1388912,0.0062485,0.2412567,0.0096092,0.3066177,0.0096092l0.2374115-0.0048027l0.1509056-0.0048065
		c0.2249165,0.2936401,0.4978924,0.6324577,0.8179665,1.0159683c0.2302036,0.2763405,0.4214802,0.4926071,0.5733471,0.6487999
		v-0.3787041c0-0.5877647-0.0067291-0.9333115-0.0197048-1.037117c-0.0043259-0.0403709-0.013937-0.066803-0.0293159-0.0788193
		c-0.0254707-0.0197029-0.1105366-0.0302773-0.2556744-0.0326805v-0.1374474
		c0.1331234,0.0062485,0.2556744,0.0096092,0.3671722,0.0096092c0.1081333,0,0.2470245-0.0033607,0.4176331-0.0096092V56.0422516z
		 M29.2949219,38.7279739c-0.6805172,0-1.265398-0.1230316-1.7536793-0.3695755
		c-0.4887619-0.2465439-0.8722725-0.6103516-1.1505356-1.0914268c-0.2782631-0.4810715-0.4171543-1.0798874-0.4171543-1.7969322
		c0-0.5536385,0.0836239-1.035675,0.2518311-1.4475403c0.1677265-0.4113884,0.4075413-0.7607765,0.7189655-1.048172
		c0.3114223-0.2873917,0.6502399-0.4945297,1.0164509-0.6214027c0.4690571-0.1605186,0.9804077-0.2407799,1.5335674-0.2407799
		c0.5507584,0,1.0500946,0.0773773,1.4975243,0.2316475c0.3330498,0.1177444,0.6271725,0.288353,0.8828468,0.5103874
		c0.2551937,0.2225151,0.4498348,0.4503136,0.5829601,0.6829224c0.1331215,0.2330856,0.2335663,0.4887619,0.3018112,0.767025
		c0.0677605,0.2782593,0.1018829,0.5853577,0.1018829,0.9208107c0,0.5690231-0.0980377,1.0967102-0.2950821,1.5840302
		c-0.1451378,0.3628502-0.3575592,0.684845-0.6372643,0.9664726c-0.279705,0.281147-0.5983372,0.4974136-0.9554176,0.6487999
		C30.4839077,38.6265678,29.924017,38.7279739,29.2949219,38.7279739z M33.1946831,56.0965576
		c-0.0009613,0.0086517-0.0033607,0.1283188-0.0067253,0.3585243h-0.1360092
		c-0.0019226-0.0850639-0.0091324-0.1662865-0.0211449-0.2441406c-0.0067291-0.038929-0.0134583-0.0624771-0.0211449-0.0701675
		c-0.0067291-0.0057678-0.0240326-0.009613-0.0523872-0.0115356c-0.0898705-0.0086479-0.1975212-0.0129738-0.3229561-0.0129738
		h-0.2345314c-0.0028801,0.0379677-0.0048027,0.187912-0.0048027,0.4488716v0.981369
		c0,0.2359695,0.0062447,0.3782272,0.018261,0.4262848c0.0072098,0.0283546,0.0240288,0.0494995,0.0490189,0.0629578
		c0.0249939,0.0139351,0.1033287,0.0225868,0.2345314,0.0269127v0.1345673
		c-0.2124214-0.009613-0.3907204-0.0149002-0.535862-0.0149002c-0.1552315,0-0.3340092,0.0052872-0.5358582,0.0149002v-0.1345673
		c0.1307201-0.0043259,0.2085762-0.0129776,0.2330856-0.0259514c0.024992-0.0129776,0.0413322-0.0350838,0.0499821-0.0658417
		c0.0120144-0.0466156,0.0182629-0.1883926,0.0182629-0.4243622v-0.981369c0-0.2676888-0.001442-0.4171524-0.0048065-0.4488716
		h-0.2345276c-0.1177464,0-0.2215538,0.0038452-0.3114243,0.0110512c-0.0360451,0.0033646-0.0567093,0.0076904-0.0619965,0.0134583
		c-0.0076885,0.0062485-0.0144176,0.0254707-0.0197048,0.0571899c-0.0144176,0.076416-0.0225868,0.1624413-0.0245094,0.2571182
		h-0.1360073c-0.0048065-0.2239571-0.0072098-0.3498726-0.0081692-0.3782272
		c-0.0033646-0.0480576-0.0091324-0.0999641-0.0168209-0.1557121l0.0148983-0.0163383
		c0.0514221,0.0052872,0.1062107,0.0091286,0.1638813,0.0115318c0.0941963,0.0028839,0.2748985,0.0048065,0.5425873,0.0048065
		h0.6617737c0.2753792,0,0.459446-0.0019226,0.5522003-0.0048065c0.0504646-0.0024033,0.1014061-0.0062447,0.1523476-0.0115318
		l0.0168228,0.0163383C33.2028542,55.9879456,33.1970863,56.0460968,33.1946831,56.0965576z M37.4858894,57.5614014
		c-0.0523834,0.1312027-0.1292801,0.2475052-0.2302055,0.3489113c-0.1014023,0.1018867-0.2162666,0.1797409-0.3450623,0.2345276
		c-0.1768608,0.0730515-0.3791885,0.1095772-0.6065063,0.1095772c-0.2455826,0-0.4570427-0.0442162-0.6334229-0.133606
		c-0.1763763-0.0889091-0.314785-0.2201118-0.4152298-0.3940849c-0.1004448-0.1734924-0.1509056-0.3897591-0.1509056-0.6487999
		c0-0.1999245,0.0302773-0.3738976,0.0908318-0.5228844c0.0610352-0.1485023,0.147541-0.2744179,0.2599983-0.3782234
		c0.1124611-0.1038094,0.2350121-0.1787796,0.3671722-0.2244377c0.1691704-0.0581512,0.3537178-0.0869865,0.5536423-0.0869865
		c0.198967,0,0.3791885,0.027874,0.5406647,0.083622c0.1201515,0.0422935,0.226841,0.1038094,0.3191147,0.1840668
		c0.0922737,0.0802612,0.1624413,0.1629219,0.2104988,0.2470245c0.0480614,0.0841026,0.0841026,0.1763763,0.1090965,0.2768211
		c0.0245094,0.1004448,0.0365219,0.2114601,0.0365219,0.3325691C37.5920982,57.1947098,37.5565376,57.3855057,37.4858894,57.5614014
		z M41.7540245,58.1972275c-0.1682091-0.0043259-0.2897987-0.0067291-0.3652496-0.0067291
		c-0.0874672,0-0.1744537,0.0024033-0.2604828,0.0067291c-0.005764-0.0240326-0.0187416-0.0552711-0.0394058-0.093235
		l-0.3508339-0.5786324c-0.100441-0.1662865-0.1855087-0.2965279-0.2556725-0.3916855
		c-0.0350838-0.0480576-0.0687256-0.0841026-0.1014061-0.1081314l0.0177803-0.054306
		c0.1312027,0.0048065,0.2302055-0.0086517,0.2965279-0.0398903c0.0667992-0.0312386,0.1230316-0.0869865,0.1691666-0.167244
		c0.0456581-0.0802612,0.0687256-0.1701317,0.0687256-0.2696152c0-0.100441-0.0240288-0.1840668-0.0720901-0.2503853
		c-0.0480576-0.066803-0.1076508-0.1134224-0.1787796-0.1393738c-0.0456543-0.0163383-0.1278381-0.0245094-0.2455826-0.0245094
		c-0.0523834,0-0.1042862,0.0043259-0.1557121,0.0129776c-0.0033646,0.0394058-0.0067291,0.1278343-0.0100899,0.2652855
		c-0.0062485,0.3095016-0.009613,0.5156746-0.009613,0.6194839c0,0.1638794,0.001442,0.3378563,0.0048065,0.5209618
		c0.0043259,0.2253952,0.0076866,0.3532333,0.0100899,0.3835106c0.0028839,0.0615158,0.0091324,0.1014061,0.0177841,0.1196671
		c0.0043259,0.0086517,0.0115318,0.016819,0.0211449,0.0240288c0.0100937,0.0067291,0.0259514,0.0124969,0.0475807,0.0168228
		c0.0221062,0.0048065,0.0855446,0.0076866,0.1903114,0.0100899v0.1441803
		c-0.1869507-0.0067291-0.3758202-0.009613-0.5670967-0.009613c-0.1706123,0-0.3282433,0.0028839-0.4733849,0.009613v-0.1441803
		c0.1244736-0.0043221,0.1980057-0.0105705,0.2210732-0.018261c0.0129776-0.0028839,0.0225868-0.0086517,0.0288353-0.0163422
		c0.0057678-0.0076866,0.0105743-0.0225868,0.0139389-0.0456543c0.0072098-0.0427742,0.0129738-0.1071701,0.0163383-0.1931992
		l0.0129776-0.4786682v-0.6079483l-0.0067291-0.3460274c-0.0019226-0.1364861-0.0086517-0.2181892-0.0197029-0.2455826
		c-0.0052872-0.0120125-0.0134583-0.0211449-0.0245132-0.027874c-0.0259514-0.0129738-0.1071701-0.0240288-0.242218-0.0326805
		v-0.1345634c0.0249939,0,0.1124611,0.0024033,0.2619247,0.0067253c0.0730476,0.0019226,0.176857,0.0033646,0.3114243,0.0033646
		c0.1148605,0,0.2129021-0.0024033,0.2950821-0.0067253c0.1355286-0.0052872,0.2475052-0.0081711,0.3359337-0.0081711
		c0.1715698,0,0.2998886,0.0120125,0.3849525,0.0370064c0.0850677,0.0245094,0.1581154,0.0754509,0.2181892,0.1528282
		c0.0600739,0.0778542,0.0898705,0.1720505,0.0898705,0.2835464c0,0.132164-0.0408478,0.2523117-0.1230316,0.3604469
		c-0.0816994,0.1086121-0.2080956,0.1941566-0.3782234,0.2575951c0.0273933,0.0490189,0.0581512,0.0994835,0.093235,0.1509056
		c0.03508,0.0509415,0.0552673,0.08218,0.0615158,0.093235c0.005764,0.011055,0.0124931,0.0211449,0.0187416,0.0312386
		l0.2542343,0.3815918c0.0677605,0.1018829,0.1042862,0.156189,0.1095734,0.1638794
		c0.08218,0.1090965,0.132164,0.1739769,0.1509056,0.1931992c0.0182648,0.0197029,0.0365257,0.0336418,0.0538254,0.0413322
		c0.0177841,0.0076866,0.0519066,0.0120125,0.1033287,0.0129738V58.1972275z M44.655838,56.0489807
		c-0.1105347,0.0033646-0.1758957,0.0072098-0.1965637,0.0120163c-0.0206642,0.0052834-0.0355644,0.0110512-0.0442123,0.018261
		c-0.0091324,0.0072098-0.0149002,0.0158615-0.0182648,0.0269127c-0.0076866,0.0187454-0.0129738,0.054306-0.0163383,0.1066933
		c-0.0019226,0.0283546-0.0038452,0.0816994-0.0048065,0.1605148c-0.0043259,0.2686539-0.0067291,0.413311-0.0067291,0.4344559
		v0.6603355l0.0048065,0.2998886c0,0.1124573,0.0057678,0.1855087,0.0168228,0.2196312
		c0.0043221,0.0148964,0.0115318,0.0269127,0.0221062,0.03508c0.0100937,0.0081711,0.026432,0.0149002,0.0490189,0.0197067
		c0.02211,0.0048065,0.0869865,0.0081673,0.1941605,0.0105705v0.1441803c-0.178299-0.0067291-0.3681335-0.009613-0.5704613-0.009613
		c-0.1758995,0-0.3325729,0.0028839-0.4700203,0.009613v-0.1441803c0.1134186-0.0043221,0.1792603-0.0081673,0.1965637-0.0115318
		c0.0230675-0.0043259,0.0384445-0.0105743,0.0466156-0.0177841c0.0081711-0.0076866,0.0134583-0.016819,0.0153809-0.026432
		c0.0033607-0.0129738,0.0076866-0.0643997,0.0134544-0.1542702c0.0086517-0.1307182,0.0129776-0.2523079,0.0129776-0.363327
		v-0.6853218c0-0.2172279-0.0009613-0.3570824-0.0033646-0.4195595c-0.0052872-0.1384087-0.0120163-0.2253952-0.0197067-0.260479
		c-0.0033607-0.0139389-0.0081673-0.0249901-0.015377-0.0326805s-0.0201836-0.0139389-0.0394096-0.0187416
		c-0.0192223-0.0048065-0.0884285-0.009613-0.2071342-0.0139389v-0.1441765
		c0.1374474,0.0062485,0.2955627,0.0096092,0.473381,0.0096092c0.1999283,0,0.3888016-0.0033607,0.5671005-0.0096092V56.0489807z
		 M44.9079094,32.6023483c-0.3690948,0.0091324-0.588726,0.0365257-0.6579323,0.0817032
		c-0.0245094,0.015377-0.0408478,0.0379639-0.0499802,0.0682411c-0.0456581,0.1513863-0.0749741,0.496933-0.0884285,1.0366364
		c-0.0139389,0.5401878-0.020668,0.9385986-0.020668,1.195713c0,2.0117569,0.0197067,3.23246,0.0591125,3.6621094
		l-0.0591125,0.0403709c-0.2542305-0.0422935-0.5127907-0.0812187-0.7756729-0.1177444
		c-0.9775238-1.0919037-2.3625908-2.7316856-4.1566391-4.9188576v2.2597427c0,0.469059,0.0091324,0.9573402,0.0273933,1.4658051
		c0.0120163,0.3508301,0.0297966,0.5642128,0.054306,0.6396675c0.0120163,0.0365257,0.0321999,0.0658417,0.0610352,0.0884285
		s0.0797806,0.0384483,0.1523476,0.0475769c0.1965637,0.0245132,0.3402596,0.0365257,0.4310913,0.0365257
		c0.0177841,0,0.0480614-0.001442,0.0903511-0.0048065v0.3676529c-0.5747871-0.005764-0.9011078-0.0091286-0.9799271-0.0091286
		c-0.2936401,0-0.6910896,0.0091286-1.1933098,0.0273933v-0.3859177c0.3570824-0.0177803,0.5608521-0.0345993,0.6127548-0.0494995
		c0.0331612-0.0120163,0.0610352-0.0317192,0.0836258-0.0591125c0.0225868-0.0273933,0.0418091-0.0831413,0.0567093-0.1677246
		c0.018261-0.115345,0.0394096-0.3936081,0.0634384-0.8352699c0.0120125-0.2508698,0.018261-0.5776711,0.018261-0.9799271
		v-1.4566727l-0.018261-1.3201866c-0.0028839-0.2210732-0.0120163-0.364769-0.0269127-0.4310913
		c-0.0153809-0.066803-0.0370064-0.1158218-0.0658417-0.147541s-0.076416-0.0567093-0.143219-0.0749741
		c-0.0663185-0.018261-0.2599983-0.0379639-0.580555-0.0591125V32.221241
		c0.3839951,0.018261,0.6670647,0.0273933,0.8482475,0.0273933l0.6584091-0.0139389l0.4171524-0.0134544
		c0.6233292,0.8136406,1.3778572,1.7517548,2.2645493,2.813385c0.6382256,0.7651024,1.1673584,1.364399,1.5878754,1.7969322
		v-1.048172c0-1.6277657-0.018261-2.5851021-0.054306-2.8724976c-0.0120163-0.1119766-0.0394096-0.1845474-0.0816994-0.2177086
		c-0.0696869-0.054306-0.3056564-0.0845833-0.7079124-0.0908318V32.221241
		c0.3690948,0.018261,0.7079124,0.0273933,1.0164528,0.0273933c0.299408,0,0.6853218-0.0091324,1.1572647-0.0273933V32.6023483z
		 M49.1123657,56.0422516c-0.1331253,0.0033646-0.2124214,0.0129776-0.2374115,0.0297966
		c-0.0091324,0.0052872-0.0149002,0.0134583-0.0182648,0.0245094c-0.0163383,0.0543098-0.0269127,0.1792641-0.0317192,0.374382
		c-0.0052872,0.1951218-0.0076866,0.3388176-0.0076866,0.431572c0,0.7266541,0.007206,1.1673584,0.0216255,1.3225899
		l-0.0216255,0.0148964c-0.0917931-0.015377-0.1850281-0.0297966-0.2801857-0.0427704
		c-0.3527565-0.3945656-0.8530502-0.9866562-1.5008888-1.776268v0.8160439c0,0.1691704,0.0033646,0.3455467,0.009613,0.5291328
		c0.0043221,0.1268768,0.0110512,0.2037697,0.0197029,0.231163c0.0043259,0.0129776,0.0120163,0.0235481,0.0221062,0.0317192
		c0.0105743,0.0086517,0.0288353,0.0139389,0.0552673,0.0173035c0.0706482,0.0091286,0.122551,0.0134544,0.1552315,0.0134544
		c0.0067291,0,0.0177841-0.0009613,0.0331612-0.0019226v0.1326447c-0.2076149-0.0019226-0.32584-0.0028839-0.3541946-0.0028839
		c-0.105732,0-0.2494278,0.0028839-0.4310913,0.009613v-0.1393738c0.1292801-0.0062485,0.2028084-0.0124931,0.2215538-0.0177803
		c0.0120125-0.0043259,0.0221062-0.0115356,0.0302773-0.0216293c0.0081673-0.0096092,0.0148964-0.0297966,0.0201836-0.0605545
		c0.0067291-0.0413284,0.0144196-0.1417732,0.0230675-0.3013306c0.0043259-0.0908318,0.0067291-0.2085762,0.0067291-0.3541946
		v-0.5257683l-0.0067291-0.4772263c-0.0009613-0.0792999-0.0043259-0.1312027-0.0096092-0.1552315
		c-0.0057678-0.0240288-0.0134583-0.0418129-0.0240326-0.0533447c-0.0100899-0.0115356-0.0273933-0.020668-0.0514221-0.0273933
		c-0.0240288-0.0062485-0.0941963-0.0134583-0.2100182-0.0211487v-0.1374474
		c0.1388893,0.0062485,0.2412567,0.0096092,0.3066177,0.0096092l0.2374115-0.0048027l0.1509056-0.0048065
		c0.2249184,0.2936401,0.4978943,0.6324577,0.8179665,1.0159683c0.2302055,0.2763405,0.4214821,0.4926071,0.573349,0.6487999
		v-0.3787041c0-0.5877647-0.0067291-0.9333115-0.0197067-1.037117c-0.0043259-0.0403709-0.0139351-0.066803-0.0293159-0.0788193
		c-0.0254707-0.0197029-0.1105347-0.0302773-0.2556725-0.0326805v-0.1374474
		c0.1331215,0.0062485,0.2556725,0.0096092,0.3671722,0.0096092c0.1081314,0,0.2470207-0.0033607,0.4176331-0.0096092V56.0422516z
		 M52.0665627,56.0489807c-0.1105347,0.0033646-0.1758957,0.0072098-0.1965637,0.0120163
		c-0.0206642,0.0052834-0.0355606,0.0110512-0.0442123,0.018261c-0.0091324,0.0072098-0.0149002,0.0158615-0.018261,0.0269127
		c-0.0076904,0.0187454-0.0129776,0.054306-0.0163422,0.1066933c-0.0019226,0.0283546-0.0038452,0.0816994-0.0048065,0.1605148
		c-0.0043259,0.2686539-0.0067291,0.413311-0.0067291,0.4344559v0.6603355l0.0048065,0.2998886
		c0,0.1124573,0.0057678,0.1855087,0.0168228,0.2196312c0.0043259,0.0148964,0.0115318,0.0269127,0.0221062,0.03508
		c0.0100937,0.0081711,0.026432,0.0149002,0.0490189,0.0197067c0.02211,0.0048065,0.0869904,0.0081673,0.1941605,0.0105705
		v0.1441803c-0.178299-0.0067291-0.3681335-0.009613-0.5704613-0.009613c-0.1758957,0-0.3325691,0.0028839-0.4700203,0.009613
		v-0.1441803c0.1134186-0.0043221,0.1792603-0.0081673,0.1965637-0.0115318
		c0.0230675-0.0043259,0.0384445-0.0105743,0.0466156-0.0177841c0.0081711-0.0076866,0.0134583-0.016819,0.0153809-0.026432
		c0.0033646-0.0129738,0.0076866-0.0643997,0.0134544-0.1542702c0.0086517-0.1307182,0.0129776-0.2523079,0.0129776-0.363327
		v-0.6853218c0-0.2172279-0.0009613-0.3570824-0.0033646-0.4195595c-0.0052872-0.1384087-0.0120163-0.2253952-0.0197029-0.260479
		c-0.0033646-0.0139389-0.0081711-0.0249901-0.0153809-0.0326805s-0.0201836-0.0139389-0.0394096-0.0187416
		c-0.0192223-0.0048065-0.0884285-0.009613-0.2071342-0.0139389v-0.1441765
		c0.1374512,0.0062485,0.2955627,0.0096092,0.4733849,0.0096092c0.1999245,0,0.3887978-0.0033607,0.5670967-0.0096092V56.0489807z
		 M52.7247314,32.6206131c-0.3056564,0.0091286-0.4868393,0.0201836-0.5445099,0.0341225
		c-0.0571899,0.0134544-0.0980377,0.0302773-0.122551,0.0499802c-0.0240288,0.0197029-0.0408478,0.0446968-0.0494995,0.0744934
		c-0.0216255,0.0519028-0.0365257,0.1499443-0.0456581,0.2950821c-0.0062447,0.0788155-0.0105705,0.2268372-0.0134544,0.4445457
		c-0.0120163,0.7444382-0.0182648,1.1452522-0.0182648,1.2024422v1.8286514l0.0134583,0.8304634
		c0,0.3119049,0.0153809,0.5142326,0.0456581,0.6079483c0.0120125,0.0427704,0.0321999,0.0749702,0.0610352,0.0975609
		c0.0288353,0.0230675,0.0740089,0.0408478,0.1360054,0.0547867c0.0619965,0.0134544,0.2412567,0.0235481,0.5377808,0.0293159
		v0.3993721c-0.493084-0.0182648-1.0193329-0.0273933-1.578743-0.0273933c-0.4873199,0-0.9212952,0.0091286-1.3024025,0.0273933
		v-0.3993721c0.3143082-0.0120163,0.4959717-0.0225868,0.5445099-0.0317192
		c0.0634384-0.0120163,0.1066933-0.0288353,0.1292801-0.0499802c0.0225868-0.0211487,0.0370064-0.0451775,0.043251-0.0725708
		c0.0091324-0.0360451,0.0211487-0.178299,0.0360451-0.4262848c0.0240288-0.363327,0.0365257-0.6987801,0.0365257-1.0073204
		v-1.8968964c0-0.6021805-0.0033646-0.9890594-0.0091324-1.1615906c-0.015377-0.3839912-0.0336418-0.6247673-0.054306-0.7213669
		c-0.0091324-0.0394096-0.0235481-0.0696869-0.043251-0.0908318c-0.0197067-0.0211487-0.0562325-0.0384483-0.1090965-0.0523872
		c-0.0528641-0.0134544-0.2441406-0.026432-0.5738258-0.0384445V32.221241
		c0.3811073,0.018261,0.8179665,0.0273933,1.3110542,0.0273933c0.5536423,0,1.0770073-0.0091324,1.5700912-0.0273933V32.6206131z
		 M59.3328705,36.4682312c0.1436958,0.363327,0.3349724,0.6636963,0.5743065,0.9011078
		c0.2388535,0.2374115,0.4791489,0.4104271,0.7213669,0.5195198c0.329689,0.1451378,0.7290611,0.2177086,1.1981163,0.2177086
		c0.3085403,0,0.6002617-0.0346031,0.8756409-0.10429c0.2748985-0.0696831,0.5747871-0.1893501,0.8982239-0.3585205
		l0.1134186,0.10429l-0.2085762,0.4584846c-0.3782234,0.1994438-0.7175217,0.3364143-1.0188522,0.4104233
		c-0.3008537,0.0740128-0.6766739,0.1110191-1.1274681,0.1110191c-0.6411095,0-1.2086906-0.1014061-1.7017784-0.3037338
		c-0.3868752-0.1634026-0.7151184-0.3796692-0.9842491-0.6487999c-0.2696152-0.2691307-0.4767494-0.5613327-0.6218872-0.8761177
		c-0.2205925-0.4748268-0.3311272-0.9905014-0.3311272-1.5470276c0-0.9530144,0.32584-1.7310905,0.9780045-2.334713
		c0.65168-0.6036224,1.5720139-0.9054375,2.7609978-0.9054375c0.4085045,0,0.7751961,0.0302773,1.1000748,0.0908318
		c0.3253632,0.0605545,0.7026253,0.1682091,1.1322746,0.3224792l0.0225868,0.0586319
		c-0.0480576,0.1422539-0.0860252,0.3210335-0.1134186,0.5358582c-0.0451736,0.3417015-0.0740089,0.6579323-0.0860252,0.9482079
		H63.160305c-0.0057678-0.3325691-0.0211487-0.5988159-0.0451775-0.7987442
		c-0.2028084-0.2114601-0.43013-0.3695717-0.6829224-0.4743423c-0.2527885-0.10429-0.5757484-0.1561928-0.9688721-0.1561928
		c-0.7107964,0-1.279335,0.2244377-1.7061005,0.67379c-0.4262848,0.4493523-0.6396675,1.076046-0.6396675,1.8805542
		C59.1175652,35.6805382,59.1891747,36.1053848,59.3328705,36.4682312z"/>
</g>
</svg>
