<?xml version="1.0" encoding="utf-8"?>
<!-- Generator: Adobe Illustrator 22.0.1, SVG Export Plug-In . SVG Version: 6.00 Build 0)  -->
<svg version="1.1" id="Layer_1" xmlns="http://www.w3.org/2000/svg" xmlns:xlink="http://www.w3.org/1999/xlink" x="0px" y="0px"
	 viewBox="0 0 100 100" style="enable-background:new 0 0 100 100;" xml:space="preserve">
<style type="text/css">
	.st0{opacity:0.85;}
	.st1{fill:#FFFFFF;}
</style>
<g class="st0">
	<path class="st1" d="M0.3980552,0.4993518V100h99.5006485V0.4993518H0.3980552z M98.862236,98.9635315H1.4345202V1.5358169
		H98.862236V98.9635315z"/>
	<path class="st1" d="M43.8195992,47.3987236c-0.2422447-0.3461647-0.5276794-0.6100044-0.8569717-0.7928696
		c-0.3292961-0.1828651-0.7658806-0.2739639-1.3090782-0.2739639c-0.6201248,0-1.1478043,0.1457558-1.5830383,0.4365845
		c-0.4359093,0.2908325-0.7523804,0.7206688-0.9494171,1.290184c-0.1977119,0.56884-0.2962303,1.1977386-0.2962303,1.8853416
		c0,0.9899063,0.1356316,1.8084145,0.4075699,2.4562073c0.2719345,0.647789,0.620121,1.1052895,1.0445595,1.3731804
		c0.4251137,0.2672119,0.9264755,0.4014931,1.5040894,0.4014931c0.5351028,0,1.0135231-0.127533,1.4366112-0.3825989
		c0.4224129-0.2550697,0.7537308-0.6855812,0.9939537-1.2935562c0.2395477-0.6073036,0.3596611-1.3441658,0.3596611-2.2105865
		c0-0.5944824-0.0647812-1.1383591-0.1943398-1.6309471C44.2474098,48.1646004,44.0618477,47.7448845,43.8195992,47.3987236z"/>
	<g>
		<path class="st1" d="M52.1960068,79.6040421c-0.0877228-0.1248398-0.1909637-0.2206573-0.3097267-0.2867813
			c-0.118763-0.0654526-0.2766609-0.0985184-0.4730225-0.0985184c-0.2240257,0-0.4143143,0.0526276-0.5715408,0.1572189
			c-0.1572227,0.1052704-0.2712631,0.2604675-0.3427887,0.4662781c-0.0715256,0.2051315-0.1072884,0.4325333-0.1072884,0.6808548
			c0,0.3576355,0.0492592,0.6531906,0.1477776,0.8866653c0.0978432,0.2341461,0.2240257,0.3994675,0.3772011,0.4959641
			c0.1531754,0.096489,0.3340187,0.1450729,0.5432014,0.1450729c0.1929855,0,0.3657303-0.0458832,0.5189056-0.1383286
			c0.1525002-0.0917664,0.2719383-0.2476425,0.3583107-0.4669495c0.0870438-0.2192993,0.1302299-0.4851685,0.1302299-0.7982635
			c0-0.2145844-0.0236168-0.4109421-0.0701752-0.5890884C52.3505287,79.8806992,52.2830505,79.7288742,52.1960068,79.6040421z"/>
		<path class="st1" d="M32.8614769,80.985321c0.1444054,0.0047226,0.3077011,0.0074234,0.4898911,0.0074234
			c0.176796,0,0.3346939-0.0027008,0.4743729-0.0074234L33.333149,79.798378L32.8614769,80.985321z"/>
		<path class="st1" d="M2.4709854,2.5722821v95.3547897h95.3547897V2.5722821H2.4709854z M14.4895267,46.3190727
			c-0.4291611,0.0128174-0.6835537,0.0283394-0.7645283,0.0479088c-0.0802984,0.0188942-0.1376553,0.042511-0.1720686,0.0701752
			c-0.0337391,0.027668-0.0573568,0.0627556-0.0695028,0.1045914c-0.030365,0.072876-0.0512838,0.2105331-0.0641041,0.4143181
			c-0.0087729,0.1106644-0.0148458,0.3184967-0.0188942,0.6241722c-0.0168695,1.0452385-0.0256414,1.6080055-0.0256414,1.6883049
			v2.5675468l0.0188932,1.1660233c0,0.4379311,0.0215931,0.7220154,0.064105,0.8535957
			c0.0168695,0.0600586,0.0452099,0.1052666,0.0856972,0.136982c0.0404863,0.0323906,0.1039162,0.0573578,0.1909628,0.0769272
			c0.0870466,0.0188904,0.3387403,0.033062,0.7550812,0.0411606v0.5607414
			c-0.6923265-0.0256386-1.4312124-0.0384598-2.2166586-0.0384598c-0.6842289,0-1.2935572,0.0128212-1.8286591,0.0384598v-0.5607414
			c0.4413071-0.0168686,0.6963749-0.0317154,0.7645273-0.0445366c0.0890713-0.0168686,0.1498022-0.0404854,0.1815166-0.0701752
			c0.0317154-0.0296936,0.0519581-0.0634308,0.0607309-0.1018944c0.0128202-0.0506096,0.0296898-0.2503433,0.0506086-0.5985298
			c0.0337391-0.5101357,0.0512829-0.9811325,0.0512829-1.4143448v-2.6633644c0-0.8455009-0.0047235-1.3887024-0.0128202-1.6309471
			c-0.0215931-0.5391502-0.0472355-0.8772163-0.076251-1.0128479c-0.0128202-0.0553322-0.0330639-0.0978432-0.06073-0.127533
			s-0.0789499-0.0539818-0.1531754-0.0735512c-0.0742264-0.0188942-0.3427896-0.0371132-0.8056898-0.0539818v-0.5607452
			c0.5351019,0.0256424,1.1484785,0.0384636,1.8408051,0.0384636c0.7773485,0,1.5121861-0.0128212,2.2045126-0.0384636V46.3190727z
			 M29.040863,81.6850662c-0.0614052,0.1120148-0.1464291,0.2145844-0.2550678,0.3070297
			c-0.1093159,0.0931168-0.2213287,0.1619492-0.3360424,0.2085037c-0.1842155,0.073555-0.4048691,0.109993-0.6626358,0.109993
			c-0.1889381,0-0.3569584-0.0175476-0.5040627-0.0526352c-0.1471024-0.0350876-0.3090496-0.0958176-0.4851665-0.1815186
			c0.0472336-0.1754379,0.0715256-0.4413071,0.0735512-0.7989426h0.1929874
			c-0.0033741,0.1106644,0.0053978,0.2476501,0.0256405,0.4122925c0.0580311,0.0951462,0.1578999,0.1788177,0.2989292,0.2503433
			c0.1410294,0.0722046,0.2948799,0.1086426,0.462225,0.1086426c0.1457539,0,0.2759857-0.0256424,0.3900242-0.0775986
			c0.1140385-0.0512848,0.1970367-0.122139,0.2483196-0.2125549c0.0519581-0.0904236,0.0776005-0.1929932,0.0776005-0.3083801
			c0-0.096489-0.018219-0.1794891-0.0539818-0.2483139c-0.0364399-0.0688324-0.0924454-0.1241608-0.1693707-0.1660004
			c-0.0769253-0.0411606-0.2118816-0.084343-0.4048691-0.1288834c-0.2780113-0.0580292-0.4602013-0.0998688-0.547924-0.1261826
			c-0.1315823-0.0398102-0.2381973-0.097168-0.3184967-0.1727448c-0.0802994-0.0748978-0.1410294-0.1659927-0.1808414-0.2726135
			c-0.0398121-0.1066132-0.0593815-0.2213287-0.0593815-0.3441391c0-0.1713943,0.0357647-0.3299637,0.1079655-0.4750443
			c0.0722027-0.1450806,0.167347-0.2570953,0.2854328-0.3367157c0.1180878-0.0802994,0.2516937-0.1369781,0.4001465-0.1713943
			c0.1491261-0.0350876,0.3016262-0.0519562,0.4581757-0.0519562c0.1626225,0,0.3198471,0.0148392,0.4723492,0.0438614
			c0.1525002,0.0290146,0.2854309,0.0708466,0.3967705,0.1261826l0.0188942,0.0553284
			c-0.0215931,0.0998688-0.0371132,0.1977158-0.0472355,0.2935333c-0.0101204,0.0958176-0.0175438,0.2220001-0.0222664,0.3785477
			h-0.1929874c-0.0033741-0.1781387-0.0107975-0.3036499-0.0229435-0.3771973
			c-0.0479088-0.067482-0.1302319-0.127533-0.2476444-0.1794968c-0.1167374-0.0526276-0.2483196-0.07827-0.3940735-0.07827
			c-0.2091827,0-0.3704548,0.0526276-0.4844933,0.1572189c-0.1140385,0.1052704-0.1713943,0.2280807-0.1713943,0.3691101
			c0.0013504,0.1012192,0.018219,0.1835403,0.0506077,0.2462921c0.0323906,0.0634308,0.0782757,0.1126938,0.1376572,0.1498032
			c0.0600548,0.036438,0.1484509,0.0708542,0.2651882,0.1012192c0.0883961,0.018219,0.2125568,0.0411606,0.37113,0.0688248
			c0.1592484,0.0276642,0.261816,0.0472336,0.3097248,0.0573578c0.1241608,0.0323868,0.2247028,0.0715256,0.3016281,0.1167374
			c0.0762501,0.0452118,0.1376553,0.097168,0.1828651,0.1565475c0.0452118,0.0587082,0.082325,0.1329346,0.1113396,0.2226791
			c0.0290165,0.0897446,0.0438614,0.1909637,0.0438614,0.3029785C29.1629982,81.3638687,29.1225109,81.5359421,29.040863,81.6850662
			z M23.7677784,51.7213745c0.2017593,0.5101357,0.4703236,0.9318733,0.8063641,1.2652168
			c0.3353672,0.3333435,0.6727581,0.5762634,1.0128479,0.7294388c0.4629002,0.2037849,1.0236454,0.3056755,1.6822319,0.3056755
			c0.4332104,0,0.842802-0.048584,1.2294521-0.1464272c0.3859768-0.0978432,0.8070393-0.2658615,1.2611675-0.5033875
			l0.1592484,0.1464272l-0.2928543,0.6437416c-0.5310535,0.2800369-1.0074501,0.4723511-1.4305382,0.5762672
			c-0.4224129,0.1039162-0.9500923,0.1558723-1.5830383,0.1558723c-0.9001598,0-1.6970768-0.1423798-2.3894024-0.4264603
			c-0.5431995-0.2294273-1.004076-0.5330772-1.3819542-0.9109573c-0.3785534-0.3778763-0.669384-0.7881432-0.873167-1.2301254
			c-0.3097248-0.666687-0.4649258-1.390728-0.4649258-2.172123c0-1.3380928,0.4575024-2.4305649,1.3731823-3.2780914
			c0.9150028-0.8475266,2.2072105-1.2712898,3.8766212-1.2712898c0.5735645,0,1.0884247,0.042511,1.5445766,0.127533
			c0.4568272,0.085022,0.9865303,0.2361755,1.5897865,0.4527779l0.0317135,0.082325
			c-0.0674782,0.1997337-0.1207848,0.4507523-0.1592484,0.7523804c-0.0634289,0.4797707-0.1039162,0.9237785-0.1207848,1.3313446
			h-0.4973145c-0.0080986-0.4669495-0.0296917-0.8407784-0.0634308-1.1214867
			c-0.2847576-0.2969055-0.6039295-0.5189056-0.9588642-0.666008c-0.3549347-0.146431-0.8083897-0.2193069-1.3603611-0.2193069
			c-0.9980011,0-1.7962685,0.3151245-2.3954754,0.9460449c-0.5985317,0.6309204-0.8981342,1.5108376-0.8981342,2.6404228
			C23.465477,50.615406,23.5660191,51.2119141,23.7677784,51.7213745z M35.286644,82.2302933l-0.6396942-0.0134964
			l-0.8077126,0.0134964v-0.1909637c0.1855659-0.0074234,0.2908287-0.018219,0.3144493-0.031044
			c0.0236168-0.0128174,0.0357628-0.0350876,0.0357628-0.0654526c0-0.0384598-0.018219-0.1012192-0.0533066-0.1889343
			l-0.1977119-0.5060883h-1.1828957l-0.1012154,0.2759857c-0.076252,0.2118835-0.1147118,0.3434601-0.1147118,0.3960953
			c0,0.036438,0.012146,0.0627594,0.036438,0.0782776c0.0371132,0.0209198,0.1464272,0.0350876,0.3292923,0.0411606v0.1909637
			l-0.5317268-0.0134964l-0.5290298,0.0134964v-0.1909637c0.1241589-0.0094452,0.1983871-0.0175476,0.2220039-0.024292
			c0.0236168-0.006752,0.0438614-0.0175476,0.06073-0.0323868c0.0168686-0.0141754,0.0344124-0.037117,0.0519562-0.0688324
			c0.0175476-0.0310364,0.070179-0.1484528,0.1579018-0.3508835c0.0398102-0.0951462,0.1160622-0.2827377,0.2300987-0.563446
			l0.6005554-1.4818192l0.2024345-0.5222855h0.3265953l1.0283699,2.4022293l0.1430511,0.3151169l0.0917702,0.2118835
			c0.015522,0.0269928,0.0296898,0.0472336,0.0438614,0.0593796c0.0134964,0.012146,0.0290146,0.0215988,0.0472336,0.0276718
			c0.0175476,0.006073,0.0620804,0.011467,0.134285,0.0161896c0.0229416,0.0033798,0.0566788,0.006752,0.1012154,0.0114746
			V82.2302933z M41.5054359,79.204567c-0.1869164,0.0047226-0.2982559,0.018219-0.3333435,0.0418396
			c-0.0128212,0.0074234-0.0209198,0.0188904-0.0256424,0.0344162c-0.0229416,0.0762482-0.0377884,0.2516937-0.0445366,0.52565
			c-0.0074196,0.2739639-0.0107956,0.4757233-0.0107956,0.605957c0,1.0202713,0.0101242,1.6390457,0.030365,1.8570023
			l-0.030365,0.0209122c-0.1288834-0.0215912-0.2597923-0.041832-0.3933983-0.060051
			c-0.4952888-0.5540009-1.1977386-1.3853302-2.1073418-2.4939957v1.1457825c0,0.2375183,0.0047226,0.4851685,0.0134926,0.7429352
			c0.006073,0.1781387,0.015522,0.2861023,0.027668,0.3245697c0.006073,0.018219,0.0168686,0.0330658,0.0310402,0.0445328
			c0.014843,0.012146,0.0404854,0.0195694,0.0775986,0.024292c0.0991936,0.012825,0.1720695,0.018898,0.2179565,0.018898
			c0.0094452,0,0.0249672-0.0013504,0.0465584-0.0027008v0.1862411c-0.2915039-0.0027008-0.4575005-0.0040512-0.4973145-0.0040512
			c-0.1484528,0-0.3502121,0.0040512-0.605278,0.0134964v-0.1956863c0.1815147-0.0087738,0.2847557-0.0175476,0.3110733-0.024971
			c0.0168686-0.006073,0.0310402-0.0161896,0.042511-0.030365c0.0114708-0.0134964,0.0209198-0.041832,0.0283432-0.085022
			c0.0094452-0.0580292,0.0202408-0.1990585,0.0323868-0.4230881c0.006073-0.127533,0.009449-0.2928543,0.009449-0.4973145
			v-0.7382126l-0.009449-0.6700592c-0.0013466-0.1113358-0.006073-0.1842117-0.0134926-0.2179489
			c-0.0080986-0.0337448-0.0188942-0.0587082-0.033741-0.0749054c-0.0141716-0.0161896-0.0384636-0.0290146-0.0722008-0.0384598
			c-0.033741-0.0087738-0.1322594-0.018898-0.2948799-0.0296936v-0.1929855
			c0.1950111,0.0087738,0.3387413,0.0134964,0.4305115,0.0134964l0.3333397-0.0067444l0.2118835-0.006752
			c0.3157959,0.4122925,0.6990738,0.8880157,1.1484795,1.4264908c0.3232193,0.3880005,0.5917816,0.6916504,0.8050117,0.9109573
			v-0.5317307c0-0.8252563-0.0094452-1.3104248-0.0276642-1.4561768c-0.006073-0.0566864-0.0195694-0.0937958-0.0411606-0.1106644
			c-0.0357628-0.0276718-0.155201-0.042511-0.3589859-0.0458908v-0.1929855
			c0.1869164,0.0087738,0.3589859,0.0134964,0.5155334,0.0134964c0.151825,0,0.3468399-0.0047226,0.5863876-0.0134964V79.204567z
			 M41.5260162,54.8941994c-0.9554939,0-1.7767029-0.1727448-2.4622803-0.5189056
			c-0.6862526-0.3461647-1.2247276-0.8569756-1.6154289-1.5324326c-0.3906975-0.6754532-0.5857086-1.5162315-0.5857086-2.5230064
			c0-0.7773514,0.1174126-1.454155,0.3535843-2.032444c0.2355003-0.5776138,0.572216-1.0681801,1.0094757-1.4716988
			c0.4372559-0.4035225,0.9129791-0.6943512,1.4271622-0.8724937c0.6585884-0.2253761,1.3765564-0.3380661,2.1532288-0.3380661
			c0.7733002,0,1.4743996,0.1086388,2.102623,0.3252449c0.4676208,0.1653214,0.8805885,0.4048691,1.2395744,0.7166176
			c0.3583069,0.3124237,0.6315956,0.6322708,0.8185081,0.9588661c0.1869164,0.3272705,0.3279457,0.6862526,0.4237633,1.0769501
			c0.0951462,0.3907013,0.143055,0.8218842,0.143055,1.2928848c0,0.7989388-0.1376572,1.5398521-0.4143181,2.2240791
			c-0.2037811,0.5094604-0.502037,0.9615669-0.8947601,1.356987c-0.3927231,0.3947487-0.8401031,0.6983986-1.341465,0.9109573
			C43.1954269,54.7518196,42.4093056,54.8941994,41.5260162,54.8941994z M47.0015335,79.2808228
			c-0.0013504,0.012146-0.0047226,0.1801605-0.0094452,0.5033875h-0.1909637
			c-0.0027008-0.1194382-0.0128212-0.2334747-0.0296898-0.3427887c-0.009449-0.054657-0.0188942-0.0877228-0.0296936-0.0985184
			c-0.0094452-0.0081024-0.0337372-0.0134964-0.0735512-0.0161972c-0.1261826-0.012146-0.2773323-0.018219-0.4534531-0.018219
			h-0.3292923c-0.0040474,0.0533066-0.0067482,0.2638397-0.0067482,0.630249v1.3778992
			c0,0.3313217,0.0087738,0.5310593,0.0256424,0.5985336c0.0101204,0.0398102,0.0337372,0.0695038,0.0688286,0.0883942
			c0.0350876,0.0195694,0.1450768,0.0317154,0.3292923,0.0377884v0.188942
			c-0.2982521-0.0134964-0.5485992-0.0209198-0.7523804-0.0209198c-0.2179565,0-0.4689751,0.0074234-0.7523842,0.0209198v-0.188942
			c0.1835403-0.006073,0.2928543-0.018219,0.3272705-0.036438c0.0350876-0.018219,0.0580292-0.0492554,0.0701752-0.0924454
			c0.0168724-0.0654526,0.0256424-0.2645111,0.0256424-0.5958328V79.938736c0-0.3758545-0.0020218-0.5857162-0.0067482-0.630249
			h-0.3292923c-0.1653214,0-0.3110733,0.005394-0.4372597,0.0155182c-0.0506096,0.0047226-0.0796242,0.0107956-0.0870476,0.018898
			c-0.0107956,0.0087662-0.0202408,0.035759-0.0276642,0.0802994c-0.0202446,0.1072845-0.0317154,0.2280731-0.0344124,0.3610077
			h-0.1909637c-0.0067482-0.3144531-0.0101242-0.4912415-0.0114708-0.5310593
			c-0.0047264-0.0674744-0.0128212-0.1403503-0.0236206-0.2186279l0.0209198-0.0229416
			c0.0722008,0.0074234,0.149128,0.012825,0.2300987,0.0161972c0.1322594,0.0040436,0.3859787,0.0067444,0.7618294,0.0067444
			h0.9291763c0.3866501,0,0.645092-0.0027008,0.7753258-0.0067444c0.0708504-0.0033722,0.1423759-0.0087738,0.2139053-0.0161972
			l0.0236168,0.0229416C47.0130043,79.1283188,47.0049057,79.2099686,47.0015335,79.2808228z M53.0266609,81.3375549
			c-0.0735512,0.1842194-0.1815147,0.3475113-0.3232193,0.4898911c-0.1423798,0.1430511-0.3036537,0.2523727-0.4844933,0.3292923
			c-0.2483215,0.1025696-0.532402,0.1538544-0.8515739,0.1538544c-0.3448143,0-0.6417198-0.0620804-0.8893623-0.1875916
			c-0.2476463-0.1248322-0.4419823-0.3090515-0.5830116-0.5533218c-0.1410294-0.2435989-0.2118835-0.5472488-0.2118835-0.9109573
			c0-0.2807083,0.042511-0.5249786,0.127533-0.7341614c0.0856972-0.2085037,0.2071609-0.3852997,0.3650589-0.5310516
			s0.3299675-0.2510223,0.5155334-0.3151245c0.2375221-0.0816498,0.4966393-0.1221313,0.7773476-0.1221313
			c0.2793617,0,0.532402,0.0391312,0.7591286,0.1174088c0.1686974,0.0593796,0.3184967,0.145752,0.4480553,0.2584381
			c0.1295586,0.1126938,0.2280769,0.2287521,0.2955551,0.3468399s0.1180878,0.2476501,0.1531754,0.3886795
			c0.0344162,0.1410294,0.0512848,0.2968979,0.0512848,0.4669418
			C53.1757889,80.8227005,53.1258545,81.0905838,53.0266609,81.3375549z M59.0194016,82.2302933
			c-0.2361755-0.006073-0.4068947-0.0094452-0.5128365-0.0094452c-0.1228104,0-0.2449455,0.0033722-0.3657303,0.0094452
			c-0.0080986-0.0337372-0.0263176-0.0775986-0.0553322-0.1309128l-0.4925919-0.8124313
			c-0.1410294-0.2334747-0.2604637-0.4163437-0.3589821-0.5499496c-0.0492592-0.067482-0.0964966-0.1180878-0.1423798-0.151825
			l0.0249672-0.0762482c0.1842155,0.0067444,0.3232193-0.012146,0.4163399-0.0560074
			c0.0937958-0.0438614,0.1727448-0.122139,0.2375221-0.2348251c0.064106-0.1126938,0.0964928-0.2388763,0.0964928-0.3785553
			c0-0.1410294-0.0337372-0.2584381-0.1012154-0.3515625c-0.0674782-0.0937958-0.1511497-0.1592484-0.2510185-0.1956863
			c-0.064106-0.0229416-0.179493-0.0344086-0.3448143-0.0344086c-0.0735512,0-0.1464272,0.006073-0.2186279,0.018219
			c-0.0047264,0.0553284-0.009449,0.1794891-0.0141716,0.3724747c-0.0087738,0.4345627-0.0134964,0.7240448-0.0134964,0.8697968
			c0,0.2301025,0.0020256,0.4743729,0.0067482,0.7314606c0.006073,0.3164749,0.0107956,0.4959641,0.0141716,0.538475
			c0.0040474,0.0863724,0.0128212,0.1423798,0.0249672,0.1680222c0.006073,0.012146,0.0161934,0.0236206,0.0296898,0.0337372
			c0.0141716,0.0094528,0.036438,0.0175476,0.066803,0.0236206c0.0310402,0.0067444,0.1201096,0.0107956,0.2672119,0.0141678
			v0.2024384c-0.2624893-0.0094452-0.5276794-0.0134964-0.7962418-0.0134964c-0.2395477,0-0.4608765,0.0040512-0.6646576,0.0134964
			v-0.2024384c0.1747665-0.006073,0.2780075-0.0148392,0.3103981-0.0256424
			c0.018219-0.0040436,0.0317154-0.012146,0.0404854-0.0229416c0.0080986-0.0107956,0.0148468-0.0317154,0.0195694-0.0641022
			c0.0101204-0.0600586,0.018219-0.1504745,0.0229416-0.2712631l0.018219-0.672081v-0.8535995l-0.0094452-0.4858475
			c-0.0027008-0.1916351-0.012146-0.3063507-0.027668-0.3448105c-0.0074196-0.0168686-0.0188904-0.029686-0.0344124-0.0391388
			c-0.036438-0.018219-0.1504745-0.0337372-0.3400879-0.0458832v-0.188942c0.0350876,0,0.1578979,0.0033798,0.3677559,0.0094528
			c0.1025658,0.0026932,0.2483177,0.0047226,0.4372559,0.0047226c0.161274,0,0.2989311-0.0033722,0.4143181-0.0094452
			c0.1902885-0.0074234,0.3475113-0.0114746,0.4716721-0.0114746c0.2408981,0,0.4210625,0.0168686,0.5405006,0.0519562
			c0.1194344,0.0344162,0.2220039,0.1059418,0.3063507,0.2145844c0.0843468,0.109314,0.1261826,0.2415695,0.1261826,0.3981171
			c0,0.1855698-0.057354,0.3542633-0.1727409,0.5060883c-0.1147156,0.152504-0.2921829,0.2726135-0.5310555,0.3616867
			c0.0384636,0.0688248,0.0816498,0.139679,0.130909,0.2118759c0.0492592,0.0715332,0.0775986,0.115387,0.0863724,0.1309128
			c0.0080948,0.0155182,0.0175438,0.029686,0.0263138,0.0438614l0.3569603,0.5357742
			c0.0951462,0.1430511,0.1464272,0.2193069,0.1538506,0.2301025c0.115387,0.1531754,0.1855659,0.2442703,0.2118835,0.2712631
			c0.0256386,0.0276642,0.051281,0.0472336,0.075573,0.0580292c0.0249672,0.0107956,0.072876,0.0168686,0.1450806,0.018219
			V82.2302933z M63.0937347,79.2140198c-0.155201,0.0047226-0.2469711,0.0101166-0.2759857,0.0168686
			c-0.0290184,0.0074234-0.0499344,0.0155182-0.0620804,0.0256424c-0.0128212,0.0101166-0.0209198,0.0222626-0.0256424,0.0377884
			c-0.0107956,0.0263138-0.018219,0.0762482-0.0229416,0.1497955c-0.0027008,0.0398178-0.0053978,0.1147156-0.0067482,0.2253799
			c-0.006073,0.3772049-0.009449,0.5803146-0.009449,0.6100006v0.9271545l0.0067482,0.4210587
			c0,0.1579056,0.0080986,0.2604675,0.0236168,0.3083801c0.006073,0.0209198,0.0161972,0.0377884,0.0310402,0.0492554
			c0.0141716,0.0114746,0.0371132,0.0209198,0.0688286,0.0276718c0.0310402,0.0067444,0.1221352,0.011467,0.2726135,0.0148392
			v0.2024384c-0.2503433-0.0094452-0.5168839-0.0134964-0.8009682-0.0134964c-0.2469711,0-0.4669495,0.0040512-0.659935,0.0134964
			v-0.2024384c0.1592484-0.006073,0.2516937-0.011467,0.2759857-0.0161896
			c0.0323906-0.006073,0.0539818-0.0148468,0.0654526-0.024971c0.0114708-0.0107956,0.0188942-0.023613,0.021595-0.0371094
			c0.0047226-0.018219,0.0107956-0.0904236,0.0188942-0.2166061c0.012146-0.1835403,0.018219-0.3542633,0.018219-0.5101395
			v-0.9622345c0-0.3050003-0.0013504-0.5013657-0.0047264-0.5890884c-0.0074196-0.1943359-0.0168686-0.3164673-0.0276642-0.3657303
			c-0.0047226-0.0195694-0.0114708-0.0350876-0.021595-0.0458832c-0.0101204-0.0107956-0.0283394-0.0195694-0.0553322-0.0263214
			c-0.026989-0.0067444-0.124157-0.0134888-0.2908287-0.0195618v-0.2024384
			c0.1929855,0.0087738,0.4149895,0.0134964,0.6646576,0.0134964c0.2807121,0,0.5459023-0.0047226,0.7962456-0.0134964V79.2140198z
			 M63.4476585,46.2934303c-0.5182343,0.0128212-0.8266106,0.051281-0.9237785,0.1147118
			c-0.0344124,0.021595-0.0573578,0.0533066-0.0701752,0.0958176c-0.064106,0.2125587-0.1052666,0.6977272-0.1241608,1.4555054
			c-0.0195694,0.7584572-0.0290184,1.3178482-0.0290184,1.6788597c0,2.8246346,0.027668,4.5385818,0.0830002,5.1418381
			l-0.0830002,0.0566826c-0.3569565-0.0593834-0.7199898-0.1140404-1.0890961-0.1653252
			c-1.3725052-1.5331039-3.3172264-3.8354607-5.8361893-6.9063911v3.1728249c0,0.6585884,0.0128212,1.3441658,0.0384636,2.0580864
			c0.0168686,0.492588,0.0418358,0.7921906,0.0762482,0.8981323c0.0168724,0.0512848,0.0452118,0.0924454,0.0856972,0.1241608
			c0.0404892,0.0317154,0.1120148,0.0539818,0.2139053,0.066803c0.2759895,0.0344124,0.4777489,0.0512848,0.6052818,0.0512848
			c0.0249672,0,0.0674782-0.0020256,0.1268578-0.0067482v0.5162086c-0.8070374-0.0080986-1.2652168-0.0128212-1.3758812-0.0128212
			c-0.4122887,0-0.9703331,0.0128212-1.6754837,0.0384598V54.129673c0.5013657-0.0249672,0.7874718-0.048584,0.8603477-0.0695038
			c0.0465622-0.0168686,0.0856972-0.0445366,0.1174126-0.0829964c0.0317154-0.0384636,0.0587082-0.1167374,0.0796242-0.2355003
			c0.0256424-0.1619492,0.0553322-0.5526466,0.0890732-1.1727715c0.0168686-0.3522339,0.0256386-0.8110886,0.0256386-1.3758812
			v-2.0452614l-0.0256386-1.8536263c-0.0040512-0.3104019-0.0168724-0.5121613-0.0377884-0.6052818
			c-0.021595-0.093792-0.05196-0.1626205-0.0924454-0.2071571c-0.0404892-0.0445366-0.1072922-0.0796242-0.2010841-0.1052666
			c-0.0931206-0.0256424-0.3650589-0.0533066-0.8151398-0.0829964v-0.5351028
			c0.5391541,0.0256424,0.9365997,0.0384636,1.1909904,0.0384636l0.9244537-0.0195694l0.5857086-0.0188942
			c0.8751945,1.1424065,1.9346008,2.4595795,3.1795731,3.9501724c0.8961105,1.0742531,1.6390457,1.9157066,2.2294807,2.5230103
			v-1.4716988c0-2.2854881-0.0256424-3.6296539-0.076252-4.0331726c-0.0168686-0.1572227-0.0553322-0.2591171-0.1147118-0.3056755
			c-0.0978432-0.076252-0.4291611-0.118763-0.9939537-0.127533v-0.5351028
			c0.5182304,0.0256424,0.9939537,0.0384636,1.4271622,0.0384636c0.4203911,0,0.9622421-0.0128212,1.6248779-0.0384636V46.2934303z
			 M69.3509903,79.204567c-0.1869202,0.0047226-0.2982559,0.018219-0.3333435,0.0418396
			c-0.012825,0.0074234-0.0209198,0.0188904-0.0256424,0.0344162c-0.0229416,0.0762482-0.0377884,0.2516937-0.0445404,0.52565
			c-0.0074158,0.2739639-0.0107956,0.4757233-0.0107956,0.605957c0,1.0202713,0.0101242,1.6390457,0.030365,1.8570023
			l-0.030365,0.0209122c-0.1288834-0.0215912-0.2597885-0.041832-0.3933945-0.060051
			c-0.4952927-0.5540009-1.1977386-1.3853302-2.1073456-2.4939957v1.1457825c0,0.2375183,0.0047226,0.4851685,0.0134964,0.7429352
			c0.006073,0.1781387,0.0155182,0.2861023,0.0276642,0.3245697c0.006073,0.018219,0.0168686,0.0330658,0.031044,0.0445328
			c0.0148392,0.012146,0.0404816,0.0195694,0.0775986,0.024292c0.0991898,0.012825,0.1720657,0.018898,0.2179565,0.018898
			c0.0094452,0,0.0249634-0.0013504,0.0465546-0.0027008v0.1862411c-0.2915039-0.0027008-0.4574966-0.0040512-0.4973145-0.0040512
			c-0.1484528,0-0.3502121,0.0040512-0.605278,0.0134964v-0.1956863c0.1815186-0.0087738,0.2847595-0.0175476,0.3110733-0.024971
			c0.0168686-0.006073,0.031044-0.0161896,0.042511-0.030365c0.0114746-0.0134964,0.0209198-0.041832,0.0283432-0.085022
			c0.0094452-0.0580292,0.0202408-0.1990585,0.0323868-0.4230881c0.006073-0.127533,0.0094528-0.2928543,0.0094528-0.4973145
			v-0.7382126l-0.0094528-0.6700592c-0.0013504-0.1113358-0.006073-0.1842117-0.0134964-0.2179489
			c-0.0080948-0.0337448-0.0188904-0.0587082-0.0337372-0.0749054c-0.0141678-0.0161896-0.0384598-0.0290146-0.072197-0.0384598
			c-0.0337448-0.0087738-0.1322632-0.018898-0.2948837-0.0296936v-0.1929855
			c0.195015,0.0087738,0.3387451,0.0134964,0.4305115,0.0134964l0.3333435-0.0067444l0.2118835-0.006752
			c0.3157959,0.4122925,0.6990738,0.8880157,1.1484756,1.4264908c0.3232193,0.3880005,0.5917816,0.6916504,0.8050156,0.9109573
			v-0.5317307c0-0.8252563-0.0094452-1.3104248-0.0276642-1.4561768c-0.006073-0.0566864-0.0195694-0.0937958-0.0411606-0.1106644
			c-0.0357666-0.0276718-0.1552048-0.042511-0.3589859-0.0458908v-0.1929855
			c0.1869125,0.0087738,0.3589859,0.0134964,0.5155334,0.0134964c0.151825,0,0.3468399-0.0047226,0.5863876-0.0134964V79.204567z
			 M73.4988708,79.2140198c-0.1551971,0.0047226-0.2469711,0.0101166-0.2759857,0.0168686
			c-0.0290146,0.0074234-0.0499344,0.0155182-0.0620804,0.0256424c-0.0128174,0.0101166-0.0209198,0.0222626-0.0256424,0.0377884
			c-0.0107956,0.0263138-0.018219,0.0762482-0.0229416,0.1497955c-0.0027008,0.0398178-0.005394,0.1147156-0.0067444,0.2253799
			c-0.006073,0.3772049-0.0094528,0.5803146-0.0094528,0.6100006v0.9271545l0.006752,0.4210587
			c0,0.1579056,0.0080948,0.2604675,0.023613,0.3083801c0.006073,0.0209198,0.0161972,0.0377884,0.031044,0.0492554
			c0.0141678,0.0114746,0.0371094,0.0209198,0.0688248,0.0276718c0.031044,0.0067444,0.122139,0.011467,0.2726135,0.0148392
			v0.2024384c-0.2503433-0.0094452-0.5168839-0.0134964-0.8009644-0.0134964c-0.2469711,0-0.4669495,0.0040512-0.659935,0.0134964
			v-0.2024384c0.1592484-0.006073,0.2516937-0.011467,0.2759857-0.0161896
			c0.0323868-0.006073,0.053978-0.0148468,0.0654526-0.024971c0.011467-0.0107956,0.0188904-0.023613,0.0215912-0.0371094
			c0.0047226-0.018219,0.0107956-0.0904236,0.0188904-0.2166061c0.0121536-0.1835403,0.0182266-0.3542633,0.0182266-0.5101395
			v-0.9622345c0-0.3050003-0.0013504-0.5013657-0.0047302-0.5890884c-0.0074158-0.1943359-0.0168686-0.3164673-0.0276642-0.3657303
			c-0.0047226-0.0195694-0.011467-0.0350876-0.0215912-0.0458832s-0.0283432-0.0195694-0.055336-0.0263214
			c-0.0269852-0.0067444-0.1241531-0.0134888-0.2908249-0.0195618v-0.2024384
			c0.1929855,0.0087738,0.4149857,0.0134964,0.6646576,0.0134964c0.2807083,0,0.5458984-0.0047226,0.7962418-0.0134964V79.2140198z
			 M74.4229889,46.3190727c-0.4291611,0.0128174-0.6835556,0.0283394-0.764534,0.0479088
			c-0.0802994,0.0188942-0.1376495,0.042511-0.1720657,0.0701752c-0.0337372,0.027668-0.0573578,0.0627556-0.0695038,0.1045914
			c-0.030365,0.072876-0.0512848,0.2105331-0.0641022,0.4143181c-0.0087738,0.1106644-0.0148468,0.3184967-0.018898,0.6241722
			c-0.0168686,1.0452385-0.0256424,1.6080055-0.0256424,1.6883049v2.5675468l0.018898,1.1660233
			c0,0.4379311,0.0215912,0.7220154,0.0641022,0.8535957c0.0168686,0.0600586,0.0452118,0.1052666,0.085701,0.136982
			c0.0404816,0.0323906,0.1039124,0.0573578,0.1909637,0.0769272c0.0870438,0.0188904,0.3387375,0.033062,0.7550812,0.0411606
			v0.5607414c-0.6923294-0.0256386-1.4312134-0.0384598-2.2166595-0.0384598c-0.6842346,0-1.2935562,0.0128212-1.8286591,0.0384598
			v-0.5607414c0.4413071-0.0168686,0.696373-0.0317154,0.7645264-0.0445366
			c0.0890732-0.0168686,0.1498032-0.0404854,0.1815186-0.0701752c0.0317078-0.0296936,0.0519562-0.0634308,0.06073-0.1018944
			c0.0128174-0.0506096,0.029686-0.2503433,0.0506058-0.5985298c0.0337372-0.5101357,0.0512848-0.9811325,0.0512848-1.4143448
			v-2.6633644c0-0.8455009-0.0047226-1.3887024-0.012825-1.6309471c-0.0215912-0.5391502-0.0472336-0.8772163-0.0762482-1.0128479
			c-0.0128174-0.0553322-0.0330658-0.0978432-0.06073-0.127533s-0.078949-0.0539818-0.1531754-0.0735512
			c-0.0742264-0.0188942-0.3427887-0.0371132-0.805687-0.0539818v-0.5607452
			c0.5351028,0.0256424,1.1484756,0.0384636,1.8408051,0.0384636c0.7773438,0,1.5121841-0.0128212,2.2045135-0.0384636V46.3190727z
			 M83.7012405,51.7213745c0.2017593,0.5101357,0.4703217,0.9318733,0.8063583,1.2652168
			c0.3353729,0.3333435,0.67276,0.5762634,1.0128479,0.7294388c0.4629059,0.2037849,1.0236435,0.3056755,1.6822357,0.3056755
			c0.4332047,0,0.842804-0.048584,1.229454-0.1464272c0.3859711-0.0978432,0.8070374-0.2658615,1.2611618-0.5033875
			l0.1592484,0.1464272l-0.2928543,0.6437416c-0.5310516,0.2800369-1.0074463,0.4723511-1.4305344,0.5762672
			c-0.4224167,0.1039162-0.9500961,0.1558723-1.5830383,0.1558723c-0.9001617,0-1.6970749-0.1423798-2.3894043-0.4264603
			c-0.5431976-0.2294273-1.0040741-0.5330772-1.3819504-0.9109573c-0.3785553-0.3778763-0.6693878-0.7881432-0.8731689-1.2301254
			c-0.3097305-0.666687-0.4649277-1.390728-0.4649277-2.172123c0-1.3380928,0.4575043-2.4305649,1.3731842-3.2780914
			c0.9150009-0.8475266,2.2072067-1.2712898,3.8766174-1.2712898c0.5735703,0,1.0884247,0.042511,1.5445786,0.127533
			c0.4568253,0.085022,0.9865341,0.2361755,1.5897827,0.4527779l0.0317154,0.082325
			c-0.0674744,0.1997337-0.1207809,0.4507523-0.1592484,0.7523804c-0.0634232,0.4797707-0.1039124,0.9237785-0.1207809,1.3313446
			h-0.4973145c-0.0081024-0.4669495-0.0296936-0.8407784-0.0634308-1.1214867
			c-0.2847595-0.2969055-0.6039276-0.5189056-0.9588623-0.666008c-0.3549423-0.146431-0.8083954-0.2193069-1.3603668-0.2193069
			c-0.9980011,0-1.7962646,0.3151245-2.3954697,0.9460449c-0.5985336,0.6309204-0.89814,1.5108376-0.89814,2.6404228
			C83.3989334,50.615406,83.4994812,51.2119141,83.7012405,51.7213745z"/>
	</g>
</g>
</svg>
