<?xml version="1.0" encoding="utf-8"?>
<!-- Generator: Adobe Illustrator 22.0.1, SVG Export Plug-In . SVG Version: 6.00 Build 0)  -->
<svg version="1.1" id="Layer_1" xmlns="http://www.w3.org/2000/svg" xmlns:xlink="http://www.w3.org/1999/xlink" x="0px" y="0px"
	 viewBox="0 0 70.8718491 70.8401184" style="enable-background:new 0 0 70.8718491 70.8401184;" xml:space="preserve">
<style type="text/css">
	.st0{fill:#AB892B;}
</style>
<g>
	<path class="st0" d="M0,0v70.8661423h70.8661423V0H0z M70.1279526,70.1279526H0.738189V0.738189h69.3897629V70.1279526z"/>
	<path class="st0" d="M30.9256001,33.4025688c-0.1725311-0.2465401-0.3758221-0.4344521-0.6103516-0.5646935
		c-0.2345276-0.1302414-0.5454712-0.1951218-0.9323483-0.1951218c-0.4416637,0-0.8174858,0.1038094-1.1274681,0.3109436
		c-0.310461,0.2071342-0.5358601,0.5132713-0.6761913,0.9188919c-0.1408138,0.4051399-0.2109814,0.8530502-0.2109814,1.3427734
		c0,0.7050285,0.0965996,1.2879868,0.2902775,1.7493553c0.1936798,0.4613686,0.4416637,0.7872086,0.7439575,0.9780045
		c0.3027725,0.1903114,0.6598511,0.2859497,1.0712376,0.2859497c0.3811092,0,0.7218494-0.0908318,1.02318-0.2724953
		c0.3008518-0.1816635,0.5368214-0.4882812,0.7079124-0.9212952c0.1706104-0.4325294,0.256155-0.9573364,0.256155-1.5744171
		c0-0.4234009-0.0461369-0.8107567-0.1384106-1.1615906C31.2302952,33.9480438,31.0981331,33.6491127,30.9256001,33.4025688z"/>
	<g>
		<path class="st0" d="M36.8914261,56.3397751c-0.0624771-0.0889091-0.1360054-0.1571541-0.2205925-0.2042503
			c-0.0845833-0.0466194-0.1970406-0.0701675-0.336895-0.0701675c-0.1595535,0-0.2950821,0.037487-0.4070587,0.1119766
			c-0.1119804,0.0749741-0.1931992,0.1855087-0.2441406,0.3320885c-0.0509453,0.1461029-0.076416,0.3080597-0.076416,0.4849167
			c0,0.254715,0.0350838,0.4652138,0.1052513,0.6315002c0.0696869,0.1667633,0.1595573,0.2845078,0.2686501,0.3532333
			s0.2378922,0.1033287,0.3868752,0.1033287c0.1374512,0,0.2604828-0.0326805,0.3695755-0.0985222
			c0.1086159-0.065361,0.1936798-0.1763763,0.2551956-0.3325691c0.0619965-0.1561928,0.0927544-0.3455467,0.0927544-0.5685387
			c0-0.1528282-0.0168228-0.2926826-0.049984-0.4195595C37.0014839,56.5368156,36.9534225,56.4286842,36.8914261,56.3397751z"/>
		<path class="st0" d="M23.1210308,57.3235474c0.1028461,0.0033646,0.2191486,0.0052834,0.3489094,0.0052834
			c0.1259155,0,0.2383728-0.0019188,0.3378563-0.0052834l-0.350832-0.8453636L23.1210308,57.3235474z"/>
		<path class="st0" d="M1.476378,1.476378v67.9133835h67.9133835V1.476378H1.476378z M10.0361986,32.633625
			c-0.3056564,0.0091286-0.4868402,0.0201836-0.5445108,0.0341225c-0.0571909,0.0134544-0.0980406,0.0302773-0.122551,0.0499802
			c-0.0240297,0.0197029-0.0408506,0.044693-0.0495014,0.0744896c-0.0216265,0.0519066-0.0365248,0.1499481-0.0456562,0.2950859
			c-0.0062475,0.0788155-0.0105724,0.2268372-0.0134563,0.4445457c-0.0120144,0.7444382-0.0182619,1.1452522-0.0182619,1.2024422
			v1.8286514l0.0134563,0.8304634c0,0.3119011,0.015379,0.5142326,0.0456562,0.6079483
			c0.0120144,0.0427704,0.0321999,0.0749702,0.0610352,0.0975609c0.0288353,0.0230675,0.0740108,0.0408478,0.1360073,0.0547867
			c0.0619965,0.0134544,0.2412567,0.0235481,0.5377827,0.0293159v0.3993721
			c-0.4930878-0.0182648-1.0193357-0.0273933-1.5787449-0.0273933c-0.4873195,0-0.9212942,0.0091286-1.3024035,0.0273933v-0.3993721
			c0.3143072-0.0120163,0.4959707-0.0225868,0.5445108-0.0317192c0.0634379-0.0120163,0.1066914-0.0288353,0.1292791-0.049984
			c0.0225878-0.0211449,0.0370054-0.0451736,0.0432529-0.072567c0.0091314-0.0360451,0.0211463-0.178299,0.0360446-0.4262848
			c0.0240297-0.363327,0.0365248-0.6987801,0.0365248-1.0073204V34.698246c0-0.6021805-0.0033641-0.9890594-0.009131-1.1615906
			c-0.015379-0.3839912-0.0336413-0.6247673-0.054307-0.7213669c-0.0091314-0.0394096-0.0235491-0.0696869-0.0432534-0.0908318
			c-0.0197043-0.0211487-0.0562291-0.0384483-0.1090941-0.0523872c-0.052865-0.0134544-0.2441406-0.026432-0.5738268-0.0384445
			v-0.3993721c0.3811092,0.018261,0.8179674,0.0273933,1.3110542,0.0273933c0.5536423,0,1.0770063-0.0091324,1.5700941-0.0273933
			V32.633625z M20.3999195,57.8219185c-0.0437336,0.0797806-0.1042881,0.1528282-0.1816635,0.2186699
			c-0.0778561,0.0663223-0.1576347,0.1153412-0.2393341,0.1485023c-0.1312027,0.0523872-0.2883549,0.0783386-0.471941,0.0783386
			c-0.1345673,0-0.2542343-0.0124969-0.3590031-0.037487s-0.2201099-0.0682449-0.3455448-0.1292801
			c0.0336418-0.1249542,0.0509415-0.3143082,0.0523834-0.5690193h0.1374493
			c-0.0024033,0.0788155,0.0038452,0.1763763,0.0182629,0.2936401c0.0413303,0.0677643,0.1124592,0.1273575,0.2129021,0.178299
			c0.1004448,0.0514259,0.2100182,0.0773773,0.3292065,0.0773773c0.1038074,0,0.1965618-0.0182648,0.2777805-0.0552673
			c0.0812206-0.0365257,0.1403332-0.0869904,0.1768589-0.1513863c0.0370045-0.0643997,0.0552673-0.1374512,0.0552673-0.2196312
			c0-0.0687256-0.0129757-0.1278381-0.0384464-0.176857c-0.0259533-0.0490227-0.0658417-0.0884323-0.1206284-0.1182289
			c-0.0547886-0.0293159-0.1509075-0.0600739-0.2883549-0.0917931c-0.1980057-0.0413284-0.3277645-0.071125-0.3902416-0.0898705
			c-0.0937157-0.0283546-0.1696491-0.0692024-0.2268391-0.1230316c-0.0571899-0.0533447-0.1004429-0.1182251-0.1287994-0.1941566
			c-0.0283546-0.0759354-0.0422916-0.1576347-0.0422916-0.2451019c0-0.1220703,0.0254707-0.2350082,0.0768948-0.3383369
			s0.1191864-0.1831055,0.2032909-0.2398148c0.0841026-0.0571899,0.1792603-0.0975609,0.2849903-0.1220703
			c0.1062107-0.0249901,0.2148247-0.0370064,0.3263226-0.0370064c0.1158218,0,0.2278004,0.0105743,0.3364143,0.0312386
			s0.203289,0.0504608,0.2825871,0.0898705l0.0134563,0.0394096c-0.015379,0.071125-0.026432,0.1408119-0.0336418,0.2090569
			c-0.0072079,0.0682449-0.012495,0.1581154-0.0158577,0.2696114H20.16395
			c-0.0024033-0.1268768-0.0076904-0.2162666-0.0163403-0.2686501c-0.0341225-0.0480614-0.0927544-0.0908318-0.1763783-0.1278381
			c-0.0831413-0.037487-0.176857-0.055748-0.2806644-0.055748c-0.1489849,0-0.2638454,0.037487-0.3450661,0.1119766
			c-0.0812206,0.0749741-0.1220703,0.1624413-0.1220703,0.262886c0.0009613,0.0720863,0.0129757,0.1307182,0.0360451,0.175415
			c0.0230675,0.0451736,0.055748,0.0802574,0.0980396,0.1066895c0.0427742,0.0259514,0.1057301,0.0504646,0.1888733,0.0720901
			c0.0629578,0.0129776,0.1513863,0.0293159,0.2643261,0.0490189c0.1134186,0.0197067,0.1864681,0.0336418,0.2205906,0.0408516
			c0.0884285,0.0230675,0.160038,0.0509415,0.2148247,0.0831413c0.0543079,0.0321999,0.0980415,0.0692062,0.1302414,0.1114998
			c0.0321999,0.0418091,0.0586319,0.094677,0.0792961,0.1585922c0.0206661,0.0639191,0.0312386,0.1360092,0.0312386,0.215786
			C20.4869061,57.5931587,20.4580708,57.7157097,20.3999195,57.8219185z M16.6443348,36.4812431
			c0.1436977,0.363327,0.3349724,0.6636963,0.5743084,0.9011078c0.2388535,0.2374115,0.4791489,0.4104271,0.7213669,0.5195198
			c0.3296871,0.1451378,0.7290592,0.2177086,1.1981163,0.2177086c0.3085403,0,0.6002579-0.0346031,0.8756371-0.10429
			c0.2748985-0.0696831,0.574789-0.1893501,0.8982277-0.3585205l0.1134186,0.10429l-0.2085762,0.4584846
			c-0.3782253,0.1994438-0.7175236,0.3364143-1.0188541,0.4104233c-0.3008518,0.0740128-0.6766739,0.1110191-1.12747,0.1110191
			c-0.6411095,0-1.2086868-0.1014061-1.7017746-0.3037376c-0.3868771-0.1633987-0.7151203-0.3796654-0.984252-0.6487961
			c-0.2696123-0.2691307-0.4767475-0.5613327-0.6218863-0.8761215c-0.2205915-0.474823-0.3311272-0.9904976-0.3311272-1.5470238
			c0-0.9530144,0.325841-1.7310905,0.9780045-2.334713c0.6516819-0.6036263,1.5720158-0.9054375,2.7609997-0.9054375
			c0.4085026,0,0.7751942,0.0302773,1.1000748,0.0908318c0.3253593,0.0605545,0.7026253,0.1682091,1.1322746,0.3224792
			l0.0225868,0.0586319c-0.0480595,0.1422539-0.0860252,0.3210335-0.1134186,0.5358582
			c-0.0451775,0.3417015-0.0740128,0.6579323-0.0860271,0.9482079h-0.3541965
			c-0.0057659-0.3325691-0.0211449-0.5988159-0.0451756-0.7987442c-0.2028084-0.2114601-0.4301281-0.3695717-0.6829205-0.4743423
			c-0.2527905-0.10429-0.5757484-0.1561928-0.9688721-0.1561928c-0.7107964,0-1.2793369,0.2244377-1.7061024,0.67379
			c-0.4262848,0.4493523-0.6396675,1.076046-0.6396675,1.8805542C16.4290295,35.6935501,16.500639,36.1183929,16.6443348,36.4812431
			z M24.848278,58.2102394l-0.4556026-0.009613l-0.5752678,0.009613v-0.1360092
			c0.1321621-0.0052872,0.2071362-0.0129776,0.2239552-0.0221062c0.0168209-0.0091324,0.0254726-0.0249901,0.0254726-0.0466194
			c0-0.0273933-0.0129757-0.0720863-0.0379677-0.1345634l-0.1408138-0.3604469H23.045578l-0.0720901,0.1965637
			c-0.054306,0.1509056-0.0816994,0.2446213-0.0816994,0.2821083c0,0.0259514,0.0086498,0.044693,0.0259514,0.055748
			c0.026432,0.0148964,0.1042881,0.0249901,0.2345295,0.0293159v0.1360092l-0.378706-0.009613l-0.3767853,0.009613v-0.1360092
			c0.0884285-0.0067291,0.1412945-0.0124969,0.1581154-0.0172997c0.0168209-0.0048065,0.0312386-0.0124969,0.0432529-0.0230713
			c0.0120144-0.0100899,0.0245094-0.026432,0.0370064-0.0490189c0.012495-0.0221062,0.0499802-0.105732,0.1124573-0.2499084
			c0.0283546-0.0677643,0.0826626-0.2013664,0.1638813-0.4012947l0.4277267-1.055378l0.1441784-0.3719788h0.2326069
			l0.7324219,1.710907l0.1018848,0.2244377l0.065361,0.1509056c0.0110531,0.0192223,0.0211449,0.0336418,0.0312386,0.0422897
			c0.0096111,0.0086517,0.0206642,0.0153809,0.0336418,0.0197067c0.012495,0.0043259,0.0442142,0.0081673,0.0956364,0.0115318
			c0.0163403,0.0024033,0.0403709,0.0048065,0.0720901,0.0081711V58.2102394z M29.2774105,56.0552635
			c-0.1331234,0.0033646-0.2124214,0.0129776-0.2374115,0.0297966c-0.0091324,0.0052872-0.0148983,0.0134583-0.0182629,0.0245094
			c-0.0163403,0.0543098-0.0269127,0.1792641-0.0317192,0.374382c-0.0052872,0.1951218-0.0076885,0.3388176-0.0076885,0.431572
			c0,0.7266541,0.0072079,1.1673584,0.0216255,1.3225899l-0.0216255,0.0148964
			c-0.0917931-0.015377-0.1850281-0.0297966-0.2801857-0.0427704c-0.3527546-0.3945694-0.8530502-0.9866562-1.5008888-1.776268
			v0.8160439c0,0.1691666,0.0033646,0.3455467,0.009613,0.5291328c0.004324,0.1268768,0.0110531,0.2037697,0.0197029,0.231163
			c0.0043259,0.0129776,0.0120163,0.0235481,0.0221081,0.0317192c0.0105724,0.0086517,0.0288353,0.0139389,0.0552673,0.0173035
			c0.0706482,0.0091286,0.122551,0.0134544,0.1552315,0.0134544c0.0067291,0,0.0177822-0.0009613,0.0331612-0.0019226v0.1326447
			c-0.2076149-0.0019226-0.3258419-0.0028839-0.3541965-0.0028839c-0.1057301,0-0.2494259,0.0028839-0.4310913,0.009613v-0.1393738
			c0.1292801-0.0062485,0.2028103-0.0124931,0.2215538-0.0177803c0.0120144-0.0043259,0.0221062-0.0115356,0.0302773-0.0216293
			c0.0081692-0.0096092,0.0148983-0.0297966,0.0201855-0.0605545c0.0067272-0.0413284,0.0144176-0.1417732,0.0230675-0.3013306
			c0.0043259-0.0908318,0.0067291-0.2085762,0.0067291-0.3541946V56.789608l-0.0067291-0.4772263
			c-0.0009613-0.0792999-0.0043259-0.1312027-0.0096111-0.1552315c-0.0057678-0.0240288-0.0134563-0.0418129-0.0240307-0.0533447
			c-0.0100918-0.0115356-0.0273933-0.020668-0.0514221-0.0273972c-0.0240307-0.0062447-0.0941963-0.0134544-0.2100201-0.0211449
			v-0.1374474c0.1388912,0.0062447,0.2412586,0.0096092,0.3066177,0.0096092l0.2374134-0.0048027l0.1509056-0.0048065
			c0.2249165,0.2936401,0.4978924,0.6324577,0.8179665,1.0159683c0.2302036,0.2763405,0.4214802,0.4926071,0.5733471,0.6487999
			v-0.3787041c0-0.5877647-0.0067291-0.9333115-0.0197048-1.037117c-0.0043259-0.0403709-0.013937-0.066803-0.0293159-0.0788193
			c-0.0254707-0.0197029-0.1105366-0.0302773-0.2556744-0.0326805v-0.1374474
			c0.1331234,0.0062447,0.2556744,0.0096092,0.3671722,0.0096092c0.1081333,0,0.2470226-0.0033646,0.4176331-0.0096092V56.0552635z
			 M29.2920685,38.7409859c-0.6805172,0-1.265398-0.1230316-1.7536793-0.3695755
			c-0.4887619-0.2465439-0.8722744-0.6103516-1.1505356-1.0914268c-0.2782631-0.4810715-0.4171543-1.0798874-0.4171543-1.7969322
			c0-0.5536423,0.0836239-1.035675,0.2518291-1.4475403c0.1677265-0.4113884,0.4075432-0.7607765,0.7189655-1.048172
			c0.3114243-0.2873955,0.6502419-0.4945297,1.0164528-0.6214066c0.4690571-0.1605148,0.9804058-0.2407761,1.5335674-0.2407761
			c0.5507584,0,1.0500927,0.0773773,1.4975243,0.2316475c0.3330498,0.1177444,0.6271725,0.288353,0.8828468,0.5103874
			c0.2551937,0.2225151,0.4498348,0.4503136,0.5829601,0.6829224c0.1331215,0.2330856,0.2335663,0.4887619,0.3018112,0.7670212
			c0.0677605,0.2782631,0.1018829,0.5853615,0.1018829,0.9208145c0,0.5690231-0.0980377,1.0967102-0.2950821,1.5840302
			c-0.1451378,0.3628502-0.3575592,0.684845-0.6372643,0.9664726c-0.279705,0.281147-0.5983372,0.4974098-0.9554176,0.6487961
			C30.4810524,38.6395798,29.9211636,38.7409859,29.2920685,38.7409859z M33.1918297,56.1095695
			c-0.0009613,0.0086517-0.0033646,0.1283188-0.0067253,0.3585243h-0.1360092
			c-0.0019226-0.0850677-0.0091324-0.1662865-0.0211449-0.2441406c-0.0067291-0.038929-0.0134583-0.0624771-0.0211487-0.0701675
			c-0.0067253-0.0057678-0.0240288-0.009613-0.0523834-0.0115356c-0.0898705-0.0086479-0.1975212-0.0129738-0.3229561-0.0129738
			h-0.2345314c-0.0028801,0.0379677-0.0048027,0.187912-0.0048027,0.4488716v0.981369
			c0,0.2359695,0.0062447,0.3782234,0.018261,0.4262848c0.0072098,0.0283546,0.0240288,0.0494995,0.0490189,0.0629578
			c0.0249939,0.0139351,0.1033287,0.0225868,0.2345314,0.0269127v0.1345673
			c-0.2124214-0.009613-0.3907242-0.0149002-0.535862-0.0149002c-0.1552315,0-0.3340111,0.0052872-0.5358582,0.0149002v-0.1345673
			c0.1307201-0.0043259,0.2085762-0.0129776,0.2330856-0.0259514c0.024992-0.0129776,0.0413322-0.0350838,0.0499821-0.0658417
			c0.0120144-0.0466156,0.0182629-0.1883926,0.0182629-0.4243622v-0.981369c0-0.2676888-0.001442-0.4171524-0.0048065-0.4488716
			h-0.2345276c-0.1177464,0-0.2215538,0.0038452-0.3114243,0.0110512c-0.0360451,0.0033646-0.0567093,0.0076904-0.0619965,0.0134583
			c-0.0076885,0.0062485-0.0144176,0.0254707-0.0197048,0.0571899c-0.0144176,0.076416-0.0225868,0.1624413-0.0245094,0.2571182
			h-0.1360073c-0.0048065-0.2239571-0.0072098-0.3498726-0.0081711-0.3782272
			c-0.0033627-0.0480576-0.0091305-0.0999641-0.0168209-0.1557121l0.0148983-0.0163383
			c0.051424,0.0052872,0.1062126,0.0091286,0.1638832,0.0115318c0.0941963,0.0028839,0.2748985,0.0048065,0.5425873,0.0048065
			h0.6617737c0.2753792,0,0.459446-0.0019226,0.5522003-0.0048065c0.0504646-0.0024033,0.1014061-0.0062447,0.1523476-0.0115318
			l0.0168228,0.0163383C33.2000008,56.0009575,33.1942329,56.0591087,33.1918297,56.1095695z M37.483036,57.5744133
			c-0.0523872,0.1312027-0.1292801,0.2475052-0.2302055,0.3489113c-0.1014023,0.1018867-0.2162666,0.1797409-0.3450623,0.2345276
			c-0.1768608,0.0730515-0.3791885,0.1095772-0.6065102,0.1095772c-0.2455788,0-0.4570427-0.0442162-0.633419-0.133606
			c-0.1763763-0.0889091-0.314785-0.2201118-0.4152298-0.3940849c-0.1004448-0.1734924-0.1509056-0.3897591-0.1509056-0.6487999
			c0-0.1999245,0.0302773-0.3739014,0.0908318-0.5228844c0.0610352-0.1485023,0.147541-0.2744179,0.2599983-0.3782234
			c0.1124611-0.1038094,0.2350121-0.1787796,0.3671722-0.2244377c0.1691704-0.0581512,0.3537178-0.0869865,0.5536423-0.0869865
			c0.198967,0,0.3791885,0.027874,0.5406647,0.083622c0.1201477,0.0422935,0.226841,0.1038094,0.3191147,0.1840668
			c0.0922737,0.0802612,0.1624413,0.1629219,0.2104988,0.2470245s0.0841026,0.1763763,0.1090927,0.2768211
			c0.0245132,0.1004448,0.0365257,0.2114601,0.0365257,0.3325691C37.5892448,57.2077217,37.5536804,57.3985176,37.483036,57.5744133
			z M41.7511711,58.2102394c-0.1682091-0.0043259-0.2897987-0.0067291-0.3652496-0.0067291
			c-0.0874672,0-0.1744537,0.0024033-0.2604828,0.0067291c-0.005764-0.0240326-0.0187416-0.0552711-0.0394058-0.093235
			L40.735199,57.538372c-0.1004448-0.1662865-0.1855087-0.2965279-0.2556725-0.3916855
			c-0.0350838-0.0480576-0.0687256-0.0841026-0.1014061-0.1081314l0.0177803-0.054306
			c0.1312027,0.0048065,0.2302055-0.0086517,0.2965279-0.0398903c0.0667992-0.0312386,0.1230316-0.0869865,0.1691666-0.167244
			c0.0456581-0.0802612,0.0687256-0.1701317,0.0687256-0.2696152c0-0.100441-0.0240288-0.1840668-0.0720901-0.2503853
			c-0.0480576-0.066803-0.1076508-0.1134224-0.1787796-0.1393738c-0.0456543-0.0163383-0.1278381-0.0245094-0.2455826-0.0245094
			c-0.0523834,0-0.10429,0.0043259-0.1557121,0.0129776c-0.0033646,0.0394058-0.0067291,0.1278343-0.0100937,0.2652855
			c-0.0062447,0.3095016-0.0096092,0.5156746-0.0096092,0.6194839c0,0.1638794,0.001442,0.3378525,0.0048065,0.5209579
			c0.0043259,0.225399,0.0076866,0.3532372,0.0100899,0.3835144c0.0028839,0.0615158,0.0091324,0.1014061,0.0177841,0.1196671
			c0.0043259,0.0086517,0.0115318,0.016819,0.0211449,0.0240288c0.0100937,0.0067291,0.0259514,0.0124969,0.0475769,0.0168228
			c0.02211,0.0048027,0.0855484,0.0076866,0.1903152,0.0100899v0.1441803
			c-0.1869507-0.0067291-0.3758202-0.009613-0.5670967-0.009613c-0.1706123,0-0.3282433,0.0028839-0.4733849,0.009613v-0.1441803
			c0.1244736-0.0043259,0.1980057-0.0105705,0.2210732-0.018261c0.0129776-0.0028839,0.0225868-0.0086517,0.0288353-0.0163422
			c0.0057678-0.0076866,0.0105743-0.0225868,0.0139389-0.0456543c0.007206-0.0427742,0.0129738-0.1071739,0.0163383-0.1931992
			l0.0129776-0.4786682V56.705986l-0.0067291-0.3460274c-0.0019226-0.1364861-0.0086517-0.2181892-0.0197029-0.2455826
			c-0.0052872-0.0120125-0.0134583-0.0211449-0.0245132-0.027874c-0.0259514-0.0129738-0.1071701-0.0240288-0.242218-0.0326805
			v-0.1345634c0.0249939,0,0.1124611,0.0024033,0.2619247,0.0067253c0.0730476,0.0019226,0.176857,0.0033646,0.3114243,0.0033646
			c0.1148605,0,0.2129021-0.0024033,0.2950821-0.0067253c0.1355247-0.0052872,0.2475052-0.0081711,0.3359337-0.0081711
			c0.1715698,0,0.2998886,0.0120125,0.3849525,0.0370064c0.0850639,0.0245094,0.1581154,0.0754509,0.2181892,0.1528282
			c0.0600739,0.0778542,0.0898705,0.1720505,0.0898705,0.2835464c0,0.132164-0.0408478,0.2523117-0.1230316,0.3604431
			c-0.0816994,0.1086159-0.2080956,0.1941605-0.3782234,0.2575989c0.0273933,0.0490189,0.0581512,0.0994835,0.093235,0.1509056
			c0.03508,0.0509415,0.0552673,0.08218,0.0615158,0.093235c0.005764,0.011055,0.0124931,0.0211449,0.0187416,0.0312386
			l0.2542343,0.3815918c0.0677605,0.1018829,0.1042862,0.156189,0.1095734,0.1638794
			c0.08218,0.1090965,0.132164,0.1739731,0.1509056,0.1931992c0.018261,0.0197029,0.0365257,0.0336418,0.0538254,0.0413284
			c0.0177841,0.0076904,0.0519066,0.0120163,0.1033287,0.0129776V58.2102394z M44.6529846,56.0619926
			c-0.1105385,0.0033646-0.1758957,0.0072098-0.1965637,0.0120163c-0.0206642,0.0052834-0.0355644,0.0110512-0.0442123,0.018261
			c-0.0091324,0.0072098-0.0149002,0.0158577-0.0182648,0.0269127c-0.0076866,0.0187416-0.0129738,0.054306-0.0163383,0.1066933
			c-0.0019226,0.0283546-0.0038452,0.0816994-0.0048065,0.1605148c-0.0043259,0.2686539-0.0067291,0.413311-0.0067291,0.4344559
			v0.6603317l0.0048065,0.2998924c0,0.1124573,0.0057678,0.1855087,0.0168228,0.2196274
			c0.0043221,0.0149002,0.0115318,0.0269165,0.0221062,0.0350838c0.0100899,0.0081711,0.026432,0.0149002,0.0490189,0.0197067
			c0.0221062,0.0048027,0.0869865,0.0081673,0.1941605,0.0105705v0.1441803
			c-0.178299-0.0067291-0.3681335-0.009613-0.5704613-0.009613c-0.1758995,0-0.3325729,0.0028839-0.4700203,0.009613v-0.1441803
			c0.1134186-0.0043259,0.1792603-0.0081673,0.1965599-0.0115318c0.0230713-0.0043259,0.0384483-0.0105743,0.0466194-0.0177841
			c0.0081711-0.0076866,0.0134544-0.016819,0.015377-0.026432c0.0033646-0.0129738,0.0076904-0.0643997,0.0134583-0.1542702
			c0.0086517-0.130722,0.0129776-0.2523117,0.0129776-0.363327v-0.6853218c0-0.2172279-0.0009613-0.3570824-0.0033646-0.4195595
			c-0.0052872-0.1384087-0.0120163-0.2253952-0.0197067-0.260479c-0.0033646-0.0139389-0.0081673-0.0249901-0.015377-0.0326805
			s-0.0201874-0.0139389-0.0394096-0.0187416c-0.0192223-0.0048065-0.0884285-0.009613-0.2071342-0.0139389v-0.1441765
			c0.1374474,0.0062447,0.2955627,0.0096092,0.473381,0.0096092c0.1999283,0,0.3888016-0.0033646,0.5671005-0.0096092V56.0619926z
			 M44.905056,32.6153603c-0.3690948,0.0091324-0.588726,0.0365257-0.6579323,0.0817032
			c-0.0245094,0.015377-0.0408516,0.0379639-0.0499802,0.0682411c-0.0456581,0.1513863-0.0749741,0.496933-0.0884285,1.0366364
			c-0.0139389,0.5401878-0.020668,0.9385986-0.020668,1.195713c0,2.0117569,0.0197067,3.23246,0.0591125,3.6621094
			l-0.0591125,0.0403709c-0.2542305-0.0422935-0.5127907-0.0812187-0.7756729-0.1177444
			c-0.9775238-1.0919037-2.3625908-2.7316856-4.1566391-4.9188576v2.2597427c0,0.4690552,0.0091324,0.9573364,0.0273933,1.4658051
			c0.0120163,0.3508301,0.0297966,0.5642128,0.054306,0.6396675c0.0120163,0.0365257,0.0321999,0.0658417,0.0610352,0.0884285
			s0.0797806,0.0384483,0.1523476,0.0475769c0.1965637,0.0245132,0.3402596,0.0365257,0.4310913,0.0365257
			c0.0177841,0,0.0480614-0.001442,0.0903511-0.0048065v0.3676529c-0.5747871-0.005764-0.9011078-0.0091286-0.9799271-0.0091286
			c-0.2936401,0-0.6910896,0.0091286-1.1933098,0.0273933v-0.3859177c0.3570824-0.0177803,0.5608521-0.0345993,0.6127548-0.0494995
			c0.0331612-0.0120163,0.0610352-0.0317192,0.0836258-0.0591125c0.0225868-0.0273933,0.0418091-0.0831413,0.0567093-0.1677284
			c0.018261-0.1153412,0.0394058-0.3936043,0.0634384-0.8352661c0.0120125-0.2508698,0.018261-0.5776711,0.018261-0.9799271
			v-1.4566727l-0.018261-1.3201866c-0.0028839-0.2210732-0.0120163-0.364769-0.0269127-0.4310913
			c-0.0153809-0.066803-0.0370064-0.1158218-0.0658417-0.147541s-0.076416-0.0567093-0.143219-0.0749741
			c-0.0663185-0.018261-0.2599983-0.0379639-0.580555-0.0591125v-0.3811073
			c0.3839951,0.018261,0.6670647,0.0273933,0.8482475,0.0273933l0.6584091-0.0139389l0.4171524-0.0134544
			c0.6233292,0.8136406,1.3778572,1.7517548,2.2645493,2.813385c0.6382256,0.7650986,1.1673584,1.364399,1.5878754,1.7969322
			v-1.048172c0-1.6277657-0.018261-2.5851021-0.054306-2.8724976c-0.0120163-0.1119766-0.0394096-0.1845474-0.0816994-0.2177086
			c-0.0696869-0.054306-0.3056564-0.0845833-0.7079124-0.0908318v-0.3811073
			c0.3690948,0.018261,0.7079124,0.0273933,1.016449,0.0273933c0.2994118,0,0.6853256-0.0091324,1.1572685-0.0273933V32.6153603z
			 M49.1095123,56.0552635c-0.1331253,0.0033646-0.2124214,0.0129776-0.2374115,0.0297966
			c-0.0091324,0.0052872-0.0149002,0.0134583-0.0182648,0.0245094c-0.0163383,0.0543098-0.0269127,0.1792641-0.0317192,0.374382
			c-0.0052872,0.1951218-0.0076904,0.3388176-0.0076904,0.431572c0,0.7266541,0.0072098,1.1673584,0.0216293,1.3225899
			l-0.0216293,0.0148964c-0.0917931-0.015377-0.1850243-0.0297966-0.2801819-0.0427704
			c-0.3527565-0.3945694-0.8530502-0.9866562-1.5008888-1.776268v0.8160439c0,0.1691666,0.0033646,0.3455467,0.0096092,0.5291328
			c0.0043259,0.1268768,0.011055,0.2037697,0.0197067,0.231163c0.0043259,0.0129776,0.0120125,0.0235481,0.0221062,0.0317192
			c0.0105743,0.0086517,0.0288353,0.0139389,0.0552673,0.0173035c0.0706482,0.0091286,0.122551,0.0134544,0.1552315,0.0134544
			c0.0067291,0,0.0177841-0.0009613,0.0331612-0.0019226v0.1326447c-0.2076149-0.0019226-0.32584-0.0028839-0.3541946-0.0028839
			c-0.105732,0-0.2494278,0.0028839-0.4310913,0.009613v-0.1393738c0.1292801-0.0062485,0.2028084-0.0124931,0.2215538-0.0177803
			c0.0120125-0.0043259,0.0221062-0.0115356,0.0302773-0.0216293c0.0081673-0.0096092,0.0148964-0.0297966,0.0201836-0.0605545
			c0.0067291-0.0413284,0.0144157-0.1417732,0.0230675-0.3013306c0.0043259-0.0908318,0.0067291-0.2085762,0.0067291-0.3541946
			V56.789608l-0.0067291-0.4772263c-0.0009613-0.0792999-0.0043259-0.1312027-0.0096092-0.1552315
			c-0.0057678-0.0240288-0.0134583-0.0418129-0.0240326-0.0533447c-0.0100899-0.0115356-0.0273933-0.020668-0.0514221-0.0273972
			c-0.0240288-0.0062447-0.0941963-0.0134544-0.2100182-0.0211449v-0.1374474
			c0.1388893,0.0062447,0.2412567,0.0096092,0.3066177,0.0096092l0.2374115-0.0048027l0.1509056-0.0048065
			c0.2249184,0.2936401,0.4978943,0.6324577,0.8179665,1.0159683c0.2302055,0.2763405,0.4214783,0.4926071,0.573349,0.6487999
			v-0.3787041c0-0.5877647-0.0067291-0.9333115-0.0197067-1.037117c-0.0043259-0.0403709-0.0139351-0.066803-0.0293159-0.0788193
			c-0.0254707-0.0197029-0.1105347-0.0302773-0.2556763-0.0326805v-0.1374474
			c0.1331253,0.0062447,0.2556763,0.0096092,0.3671722,0.0096092c0.1081352,0,0.2470245-0.0033646,0.4176369-0.0096092V56.0552635z
			 M52.0637093,56.0619926c-0.1105347,0.0033646-0.1758957,0.0072098-0.1965637,0.0120163
			c-0.0206642,0.0052834-0.0355606,0.0110512-0.0442123,0.018261c-0.0091324,0.0072098-0.0149002,0.0158577-0.0182648,0.0269127
			c-0.0076866,0.0187416-0.0129738,0.054306-0.0163383,0.1066933c-0.0019226,0.0283546-0.0038452,0.0816994-0.0048065,0.1605148
			c-0.0043259,0.2686539-0.0067291,0.413311-0.0067291,0.4344559v0.6603317l0.0048065,0.2998924
			c0,0.1124573,0.0057678,0.1855087,0.0168228,0.2196274c0.0043259,0.0149002,0.0115318,0.0269165,0.0221062,0.0350838
			c0.0100937,0.0081711,0.026432,0.0149002,0.0490189,0.0197067c0.02211,0.0048027,0.0869865,0.0081673,0.1941605,0.0105705
			v0.1441803c-0.178299-0.0067291-0.3681335-0.009613-0.5704613-0.009613c-0.1758995,0-0.3325691,0.0028839-0.4700203,0.009613
			v-0.1441803c0.1134186-0.0043259,0.1792603-0.0081673,0.1965637-0.0115318
			c0.0230675-0.0043259,0.0384445-0.0105743,0.0466156-0.0177841c0.0081711-0.0076866,0.0134583-0.016819,0.0153809-0.026432
			c0.0033607-0.0129738,0.0076866-0.0643997,0.0134544-0.1542702c0.0086517-0.130722,0.0129776-0.2523117,0.0129776-0.363327
			v-0.6853218c0-0.2172279-0.0009613-0.3570824-0.0033646-0.4195595c-0.0052872-0.1384087-0.0120163-0.2253952-0.0197067-0.260479
			c-0.0033607-0.0139389-0.0081673-0.0249901-0.015377-0.0326805s-0.0201836-0.0139389-0.0394096-0.0187416
			c-0.0192223-0.0048065-0.0884285-0.009613-0.2071342-0.0139389v-0.1441765
			c0.1374512,0.0062447,0.2955627,0.0096092,0.4733849,0.0096092c0.1999245,0,0.3887978-0.0033646,0.5670967-0.0096092V56.0619926z
			 M52.7218781,32.633625c-0.3056564,0.0091286-0.4868393,0.0201836-0.5445099,0.0341225
			c-0.0571899,0.0134544-0.0980415,0.0302773-0.122551,0.0499802c-0.0240288,0.0197029-0.0408478,0.044693-0.0494995,0.0744896
			c-0.0216255,0.0519066-0.0365257,0.1499481-0.0456581,0.2950859c-0.0062447,0.0788155-0.0105705,0.2268372-0.0134544,0.4445457
			c-0.0120163,0.7444382-0.0182648,1.1452522-0.0182648,1.2024422v1.8286514l0.0134583,0.8304634
			c0,0.3119011,0.015377,0.5142326,0.0456543,0.6079483c0.0120163,0.0427704,0.0321999,0.0749702,0.0610352,0.0975609
			c0.0288391,0.0230675,0.0740128,0.0408478,0.1360092,0.0547867c0.0619965,0.0134544,0.2412567,0.0235481,0.5377808,0.0293159
			v0.3993721c-0.493084-0.0182648-1.0193329-0.0273933-1.578743-0.0273933c-0.4873199,0-0.9212952,0.0091286-1.3024025,0.0273933
			v-0.3993721c0.3143082-0.0120163,0.4959717-0.0225868,0.5445099-0.0317192
			c0.0634384-0.0120163,0.1066895-0.0288353,0.1292801-0.049984c0.0225868-0.0211449,0.0370064-0.0451736,0.043251-0.072567
			c0.0091324-0.0360451,0.0211487-0.178299,0.0360451-0.4262848c0.0240288-0.363327,0.0365257-0.6987801,0.0365257-1.0073204
			V34.698246c0-0.6021805-0.0033646-0.9890594-0.0091324-1.1615906c-0.015377-0.3839912-0.0336418-0.6247673-0.054306-0.7213669
			c-0.0091324-0.0394096-0.0235481-0.0696869-0.0432549-0.0908318c-0.0197029-0.0211487-0.0562286-0.0384483-0.1090927-0.0523872
			c-0.0528641-0.0134544-0.2441406-0.026432-0.5738258-0.0384445v-0.3993721
			c0.3811073,0.018261,0.8179665,0.0273933,1.3110542,0.0273933c0.5536423,0,1.0770073-0.0091324,1.5700912-0.0273933V32.633625z
			 M59.3300171,36.4812431c0.1436958,0.363327,0.3349724,0.6636963,0.5743065,0.9011078
			c0.2388535,0.2374115,0.4791489,0.4104271,0.7213669,0.5195198c0.329689,0.1451378,0.7290611,0.2177086,1.1981163,0.2177086
			c0.3085403,0,0.6002579-0.0346031,0.8756371-0.10429c0.2748985-0.0696831,0.574791-0.1893501,0.8982277-0.3585205
			l0.1134186,0.10429l-0.2085762,0.4584846c-0.3782234,0.1994438-0.7175217,0.3364143-1.0188522,0.4104233
			c-0.3008537,0.0740128-0.6766739,0.1110191-1.1274719,0.1110191c-0.6411095,0-1.2086868-0.1014061-1.7017746-0.3037376
			c-0.3868752-0.1633987-0.7151184-0.3796654-0.9842529-0.6487961c-0.2696114-0.2691307-0.4767456-0.5613327-0.6218834-0.8761215
			c-0.2205925-0.474823-0.3311272-0.9904976-0.3311272-1.5470238c0-0.9530144,0.32584-1.7310905,0.9780045-2.334713
			c0.65168-0.6036263,1.5720139-0.9054375,2.7609978-0.9054375c0.4085045,0,0.7751961,0.0302773,1.1000748,0.0908318
			c0.3253593,0.0605545,0.7026253,0.1682091,1.1322746,0.3224792l0.0225868,0.0586319
			c-0.0480576,0.1422539-0.0860252,0.3210335-0.1134186,0.5358582c-0.0451736,0.3417015-0.0740128,0.6579323-0.0860252,0.9482079
			h-0.3541985c-0.005764-0.3325691-0.0211449-0.5988159-0.0451736-0.7987442
			c-0.2028084-0.2114601-0.43013-0.3695717-0.6829224-0.4743423c-0.2527885-0.10429-0.5757484-0.1561928-0.9688721-0.1561928
			c-0.7107964,0-1.279335,0.2244377-1.7061005,0.67379c-0.4262848,0.4493523-0.6396675,1.076046-0.6396675,1.8805542
			C59.1147118,35.6935501,59.1863213,36.1183929,59.3300171,36.4812431z"/>
	</g>
</g>
</svg>
