<?xml version="1.0" encoding="utf-8"?>
<!-- Generator: Adobe Illustrator 22.0.1, SVG Export Plug-In . SVG Version: 6.00 Build 0)  -->
<svg version="1.1" id="Layer_1" xmlns="http://www.w3.org/2000/svg" xmlns:xlink="http://www.w3.org/1999/xlink" x="0px" y="0px"
	 viewBox="0 0 858 956" style="enable-background:new 0 0 858 956;" xml:space="preserve">
<style type="text/css">
	.st0{fill:none;stroke:#FFFFFF;stroke-width:2.5;stroke-linejoin:round;stroke-miterlimit:10;}
	.st1{fill:#FFFFFF;}
</style>
<g>
	<path class="st0" d="M727.6574707,366.6613159c1.9115601,11.2598267,11.3809814,12.6803894,19.1846924,15.7663879
		c4.913208,1.9428101,8.1748657,4.2593994,8.4471436,9.8709412c0.2385254,4.9103394,3.0263062,8.0234985,7.3782349,10.3051453
		c3.6868896,1.9332275,6.9894409,4.6160278,10.3885498,7.0688477c0.8310547,0.5996704,1.7820435,1.5085754,1.9830322,2.4273071
		c1.0810547,4.9442444,4.753479,7.1903687,8.8012695,9.3921814c6.3793335,3.4697571,12.635437,7.1811829,18.8001099,11.0214539
		c1.7814331,1.1096802,3.395813,2.8020935,4.5343018,4.5809021c9.6997681,15.1534119,19.2747803,30.3866882,28.8711548,45.6061096
		c0.3480835,0.552063,6.7874146,14.4403687,5.9442749,22.9259033c-0.7371216,7.4169006-3.3950195,14.1532288-5.4046021,20.9489441
		c-2.2167358,7.4967651-3.2532959,14.812561-1.6478882,22.7253418c0.8933716,4.4042358-0.0663452,9.4210205-1.1411743,13.9354858
		c-1.8729248,7.8674927-4.736084,15.4976196-6.6580811,23.355896c-0.8076172,3.3016357-0.7175293,6.9883423-0.2745361,10.4013672
		c1.7886353,13.7865601,4.2156982,27.4992065,5.647522,41.317688c0.4484863,4.3286133-0.7277832,9.2297974-2.4714355,13.3082275
		c-6.0998535,14.269043-11.5143433,28.9158936-20.6207275,41.7214966c-1.0812988,1.5206299-1.7177734,3.3629761-2.5218506,5.0741577
		c-1.3282471,2.8278198-0.7865601,5.3656006,1.6029053,7.2836914c4.7181396,3.7874146,7.3286743,8.862793,9.5894775,14.3145752
		c1.0045166,2.4215698,3.024353,4.4064941,4.4538574,6.6715698c1.4699707,2.3297119,2.7008057,4.8117065,4.1981201,7.1223755
		c0.7455444,1.1503296,1.6642456,2.5657959,2.828064,3.0055542c6.9501343,2.6270142,9.1538086,8.2642822,5.4585571,14.4605713
		c-1.1768799,1.9734497-2.6176758,3.883606-3.3249512,6.0251465c-2.0401001,6.1774902-6.4910278,9.0065308-12.5936279,9.8306885
		c-5.7563477,0.7774048-10.6915894,2.6815796-13.1638184,8.6054077c-0.465271,1.1149902-1.7955322,2.1938477-2.9708252,2.6264648
		c-3.3737793,1.2418213-6.5377808,2.3745728-7.0212402,6.7261353c-0.0749512,0.6746216-1.8490601,1.354126-2.9421997,1.6940308
		c-22.1134033,6.8729248-39.3963013,19.743103-50.4525146,40.4158936c-1.2111816,2.2649536-2.2912598,4.6954956-3.946106,6.6031494
		c-2.0465698,2.359314-4.3586426,4.7250977-7.0314331,6.2612915c-9.5897217,5.5124512-17.2619019,12.9475098-23.4128418,22.0437622
		c-1.0586548,1.5655518-1.984314,3.2271118-2.8927612,4.8874512c-2.0022583,3.6599121-4.7300415,5.381958-9.206543,5.0257568
		c-11.1002808-0.8839722-19.8578491,4.7816772-27.720459,11.5547485
		c-7.2687988,6.2614746-13.9779663,13.2026367-20.6505737,20.1176758
		c-6.0822754,6.3033447-11.9769287,12.8121338-17.6082764,19.520874c-7.753479,9.2363281-29.7224731,8.038208-34.6724243-4.0790405
		c-2.3178101-5.6740112-5.9367065-10.8480835-9.2755737-16.0498657c-0.7924805-1.2344971-2.7489624-1.9752808-4.3165894-2.3915405
		c-1.7965698-0.4769287-3.7767334-0.2064819-5.6421509-0.4908447c-8.9824829-1.3686523-15.8891602-5.3337402-19.2890625-14.4354858
		c-2.5876465-6.9279175-7.3895264-11.972229-14.1624146-15.4605713c-3.4750977-1.7900391-6.2706299-5.0296631-9.1228027-7.8658447
		c-3.619873-3.5999146-6.6942139-7.8049316-10.5876465-11.0482178c-1.8569946-1.546814-5.0375366-1.8852539-7.6625977-2.043335
		c-4.2362671-0.2550659-7.4797363-1.6055908-9.8355713-5.3269653c-0.8341675-1.317627-2.5645447-2.4575195-4.103363-2.8734131
		c-7.539032-2.0371704-15.1239929-3.9301147-22.7606506-5.5553589c-1.5067444-0.3206787-3.3984985,0.5565796-4.9644775,1.227356
		c-7.9526367,3.4070435-11.1830444,2.8416748-17.3599243-3.2669678c-5.7336731-5.6705933-17.8129578-7.4990234-24.7756042-3.6472778
		c-7.6384888,4.2255249-15.4654846,2.0145264-23.3519592,1.090271c-4.6307373-0.5426636-9.3772583-0.3096313-14.0513-0.0537109
		c-0.7334595,0.0402222-1.8272095,2.0136719-1.9464722,3.1762695c-0.377655,3.6824341-2.8067932,6.5665894-6.4213867,7.0424805
		c-5.7988281,0.7631226-8.7395935-0.6835938-10.0357666-4.9375c-2.4227905-7.9523926-4.7926941-9.7146606-13.1746521-8.9282837
		c-5.9609985,0.5592041-11.4356995,2.4150391-16.5090332,6.0148926c-2.4589539,1.744873-6.2449036,1.6196899-10.0688477,2.4859009
		c0,1.2337036,0,3.5792847,0,7.1266479c-5.2334595-0.9248047-9.9397583-1.7563477-14.8740234-2.6280518
		c4.111969-8.857666,3.107666-12.076416-4.4407654-17.8247681c-4.7937317-3.6503906-9.1609802-7.888916-14.1162415-11.28479
		c-1.9945068-1.3666382-5.0369873-1.5212402-7.6254272-1.618042c-2.7677612-0.1033325-4.3041382-0.5030518-4.8956299-3.7718506
		c-0.8315125-4.5955811-3.9107666-7.8754272-8.1393127-10.0504761c-2.5020447-1.2871704-5.1407471-2.5292358-7.2302246-4.3511353
		c-4.3613281-3.8024902-9.3635864-4.7453003-14.7671814-3.9185181c-1.7128296,0.2622681-3.6582947,1.2792358-4.8057709,2.5670166
		c-4.96875,5.5774536-10.1515656,10.7910767-16.6999969,14.6009521c-3.1139679,1.8118896-4.6656494,1.739563-6.3872681-1.5733643
		c-0.8974609-1.7269287-1.7902374-3.4564819-2.6811523-5.177063c-4.7833099,3.4154053-9.0570221,6.4671021-13.8482819,9.8884888
		c-1.6699371-3.7808228-3.0155334-6.6580811-4.219986-9.5929565c-2.0210419-4.9242554-5.8074036-7.0723267-10.9130096-6.6166382
		c-4.2177429,0.3766479-6.1997681-1.1086426-7.5602722-5.2827148c-1.8490601-5.6729736-6.7118225-8.9476929-11.9977875-11.4160767
		c-2.0482025-0.956665-4.4785614-1.5828857-4.0437164-5.6384888c8.5909119-0.6086426,17.2731171-1.6235352,25.9651337-1.71875
		c7.5825348-0.083313,14.9336548-5.2724609,16.2555542-12.9430542c0.7336578-4.256958,0.6329651-8.6715698,1.5388184-12.8792725
		c0.408493-1.8983154,1.9975433-4.2055054,3.683197-5.0222778c3.100708-1.5026855,4.6280823-3.4667358,4.7389832-6.8150024
		c0.0535126-1.6174316,0.319046-3.237915,0.6107025-4.8347778c0.5206299-2.8504639,2.2275391-4.649292,5.1405334-4.9307251
		c2.8251801-0.2727051,3.907074,1.5931396,4.7826996,3.9971313c1.1979218,3.2890015,2.5859985,6.548645,4.2738953,9.6105347
		c3.0578156,5.5469971,6.3768616,7.2132568,12.4642944,5.34375c4.9828491-1.5302124,9.6317444-4.1484985,14.4264832-6.2894287
		c0.849884-0.3792725,1.6887512-0.7830811,2.875824-1.3352051c5.2563477-2.6227417,12.2845459-5.6819458,15.143219-7.0714722
		c9.8815613-4.8033447,20.2749634-6.4156494,31.1493835-5.3768311c3.9503784,0.3774414,6.6474609,2.3043213,8.6227722,5.8328857
		c4.3355713,7.744751,4.5551453,7.6713867,13.0614929,5.522522c1.1713867-0.2957764,2.6783142-0.0523071,3.8047485,0.4481201
		c1.7124329,0.7608032,3.2446899,1.9391479,4.8233337,2.986084c3.2402039,2.1491089,6.2267151,4.0533447,10.6879272,3.7749634
		c3.694458-0.2304077,7.6383057,1.5003662,11.2831116,2.8660278c15.1644592,5.6807251,30.2557983,11.5567627,45.3814392,17.3414917
		c0.8745728,0.3345947,1.9364624,0.9030151,2.7066956,0.6742554c6.8635864-2.0377808,14.6407471-0.0059204,20.9020081-4.6928101
		c0.9724121-0.7279663,2.1166382-1.2332764,3.0578003-1.9945068c4.9785767-4.0261841,10.2788391-4.3139648,15.9130249-1.5482178
		c2.8302917,1.3895264,4.8833923,1.5463867,6.9344482-1.8856201c1.0584106-1.7710571,4.505127-2.8439331,6.9128113-2.9172974
		c4.1685181-0.1270142,6.3076172-1.5181885,8.2737122-5.4260864c3.6068115-7.1694946,4.3941956-14.0508423,1.2788086-21.4189453
		c-0.4162598-0.984436-0.570282-2.085144-0.8018799-3.1417236c-0.7138672-3.2572021,0.3251648-5.3825684,3.8960266-5.576416
		c2.6989441-0.1462402,5.4653015,0.2373657,8.0933533-0.2271118c1.503479-0.2657471,3.8981018-1.6489258,4.000824-2.7116089
		c0.8594971-8.8881226,6.9307861-14.4398193,12.3868713-20.4316406c4.5302429-4.9752808,4.3668518-8.6052246-0.5492249-13.1143799
		c-4.5919189-4.2116089-5.0185852-6.9420166-0.6513367-11.2731323c6.0065613-5.9569092,9.7937317-13.1256104,13.2663879-20.664856
		c1.0281982-2.2324219,3.694458-3.6656494,5.3884888-5.6542358c0.8710938-1.0224609,2.0014038-2.6585083,1.7318115-3.6776733
		c-1.3353882-5.0466309-0.2304077-9.40448,2.989563-13.291687c2.7481689-3.317627,4.5929565-6.7629395,4.6135864-11.3354492
		c0.0214844-4.8000488,1.9816284-6.3827515,6.6854858-6.8586426c7.3082275-0.7391968,14.831543-7.0365601,16.6419678-14.6828613
		c1.8913574-7.9889526,5.0606689-15.069458,11.3305054-20.5917358c2.3370361-2.0582275,2.2971802-4.7132568,1.2367554-7.4663086
		c-2.7625122-7.1727905-4.753479-14.7651367-8.4226074-21.4363403
		c-4.7804565-8.6915894-10.5545654-16.9086914-16.6099243-24.7847595c-1.8872681-2.4548645-6.0137329-3.2894287-9.2244873-4.5974426
		c-3.3602905-1.3690796-6.9642944-2.1707458-10.2526855-3.6770935c-2.8253784-1.2940979-3.4471436-3.4869385-2.2064819-6.7304077
		c1.1995239-3.1360168,1.6323242-6.6785278,1.7943115-10.0712891c0.2328491-4.8762512,1.2924805-9.266571,4.3441772-13.2157288
		c3.9464722-5.1070251,8.2463379-10.0927429,11.2067261-15.7518616c1.7328491-3.3123169,1.010376-7.8574524,1.6517334-11.8057861
		c0.7567139-4.6582947-1.6119385-7.4703979-5.2546997-9.5590515c-3.9375-2.2571411-4.6064453-5.3374329-2.6850586-9.2363281
		c0.1793213-0.3637695,0.2976074-0.759613,0.494873-1.1123352c6.4949341-11.6097107,3.729187-13.7102051-5.201355-20.043335
		c-7.2747803-5.1589355-10.7739258-10.9079285-9.6638794-19.865448c0.8433838-6.8031311,0.5143433-13.7447205,1.1434326-20.5844116
		c0.3034668-3.3010559-0.3731689-5.5447388-3.430603-6.9095154c-4.3059692-1.9219971-7.0686035-5.1401367-8.8280029-9.5506897
		c-1.8725891-4.6938477-5.5233154-7.1803589-10.7672119-7.0925293c-2.7056885,0.0453491-5.4769287-0.5200195-8.1062012-0.1025391
		c-2.9279175,0.4646606-5.7281799,1.7328491-8.9173279,2.7587891c0.2732849,0.2240601-0.0175476,0.0953674-0.1331482-0.1252136
		c-3.8123169-7.2747192-4.0812988-7.3993225-12.5762329-6.025116c-1.0532837,0.1703186-2.1278381,0.2103577-4.3184204,0.4170532
		c1.1333923-2.6176453,2.0028687-4.6260071,2.9011536-6.7009888c-1.2316284-1.6633911-3.0114441-3.4262695-4.0140991-5.5549622
		c-2.0768127-4.409729-0.5243225-9.4628296,3.7252808-13.0302429c3.6272583-3.0449524,7.6568909-5.6715698,10.9499817-9.0308533
		c2.0553589-2.0966187,3.1080627-5.190979,4.548645-7.8709412c1.4434204-2.6854553,2.6245728-5.5302429,4.2559204-8.0917358
		c2.096405-3.2918701,4.4820251-6.4046326,6.8323364-9.5273743c1.2066956-1.603363,2.3233032-3.5578003,3.9693604-4.4985962
		c7.381958-4.2191467,10.3063965-11.0731201,12.0322876-18.8474579c2.1468506-9.6697388,1.4348755-18.8368378-4.381134-27.1767273
		c-1.0694275-1.5337067-2.1644287-3.3619385-3.7103577-4.190567c-4.1364746-2.2173309-6.393219-5.7645264-7.9393616-9.8838043
		c-2.7800598-7.4058685-7.7561646-13.9516296-8.4212036-22.2269745c-0.1309204-1.6292877-1.7818604-3.2941284-3.0463562-4.6486969
		c-8.2996521-8.8887024-16.8059998-17.4432526-21.359314-29.2588501
		c-2.8080139-7.2865753-16.9238281-10.3903351-23.4026184-5.8039246
		c-8.3247986,5.8931885-17.2688293,8.6111145-27.5174255,7.2673645c-1.9509888-0.2559204-4.3615417,0.9567108-6.1738281,2.1027527
		c-3.752655,2.372757-7.2910767,5.0966187-10.8321228,7.7884064c-3.2146912,2.4438324-5.8936157,2.2438812-8.2481995-1.1678925
		c-0.4227905-0.6125488-1.181366-0.9930573-2.1227417-1.7536774c-1.1585083,2.1750488-2.184845,4.1021271-3.7412415,7.0241089
		c-1.2800293-2.746933-2.1715698-4.6082611-3.0191956-6.4891815c-1.8897095-4.194458-4.3545837-5.2177429-7.9364929-2.4973602
		c-3.4955139,2.6546326-5.8145447,1.7779999-8.2122498-1.240799c-0.9142151-1.1511536-2.0318604-2.2103882-3.2420349-3.0420837
		c-2.5502319-1.752655-4.7022095-1.9003296-6.8237305,1.121933c-3.7306213,5.3139496-10.7451172,6.6842499-15.5079956,2.2694092
		c-3.7018127-3.4315796-6.2974243-8.2179413-8.7980347-12.727356c-1.6811523-3.031662-3.2336731-3.9775391-5.7771606-1.8915405
		c-5.0717163,4.1587067-5.0717163,4.1587067-10.142395,0.8249512c-3.4315796,3.6840363-3.3637695,3.3719482-8.6925964,2.2144775
		c-3.0723267-0.6674957-6.4060974-0.1246033-9.6219788-0.1397095c-3.9869385-0.0189972-8.0208435,0.3180084-11.9475403-0.1815796
		c-3.9726257-0.5055237-6.2590027,0.8523254-8.2798462,4.1803589c-2.4264526,3.9963379-5.0657654,8.0361633-8.3995056,11.2377625
		c-1.7146912,1.6464539-5.2769775,2.2918854-7.7310181,1.8545837c-1.222229-0.2177277-2.6060181-3.9183044-2.5349426-5.9961243
		c0.1121368-3.2777863,1.1417542-6.6017303,2.2377625-9.7477875c1.2507935-3.590683,0.771637-4.7263031-2.9346466-5.0173645
		c-7.9802246-0.6266327-9.6213531-3.3047485-6.513916-10.6295166c2.7436676-6.4679413,1.7003632-8.5292206-5.0083923-9.5212555
		c-3.2691956-0.4836655-4.2947235-1.8511124-3.4534302-5.2708511c0.9877472-4.0147171,1.8304749-8.225708,1.7148743-12.3227386
		c-0.4262695-15.0907211,3.9046173-28.5290604,12.8979034-40.5646286c3.6832275-4.9291382,8.3161926-7.7882118,14.6703796-8.2346992
		c2.3658142-0.166256,4.6991577-2.0022507,6.8733826-3.3562164c2.275116-1.4168739,4.2455139-3.3247604,6.5265503-4.7301979
		c2.0788574-1.2806396,3.1403503-2.6623802,2.4287415-5.2240715c-0.9025879-3.2489853,1.0310364-4.912796,3.6758423-6.3335495
		c4.7103882-2.5300293,9.4283447-5.0919228,13.894043-8.020237c6.4262695-4.2142658,12.565979-8.8633766,18.9497986-13.1458626
		c4.7332458-3.1750469,9.9442444-3.9048271,15.5200195-2.4058456c5.4702148,1.4707947,11.1089172,2.3952255,16.4579773,4.198946
		c2.3269958,0.7849293,4.5006104,2.873373,6.0504456,4.899929c1.922821,2.5147114,3.9769287,3.8937988,7.1489258,3.6256199
		c4.7369385-0.4003277,8.9548645,0.8384438,13.0913391,3.3339539c8.3837891,5.0580177,17.2920837,7.5030785,27.1234131,4.1791344
		c1.3300781-0.4495506,3.1948547,0.6552315,4.8014832,1.0802727c0.2318115,0.0614777,0.4170837,0.3372154,0.6011047,0.5349274
		c8.3057556,8.9230156,18.323761,7.7538986,28.431427,4.4409828c3.3382568-1.094368,5.5234985-1.1305199,7.6528015,1.8823547
		c2.6290894,3.71978,5.9996033,5.0016441,10.8893127,4.1352234c8.6769104-1.5377922,16.9097595,0.1601295,24.0233459,5.915657
		c1.4076843,1.1390953,3.2183228,2.060257,4.9804077,2.4315796c6.6364441,1.3984947,12.2602234,4.6391029,17.7498169,8.4873581
		c4.7267151,3.3137283,5.7398071,7.5588379,4.7320251,12.7449188c-0.2563171,1.3188324-0.7122192,2.6049881-1.1478577,3.881546
		c-2.129303,6.2385712-1.478363,8.635437,4.9246216,10.851532c4.5510864,1.5753708,5.9326172,5.6595306,8.8966675,8.4326172
		c0.5733643,0.5363541,0.5993042,2.1260223,0.3016968,3.0429001c-1.1691284,3.6019287-0.1066284,6.4601822,2.0375977,9.4271011
		c4.1864624,5.7924957,7.0720825,12.0578232,6.5343018,19.5878677c-0.1307373,1.8327179,1.0010376,4.7910614,2.4328003,5.5335083
		c9.9430542,5.1556549,15.3168335,14.8004761,22.5823975,22.5092468
		c15.7001953,16.6577148,30.5582275,34.1189423,46.479248,50.5552521
		c13.7502441,14.195282,28.2910767,27.649353,42.8703613,41.007843c9.6305542,8.824173,16.6450806,19.3956757,23.3439941,30.4026337
		c4.7639771,7.8278503,10.1936646,15.2649536,15.5897217,22.684906c1.7598267,2.4199219,2.7052612,4.6448059,2.7765503,7.7112122
		c0.0788574,3.3843994,1.1752319,6.7590027,1.9509888,10.1094971c0.9042358,3.9042053,1.9142456,7.784729,2.9360962,11.6603394
		c0.3325195,1.2614441,0.5132446,2.787384,1.3312988,3.6603394c5.2526245,5.6056213,10.6589355,11.0676575,16.0239258,16.5678711
		c2.7897949,2.8600769,5.6010742,5.6993408,8.3984985,8.5523071
		C721.3533325,369.2362976,724.0651245,369.1358032,727.6574707,366.6613159z"/>
	<path class="st0" d="M180.7801056,249.8755341c1.282486,7.6999664,6.2796326,12.1074677,12.3094635,15.4990082
		c4.5228882,2.5441284,5.7442932,9.4959412,2.0326843,13.6554565c-2.3033142,2.5809021-4.8435516,4.9744873-6.9242401,7.7196045
		c-0.9836578,1.2980042-1.6636047,3.2591858-1.5565796,4.8578491c0.2036438,3.0371704-1.3637695,3.2655334-3.4677277,2.722229
		c-1.5469818-0.3995056-2.9953003-1.2228394-4.4469147-1.9397583c-3.7091522-1.8321228-7.3909454-3.7189636-11.0919342-5.567627
		c-3.9064636-1.9513855-7.0422974-0.9995728-10.5710907,1.7295837c-3.3098602,2.559845-7.0880585,4.7610474-10.9914551,6.2528687
		c-7.0990601,2.7132568-10.1421814,7.5045166-9.066803,15.2243042c0.3490601,2.506134-0.0410614,5.106842,0.0459595,7.6595459
		c0.123764,3.6278687,0.6533966,7.2622681,0.5122528,10.8743896c-0.2530518,6.4814453,3.3553925,10.2988586,8.1113281,13.9156799
		c3.6911926,2.8071899,7.0278015,6.2342834,9.9009552,9.8756409c0.9450684,1.1979065-0.0537109,3.9295349-0.1785126,6.2316284
		c0.7479706,0.1668701,1.8639832,0.415863,3.232666,0.7211914c-0.1840363,0.940155-0.0680237,1.9571228-0.5124817,2.3684692
		c-3.9517975,3.6566772-3.4752808,8.3899536-3.530426,13.0907288c-0.0310516,2.6474609,0.7009735,4.5063477,3.306778,5.3298645
		c2.4138184,0.7626648,3.161972,2.5284119,2.6133728,4.7539062c-0.8662109,3.5136719-2.0986633,6.9387207-2.9228058,10.4603882
		c-0.3915405,1.6732178-0.6629944,3.6266479-0.1760712,5.2019958c1.1076508,3.5831604,2.1301117,6.7159119-2.3564148,8.862793
		c-2.7079315,1.2957458-3.3850098,3.5804749-1.8852081,6.4636536c0.9248352,1.777771,1.2573547,3.8600769,2.153183,5.6572876
		c1.1439972,2.2949219,2.2271271,4.7918701,3.9720306,6.5823059c4.7747192,4.8995361,5.187912,11.0776367,5.7093658,17.2600403
		c0.4644623,5.5065613,0.8511047,11.0257568,1.0128632,16.5470276c0.035553,1.2142639-0.7352905,3.0904846-1.6601257,3.5134888
		c-0.9042053,0.4136047-2.6166382-0.419342-3.723465-1.1080627c-1.2383575-0.770813-2.284317-1.9168701-3.2577667-3.035553
		c-3.3590698-3.8605042-7.2181396-5.7977905-12.5688477-6.8284302c-5.4164734-1.0435181-11.4452972-2.6625977-14.5747833-9.3458252
		c-2.7914734-5.961792-9.1746597-8.315979-15.7606583-7.8694763c-5.3031158,0.3594666-8.9028015-1.8972778-11.7108078-5.8100891
		c-4.2524567-5.9256592-9.3695068-10.6638184-15.7641296-14.3288574c-2.6815796-1.5369568-4.9503784-4.5927429-6.3178253-7.474884
		c-4.128067-8.700592-14.8848343-10.1816101-21.336441-2.7593994c-0.6219368,0.7154846-2.878067,0.9901733-3.6366501,0.4438171
		c-4.0774155-2.9375-6.029213-2.2734985-7.162796,3.2342834c-2.548008-1.430542-5.0161514-2.7340698-7.3999329-4.1770935
		c-2.6190834-1.5851746-4.6319542-1.3327332-6.7289772,1.1207275c-0.924633,1.0816956-3.1149979,2.0247192-4.3229237,1.6642151
		c-1.2832966-0.3829651-2.5324821-2.2502136-2.9730473-3.7169189c-0.4744682-1.5784302-0.520834-3.6928406,0.1619701-5.1417542
		c3.1601372-6.7077332,1.7093582-12.678772-2.1188774-18.5437622c-2.5049076-3.8378296-1.8803139-6.6260376,1.3212852-10.0341187
		c3.0265598-3.2218323,4.1264381-7.232666,3.3172054-11.5942078c-0.3915443-2.1106873-1.2028217-4.1456299-1.8509026-6.2064819
		c-0.9334164-2.9679565-2.0633221-5.3974915,2.1650372-7.5141296c3.9524174-1.9785461,3.8772564-9.888092,0.0633163-12.4044189
		c-6.7639027-4.4628601-6.3502979-10.1891785-1.7696114-16.5276184c5.2822819-7.3094482,9.1413593-15.4238586,11.1421757-24.4820862
		c0.9485321-4.2939148,4.1987419-8.0539246,6.223671-12.1462708c1.0187874-2.0594177,2.3024902-4.3222961,2.2971802-6.4902039
		c-0.0147057-6.2142639,1.7837105-11.1060181,6.8801193-15.1170654c2.628685-2.0688477,4.6676979-5.3580627,5.9893913-8.5085907
		c2.0712891-4.9371033,6.3719482-8.5349426,6.7733002-14.6844635c0.3116837-4.7784119,3.5890656-9.391571,5.6822052-14.017395
		c1.9007339-4.2007904,1.3498764-8.3351898,0.468544-12.6744537c-1.4289246-7.0365753-0.3805161-13.5702972,5.251236-18.7490234
		c1.5925293-1.4644623,3.0990677-3.034317,4.5400467-4.6493225c3.0823135-3.4550629,3.0236969-4.684433-0.1940384-8.1317444
		c-1.841713-1.9728394-1.3316956-4.3664398,1.6464462-5.7206116c4.0418854-1.8378296,8.3723602-3.056366,12.3615494-4.9893799
		c3.6084671-1.7487793,6.8917618-4.1576996,10.3817596-6.165451c2.3022919-1.3243561,4.6090775-2.9810181,7.1172562-3.4940948
		c1.8216934-0.3725433,5.4085007,0.4648743,5.7093658,1.4932709c0.8443604,2.8880768,0.7126312,6.1899567,0.3674469,9.2614594
		c-0.3466187,3.0859833-1.6243973,6.0621033-2.0531158,9.1474762c-0.1539993,1.1090698,0.6711655,2.7416382,1.5751724,3.5398407
		c3.1546173,2.7855377,1.9270859,5.6795502,0.903183,8.8711395c-1.125412,3.5077667-1.8558044,7.1560516-2.5263519,10.785965
		c-0.1650314,0.8925781,0.2759399,2.4548645,0.9444427,2.8474426c2.9518051,1.7336578,6.1327744,3.0720978,9.1352386,4.7269287
		c1.122757,0.6186676,2.1325531,1.5919037,2.9421997,2.6045685c3.9393463,4.9268951,6.473465,5.4075012,12.2520599,2.9093323
		c4.8117065-2.0800781,9.386673-3.2173309,14.1840668,1.2520447c1.7385712,1.6196899,6.0817108,0.7937012,9.1875153,0.522049
		c6.3345795-0.5541229,12.3646088,4.2549133,12.1570892,10.4753113c-0.0655518,1.9671173-1.5553436,3.8721466-2.3216858,5.8337555
		c-1.21875,3.1205139-2.315567,6.2896423-3.5788574,9.3913574
		C172.5648193,244.2217255,176.9541168,249.8818665,180.7801056,249.8755341z"/>
	<path class="st0" d="M346.1133728,511.9185791c-1.3952026-0.3527527-3.254303-0.8227234-5.3660278-1.3566284
		c1.5788574-4.6687012-1.0870056-5.5809021-4.7757263-6.0288086c-3.4458923-0.4180908-4.6440125-2.7232361-2.9015808-5.693634
		c2.2714539-3.8721619,2.9873657-7.7203979,1.4015808-11.9753113c-0.6877136-1.8457947-0.0167542-2.7200012,2.0618896-2.8268127
		c1.627655-0.0835266,3.2299805-0.6617737,4.84375-1.0204163c-0.6105042-2.0825195-1.1246033-4.201416-1.8860474-6.2271423
		c-0.2495728-0.6633911-1.1417236-1.0851746-1.8913269-1.7522583c1.2726746-4.1231689,2.5371704-8.2359314,3.8149414-12.344574
		c0.200592-0.6450195,0.2926941-1.4303589,0.7193909-1.8817444c4.5694275-4.8327332,3.84375-10.9937134,4.6664734-16.8778992
		c0.4532166-3.2424622,2.5976257-6.2430725,3.9407654-9.3693237c0.5637207-1.311676,0.913208-2.7265015,1.5731201-3.9824219
		c0.5073547-0.9659119,1.1985474-2.1464539,2.0927429-2.4895935c0.6102905-0.2340698,2.0814819,0.5900574,2.5194092,1.3263855
		c1.0753479,1.8076172,2.2720642,3.7749329,2.5288086,5.7914734c0.6409302,5.0335083,1.9887695,6.1013184,7.03125,4.660553
		c4.9264832-1.4078979,7.2124329,0.6207275,6.9499817,5.9264832c-0.0520935,1.0529175,0.6043701,2.9861145,1.1511536,3.0682373
		c1.7726746,0.2661133,4.2252808,0.5353394,5.3549805-0.4336243c2.0473938-1.756134,3.3298645-4.4042358,5.1750488-7.0257568
		c3.1476746,1.6260376,6.7426758,0.75,10.0953979-2.1205139c0.4724426-0.4044189,2.2267456-0.2702332,2.4144592,0.1035461
		c1.4374695,2.8617554,4.3192139,2.7348938,6.6629944,3.852356c1.4450378,0.6889343,2.5804749,3.2397766,2.7583618,5.061676
		c0.2136536,2.1871033-1.0463562,4.485321-1.0653687,6.7404175c-0.010376,1.2453003,0.9162598,3.091095,1.951416,3.6127625
		c1.5316467,0.7718506,3.4334106,0.6576843,3.9140015-1.9305725c0.5318604-2.8649902,1.3596802-5.6750488,2.2684021-9.3592834
		c4.1441956,2.2902527,8.2745056,4.5725098,12.3182373,6.8071899c5.8656311-5.4415894,7.8294678-5.2371216,13.7749329,0.4052429
		c1.0055237,0.9542542,3.1660767,0.8935852,4.8023071,0.9356689c2.7320251,0.0704651,5.4303589-0.4810181,5.9040222,3.6290894
		c0.2150574,1.8649902,2.2314148,3.5155334,2.4710083,5.3864441c0.2373352,1.8521423-0.7334595,3.8588867-1.2099915,5.9532471
		c1.853363,0.5126648,3.3421326,0.9246216,4.8311157,1.3363953c0.125,0.3868408,0.25,0.7736816,0.375,1.160553
		c-1.3901367,0.5437012-2.7671814,1.5032654-4.1732178,1.5481873c-3.3917542,0.1076355-4.4628296,1.2081299-3.006134,4.5175781
		c1.6715698,3.7971802,0.3796997,6.2853394-4.1211243,6.8027039c4.0118408,3.8662415,5.0114441,8.4779663,2.5218506,12.9536743
		c-1.3517151,2.4301453-3.722229,3.2485657-6.8192444,2.658905c-3.0477905-0.5802612-6.2875977-0.3858337-9.4087219-0.1235657
		c-0.5294189,0.0445251-1.0913086,2.1145935-1.2706299,3.3041382c-0.2252808,1.4940796,0.097229,3.0704651-0.1268311,4.5649719
		c-0.2459412,1.6415405-0.8057861,3.242218-1.3057556,4.8368225c-0.2684021,0.8557739-0.6454163,1.6890869-1.0672302,2.4828491
		c-0.6921997,1.3031006-1.4607849,2.5655518-2.1972961,3.8451538c1.6683044,0.690979,3.3100586,1.4614258,5.0181885,2.0343018
		c0.6962891,0.2334595,1.5365601,0.0386353,2.5310364,0.0386353c0,0.8872681,0.2498169,1.6781006-0.0393982,2.0974121
		c-2.412384,3.4990234-4.9795837,6.7338867-3.7839355,11.6201172c0.4432373,1.8112793-1.4889526,3.1497192-3.6327515,1.7485962
		c-3.5018616-2.2888184-5.1754761-1.2481689-5.0982666,3.1448364c-1.4844666-0.786377-2.5968018-1.7381592-3.8292542-1.9336548
		c-1.4495544-0.2299805-3.599884-0.3878784-4.4091187,0.4385376c-3.59375,3.670166-7.6121521,3.8956299-11.8748169,1.9644775
		c-1.333313-0.604187-2.1672668-2.3103027-3.6015015-3.9321899c-3.2036438,1.0387573-4.9403687,6.6341553-9.6227722,4.1286621
		c0,3.9814453,0.4143982,7.4561157-0.0992737,10.7875977c-0.7316284,4.743042-6.0032959,6.3039551-9.289856,2.697937
		c-2.5812988-2.8320923-4.442627-3.7258911-6.8353882-0.0782471c-1.3427429,2.0474243-2.9754944,1.6881104-4.2528687-0.0506592
		c-1.4993896-2.0412598-2.7794189-4.2434692-4.2951355-6.5939331c-3.3831787-0.2634888-7.0492554-0.4424438-10.6754761-0.9215698
		c-0.7216187-0.0953979-1.7091675-1.263916-1.856842-2.0690308c-0.5653381-3.0811157-1.3194275-5.5549927-5.3850098-4.803772
		c-0.3543701,0.0655518-1.8731689-2.4303589-1.5933533-3.3560181c0.940979-3.111084,0.7661438-4.7818604-3.061676-5.1821899
		c-3.485321-0.364563-4.9918518-4.6509399-2.787384-8.4223633
		C340.3008728,519.6810303,343.2626648,515.9818726,346.1133728,511.9185791z"/>
	<path class="st0" d="M304.9296875,523.2026978c4.055542-0.2681885,6.2524414,1.6303101,7.6452332,4.7481689
		c1.6499329,3.6932373,3.2211914,7.1219482,7.5359497,8.9661255c2.9420166,1.2571411,5.6576843,3.9391479,7.4603882,6.6566772
		c1.2316284,1.8570557,0.7914734,4.8684692,0.9560852,7.3731689c0.1348267,2.0492554,0.3031006,4.1468506,0.0185852,6.161377
		c-0.4205322,2.9787598-0.9765015,5.9967651-2.0173645,8.7963867c-0.3372192,0.9066772-2.378479,1.1799316-3.6403198,1.743042
		c-0.596405-1.5369873-1.4761047-3.0344849-1.6966858-4.6235962c-0.1672668-1.204834,1.1186523-2.8439331,0.6633911-3.7224121
		c-0.7154846-1.3804932-2.3523254-2.2832642-3.5988464-3.3884888c-1.3799133,1.6633911-3.1446228,3.1427612-4.0484314,5.0335083
		c-1.3267822,2.7763672-2.0379944,5.8468018-3.131958,9.15625c-4.959137-3.3859863-3.9425964-7.798584-4.1270447-11.7015991
		c-0.1331787-2.8217163-0.4372864-4.6074219-3.1045837-6.8270264c-3.5545349-2.9578857-4.9326172-8.1256104-11.044342-8.4595337
		c-1.7011719-0.0929565-3.2738953-3.9312134-4.7593994-6.1491699c-1.2365112-1.8459473-2.2015991-2.7973633-4.8625488-1.7928467
		c-4.1211243,1.5553589-13.756958-1.4885864-15.5310974-4.1536255c-1.8149414-2.7265015-0.8210754-4.8037109,1.7430725-5.8913574
		c4.4144287-1.8725586,7.8764343-4.3796997,9.3674622-9.2269287c0.6664734-2.1671143,3.3490601-2.2243042,4.7628784-0.3239136
		c1.9953003,2.6815796,9.1062317,2.3659668,10.9650879-0.6129761c1.0747681-1.722229,1.9025879-4.3870544,4.322937-2.7598267
		c2.4928589,1.6760864,4.5137024,4.1997681,6.3265991,6.6583252
		C305.7366638,519.6785889,305.0552979,521.4414673,304.9296875,523.2026978z"/>
	<path class="st0" d="M154.4377289,622.7114868c1.5837555,5.3484497,1.162796,6.0890503-3.8272095,5.9940796
		c-3.694458-0.0704346-7.3776703-0.6787109-11.0688629-1.0159302c-0.5038757-0.0459595-1.0240936,0.131958-1.5373688,0.1348267
		c-2.692215,0.0151367-5.3848267,0.006958-9.1317596,0.006958c3.7128296-5.6407471,7.5177765-8.7619019,12.1758881-11.2878418
		c3.3604889-1.8226929,6.0714874-4.8390503,9.0882416-7.3032837c0.6158142-0.5028687,1.3141479-1.324585,1.9548645-1.3063965
		c3.2961731,0.0941772,6.636673,0.1546021,9.8535919,0.7810669c1.3153534,0.2561035,3.4738464,2.1515503,3.315155,2.8792725
		c-0.4611969,2.1133423-1.5016479,4.4385376-3.0525055,5.8954468
		C159.9845123,619.5785522,157.1085052,620.9727173,154.4377289,622.7114868z"/>
</g>
<circle class="st1" cx="508.5" cy="314.5" r="13.5"/>
<circle class="st1" cx="566.5" cy="380.5" r="7.5"/>
<g>
	<path class="st1" d="M544.6977539,327.1064453v-23.2524414h3.8007812v23.2524414H544.6977539z"/>
	<path class="st1" d="M561.3339844,327.4243164c-2.6616211,0-4.684082-0.7763672-6.0678711-2.3295898
		s-2.0756836-3.7827148-2.0756836-6.6879883c0-2.9584961,0.7236328-5.2329102,2.1713867-6.8232422
		c1.4472656-1.590332,3.5385742-2.3857422,6.2739258-2.3857422c1.8554688,0,3.5253906,0.3447266,5.0102539,1.0336914
		l-1.1293945,3.0063477c-1.5800781-0.6147461-2.8842773-0.9228516-3.9125977-0.9228516
		c-3.0429688,0-4.5644531,2.0200195-4.5644531,6.0600586c0,1.972168,0.3789062,3.4536133,1.137207,4.4453125
		c0.7578125,0.9912109,1.8686523,1.4868164,3.3320312,1.4868164c1.6645508,0,3.2387695-0.4135742,4.7236328-1.2402344v3.2602539
		c-0.6679688,0.3925781-1.3813477,0.6733398-2.1391602,0.8427734
		C563.3349609,327.3393555,562.4155273,327.4243164,561.3339844,327.4243164z"/>
	<path class="st1" d="M585.9697266,318.2792969c0,2.8735352-0.7373047,5.1162109-2.2109375,6.7275391
		c-1.4736328,1.6118164-3.5253906,2.4174805-6.1547852,2.4174805c-1.6435547,0-3.0961914-0.3706055-4.3579102-1.1132812
		c-1.262207-0.7416992-2.2324219-1.8076172-2.9106445-3.1967773c-0.6787109-1.3886719-1.0180664-3.0004883-1.0180664-4.8349609
		c0-2.8520508,0.7319336-5.0786133,2.1948242-6.6796875c1.4633789-1.6010742,3.5253906-2.4018555,6.1870117-2.4018555
		c2.5449219,0,4.559082,0.8193359,6.0439453,2.4575195C585.2275391,313.293457,585.9697266,315.5014648,585.9697266,318.2792969z
		 M573.1665039,318.2792969c0,4.0610352,1.5,6.0917969,4.5009766,6.0917969c2.96875,0,4.453125-2.0307617,4.453125-6.0917969
		c0-4.0180664-1.4946289-6.027832-4.4848633-6.027832c-1.5693359,0-2.706543,0.5195312-3.4116211,1.5585938
		C573.519043,314.8496094,573.1665039,316.3388672,573.1665039,318.2792969z"/>
	<path class="st1" d="M605.7392578,327.1064453h-3.753418v-10.8149414c0-1.3574219-0.2729492-2.3701172-0.8188477-3.0380859
		c-0.5463867-0.6679688-1.4130859-1.0019531-2.6005859-1.0019531c-1.5800781,0-2.7353516,0.4667969-3.4672852,1.3999023
		c-0.7314453,0.9331055-1.097168,2.496582-1.097168,4.6914062v8.7636719h-3.737793v-17.590332h2.9267578l0.5244141,2.3061523
		h0.190918c0.5302734-0.8374023,1.2832031-1.484375,2.2587891-1.9404297c0.9750977-0.4560547,2.0566406-0.684082,3.2441406-0.684082
		c4.2202148,0,6.3300781,2.1474609,6.3300781,6.4414062V327.1064453z"/>
	<path class="st1" d="M610.7172852,304.855957c0-0.6679688,0.1831055-1.1821289,0.5488281-1.5429688
		c0.3657227-0.3603516,0.8876953-0.5405273,1.5664062-0.5405273c0.6577148,0,1.1689453,0.1801758,1.5351562,0.5405273
		c0.3657227,0.3608398,0.5483398,0.875,0.5483398,1.5429688c0,0.6362305-0.1826172,1.137207-0.5483398,1.5029297
		c-0.3662109,0.3657227-0.8774414,0.5488281-1.5351562,0.5488281c-0.6787109,0-1.2006836-0.1831055-1.5664062-0.5488281
		S610.7172852,305.4921875,610.7172852,304.855957z M614.6777344,327.1064453h-3.737793v-17.590332h3.737793V327.1064453z"/>
	<path class="st1" d="M627.1152344,327.4243164c-2.6616211,0-4.684082-0.7763672-6.0678711-2.3295898
		s-2.0756836-3.7827148-2.0756836-6.6879883c0-2.9584961,0.7236328-5.2329102,2.1713867-6.8232422
		c1.4472656-1.590332,3.5385742-2.3857422,6.2739258-2.3857422c1.8554688,0,3.5253906,0.3447266,5.0102539,1.0336914
		l-1.1293945,3.0063477c-1.5800781-0.6147461-2.8842773-0.9228516-3.9125977-0.9228516
		c-3.0429688,0-4.5644531,2.0200195-4.5644531,6.0600586c0,1.972168,0.3789062,3.4536133,1.137207,4.4453125
		c0.7578125,0.9912109,1.8686523,1.4868164,3.3320312,1.4868164c1.6645508,0,3.2387695-0.4135742,4.7236328-1.2402344v3.2602539
		c-0.6679688,0.3925781-1.3813477,0.6733398-2.1391602,0.8427734
		C629.1162109,327.3393555,628.1967773,327.4243164,627.1152344,327.4243164z"/>
	<path class="st1" d="M658.4150391,320.7924805c0,2.0673828-0.7475586,3.6899414-2.2426758,4.8666992
		c-1.4946289,1.1767578-3.5571289,1.7651367-6.1865234,1.7651367c-2.6298828,0-4.7822266-0.4077148-6.4575195-1.2246094v-3.5942383
		c1.0600586,0.4985352,2.1870117,0.890625,3.3798828,1.1767578c1.1928711,0.2866211,2.3032227,0.4296875,3.3320312,0.4296875
		c1.5053711,0,2.6162109-0.2866211,3.3320312-0.8588867c0.7158203-0.5727539,1.0737305-1.3413086,1.0737305-2.3061523
		c0-0.8691406-0.3291016-1.6064453-0.9863281-2.2109375c-0.6577148-0.6044922-2.0146484-1.3198242-4.0717773-2.1469727
		c-2.1206055-0.8588867-3.6157227-1.8393555-4.4848633-2.9423828c-0.8696289-1.1025391-1.3041992-2.4277344-1.3041992-3.9760742
		c0-1.9404297,0.6889648-3.4672852,2.0673828-4.5805664s3.2290039-1.6699219,5.5507812-1.6699219
		c2.2265625,0,4.4428711,0.487793,6.6484375,1.4633789l-1.2089844,3.1010742
		c-2.0673828-0.8691406-3.9125977-1.3041992-5.534668-1.3041992c-1.2299805,0-2.1630859,0.2680664-2.7993164,0.8032227
		c-0.6362305,0.5356445-0.9541016,1.2431641-0.9541016,2.1235352c0,0.6040039,0.1269531,1.1210938,0.3813477,1.550293
		c0.2548828,0.4296875,0.6733398,0.8349609,1.2568359,1.2167969c0.5830078,0.3818359,1.6323242,0.8857422,3.1489258,1.5112305
		c1.7070312,0.7104492,2.9584961,1.3730469,3.753418,1.987793c0.7954102,0.6152344,1.378418,1.3095703,1.7495117,2.0834961
		C658.2294922,318.8310547,658.4150391,319.7426758,658.4150391,320.7924805z"/>
	<path class="st1" d="M673.5244141,327.1064453l-0.7470703-2.4492188h-0.1269531
		c-0.8496094,1.0708008-1.7021484,1.7998047-2.5605469,2.1870117c-0.859375,0.3867188-1.9628906,0.5800781-3.3085938,0.5800781
		c-1.7285156,0-3.0776367-0.4663086-4.0478516-1.3994141s-1.4550781-2.2529297-1.4550781-3.9604492
		c0-1.8129883,0.6728516-3.1806641,2.0195312-4.1030273s3.3984375-1.4262695,6.1552734-1.5112305l3.0371094-0.0952148v-0.9384766
		c0-1.1235352-0.2617188-1.9643555-0.7871094-2.5209961c-0.5244141-0.5566406-1.3378906-0.8349609-2.4414062-0.8349609
		c-0.9003906,0-1.765625,0.1328125-2.5917969,0.3979492c-0.8271484,0.2651367-1.6230469,0.5776367-2.3857422,0.9379883
		l-1.2089844-2.671875c0.9545898-0.4980469,1.9990234-0.8769531,3.1337891-1.137207
		c1.1337891-0.2597656,2.2050781-0.3896484,3.2128906-0.3896484c2.2363281,0,3.9257812,0.487793,5.0644531,1.4633789
		c1.140625,0.9755859,1.7109375,2.5078125,1.7109375,4.5961914v11.8491211H673.5244141z M667.9580078,324.5615234
		c1.3564453,0,2.4462891-0.3789062,3.2685547-1.137207c0.8212891-0.7578125,1.2324219-1.8208008,1.2324219-3.1884766v-1.5268555
		l-2.2578125,0.0952148c-1.7607422,0.0634766-3.0410156,0.3579102-3.8417969,0.8828125s-1.2011719,1.328125-1.2011719,2.409668
		c0,0.784668,0.234375,1.3916016,0.7001953,1.8208008C666.3251953,324.347168,667.0253906,324.5615234,667.9580078,324.5615234z"/>
	<path class="st1" d="M696.8886719,327.1064453h-3.7539062v-10.8149414c0-1.3574219-0.2734375-2.3701172-0.8183594-3.0380859
		c-0.546875-0.6679688-1.4140625-1.0019531-2.6015625-1.0019531c-1.5800781,0-2.734375,0.4667969-3.4667969,1.3999023
		c-0.7314453,0.9331055-1.0976562,2.496582-1.0976562,4.6914062v8.7636719h-3.7373047v-17.590332h2.9267578l0.5244141,2.3061523
		h0.1904297c0.53125-0.8374023,1.2832031-1.484375,2.2597656-1.9404297c0.9746094-0.4560547,2.0566406-0.684082,3.2441406-0.684082
		c4.2197266,0,6.3300781,2.1474609,6.3300781,6.4414062V327.1064453z"/>
	<path class="st1" d="M708.6425781,324.402832c0.9111328,0,1.8232422-0.1430664,2.7353516-0.4296875v2.8154297
		c-0.4130859,0.1801758-0.9462891,0.3310547-1.5986328,0.453125c-0.6523438,0.121582-1.328125,0.1826172-2.0273438,0.1826172
		c-3.5419922,0-5.3125-1.8657227-5.3125-5.5981445v-9.4790039h-2.4023438v-1.6542969l2.5771484-1.3676758l1.2724609-3.7216797
		h2.3066406v3.9125977h5.0097656v2.8310547h-5.0097656v9.4155273c0,0.9013672,0.2246094,1.5664062,0.6757812,1.9956055
		C707.3193359,324.1879883,707.9101562,324.402832,708.6425781,324.402832z"/>
	<path class="st1" d="M730.4951172,318.2792969c0,2.8735352-0.7373047,5.1162109-2.2109375,6.7275391
		c-1.4736328,1.6118164-3.5253906,2.4174805-6.1552734,2.4174805c-1.6425781,0-3.0957031-0.3706055-4.3574219-1.1132812
		c-1.2617188-0.7416992-2.2324219-1.8076172-2.9101562-3.1967773c-0.6796875-1.3886719-1.0185547-3.0004883-1.0185547-4.8349609
		c0-2.8520508,0.7314453-5.0786133,2.1943359-6.6796875c1.4638672-1.6010742,3.5253906-2.4018555,6.1875-2.4018555
		c2.5449219,0,4.5585938,0.8193359,6.0439453,2.4575195C729.7529297,313.293457,730.4951172,315.5014648,730.4951172,318.2792969z
		 M717.6914062,318.2792969c0,4.0610352,1.5,6.0917969,4.5019531,6.0917969c2.96875,0,4.453125-2.0307617,4.453125-6.0917969
		c0-4.0180664-1.4951172-6.027832-4.4853516-6.027832c-1.5693359,0-2.7060547,0.5195312-3.4111328,1.5585938
		C718.0449219,314.8496094,717.6914062,316.3388672,717.6914062,318.2792969z"/>
	<path class="st1" d="M743.7109375,309.1977539c0.7539062,0,1.3730469,0.0532227,1.8613281,0.1591797l-0.3652344,3.4829102
		c-0.53125-0.1269531-1.0820312-0.1904297-1.6542969-0.1904297c-1.4951172,0-2.7070312,0.487793-3.6347656,1.4628906
		c-0.9277344,0.9755859-1.390625,2.2426758-1.390625,3.8012695v9.1928711h-3.7382812v-17.590332h2.9267578l0.4931641,3.1010742
		h0.1904297c0.5830078-1.0493164,1.3447266-1.8818359,2.2822266-2.4970703
		C741.6201172,309.5053711,742.6298828,309.1977539,743.7109375,309.1977539z"/>
	<path class="st1" d="M748.6103516,304.855957c0-0.6679688,0.1826172-1.1821289,0.5488281-1.5429688
		c0.3662109-0.3603516,0.8876953-0.5405273,1.5664062-0.5405273c0.6572266,0,1.1689453,0.1801758,1.5351562,0.5405273
		c0.3662109,0.3608398,0.5478516,0.875,0.5478516,1.5429688c0,0.6362305-0.1816406,1.137207-0.5478516,1.5029297
		s-0.8779297,0.5488281-1.5351562,0.5488281c-0.6787109,0-1.2001953-0.1831055-1.5664062-0.5488281
		S748.6103516,305.4921875,748.6103516,304.855957z M752.5703125,327.1064453h-3.7373047v-17.590332h3.7373047V327.1064453z"/>
	<path class="st1" d="M773.3886719,327.1064453h-3.7529297v-10.8149414c0-1.3574219-0.2724609-2.3701172-0.8193359-3.0380859
		c-0.5458984-0.6679688-1.4121094-1.0019531-2.5996094-1.0019531c-1.5800781,0-2.7363281,0.4667969-3.4677734,1.3999023
		s-1.0966797,2.496582-1.0966797,4.6914062v8.7636719h-3.7382812v-17.590332h2.9267578l0.5244141,2.3061523h0.1914062
		c0.5292969-0.8374023,1.2832031-1.484375,2.2578125-1.9404297c0.9755859-0.4560547,2.0566406-0.684082,3.2441406-0.684082
		c4.2207031,0,6.3300781,2.1474609,6.3300781,6.4414062V327.1064453z"/>
	<path class="st1" d="M778.3671875,304.855957c0-0.6679688,0.1835938-1.1821289,0.5488281-1.5429688
		c0.3662109-0.3603516,0.8886719-0.5405273,1.5664062-0.5405273c0.6582031,0,1.1699219,0.1801758,1.5351562,0.5405273
		c0.3662109,0.3608398,0.5488281,0.875,0.5488281,1.5429688c0,0.6362305-0.1826172,1.137207-0.5488281,1.5029297
		c-0.3652344,0.3657227-0.8769531,0.5488281-1.5351562,0.5488281c-0.6777344,0-1.2001953-0.1831055-1.5664062-0.5488281
		C778.5507812,305.9931641,778.3671875,305.4921875,778.3671875,304.855957z M782.328125,327.1064453h-3.7382812v-17.590332
		h3.7382812V327.1064453z"/>
</g>
<g>
	<path class="st1" d="M598.0869141,388.1064453h-3.0087891v-18.5605469h10.4736328v2.5644531h-7.4648438v5.8017578h6.9951172
		v2.5771484h-6.9951172V388.1064453z"/>
	<path class="st1" d="M608.4208984,370.3457031c0-0.5332031,0.1459961-0.9438477,0.4379883-1.2314453
		s0.7089844-0.4316406,1.2504883-0.4316406c0.5249023,0,0.9331055,0.144043,1.2250977,0.4316406
		s0.4379883,0.6982422,0.4379883,1.2314453c0,0.5078125-0.1459961,0.9077148-0.4379883,1.199707
		s-0.7001953,0.4379883-1.2250977,0.4379883c-0.5415039,0-0.9584961-0.1459961-1.2504883-0.4379883
		S608.4208984,370.8535156,608.4208984,370.3457031z M611.5820312,388.1064453h-2.9833984v-14.0410156h2.9833984V388.1064453z"/>
	<path class="st1" d="M622.9697266,373.8115234c0.6010742,0,1.0961914,0.0424805,1.4853516,0.1269531l-0.2919922,2.7802734
		c-0.4233398-0.1015625-0.8632812-0.1523438-1.3203125-0.1523438c-1.1933594,0-2.1601562,0.3891602-2.9008789,1.1679688
		s-1.1108398,1.7900391-1.1108398,3.0341797v7.3378906h-2.9833984v-14.0410156h2.3359375l0.3935547,2.4755859h0.1523438
		c0.465332-0.8378906,1.0727539-1.5024414,1.8217773-1.9931641S622.1064453,373.8115234,622.9697266,373.8115234z"/>
	<path class="st1" d="M635.8427734,388.1064453l-0.5966797-1.9550781h-0.1015625
		c-0.6772461,0.8549805-1.3583984,1.4365234-2.0439453,1.7456055s-1.565918,0.4633789-2.640625,0.4633789
		c-1.3793945,0-2.456543-0.3725586-3.230957-1.1171875s-1.1616211-1.7983398-1.1616211-3.1611328
		c0-1.4472656,0.5375977-2.5390625,1.6123047-3.2753906s2.7124023-1.1381836,4.9130859-1.2060547l2.4248047-0.0761719v-0.7490234
		c0-0.8969727-0.2094727-1.5678711-0.628418-2.012207s-1.0683594-0.6665039-1.9487305-0.6665039
		c-0.7192383,0-1.4091797,0.105957-2.0693359,0.3173828s-1.2949219,0.4614258-1.9042969,0.7490234l-0.9648438-2.1328125
		c0.7617188-0.3979492,1.5952148-0.7001953,2.5009766-0.9077148s1.7602539-0.3110352,2.5644531-0.3110352
		c1.7856445,0,3.1337891,0.3891602,4.043457,1.1679688s1.3647461,2.0014648,1.3647461,3.6689453v9.4580078H635.8427734z
		 M631.3994141,386.0751953c1.0834961,0,1.953125-0.3027344,2.6088867-0.9077148s0.9838867-1.4536133,0.9838867-2.5454102v-1.21875
		l-1.8027344,0.0761719c-1.4047852,0.0507812-2.4267578,0.2856445-3.065918,0.7045898s-0.9584961,1.0600586-0.9584961,1.9233398
		c0,0.6264648,0.1860352,1.1108398,0.5585938,1.4536133S630.6547852,386.0751953,631.3994141,386.0751953z"/>
</g>
<circle class="st1" cx="348.5" cy="772.5" r="7.5"/>
<g>
	<path class="st1" d="M388.5927734,780.1064453l-1.8535156-5.1542969h-7.0966797l-1.8154297,5.1542969h-3.1992188
		l6.9443359-18.6367188h3.3007812l6.9443359,18.6367188H388.5927734z M385.9394531,772.3369141l-1.7392578-5.0527344
		c-0.1269531-0.3388672-0.3027344-0.8720703-0.5268555-1.5996094s-0.3789062-1.2607422-0.4633789-1.5996094
		c-0.2285156,1.0410156-0.5629883,2.1787109-1.0029297,3.4150391l-1.6757812,4.8369141H385.9394531z"/>
	<path class="st1" d="M396.8320312,772.6923828l1.6884766-2.1074219l4.2402344-4.5195312h3.4404297l-5.6494141,6.0302734
		l6.0048828,8.0107422h-3.5039062l-4.5068359-6.1572266l-1.6376953,1.3457031v4.8115234h-2.9580078v-19.7539062h2.9580078v9.6357422
		l-0.1523438,2.7041016H396.8320312z"/>
	<path class="st1" d="M415.9384766,765.8115234c0.6010742,0,1.0961914,0.0419922,1.4853516,0.1269531l-0.2919922,2.7802734
		c-0.4233398-0.1015625-0.8632812-0.1523438-1.3203125-0.1523438c-1.1933594,0-2.1601562,0.3886719-2.9008789,1.1679688
		s-1.1108398,1.7900391-1.1108398,3.0341797v7.3378906h-2.9833984v-14.0410156h2.3359375l0.3935547,2.4755859h0.1523438
		c0.465332-0.8378906,1.0727539-1.5019531,1.8217773-1.9931641S415.0751953,765.8115234,415.9384766,765.8115234z"/>
	<path class="st1" d="M432.4804688,773.0605469c0,2.2929688-0.5883789,4.0839844-1.7646484,5.3701172
		s-2.8139648,1.9296875-4.9130859,1.9296875c-1.3120117,0-2.4711914-0.2958984-3.4785156-0.8886719
		s-1.7817383-1.4423828-2.3232422-2.5517578s-0.8125-2.3945312-0.8125-3.859375
		c0-2.2773438,0.5839844-4.0546875,1.7519531-5.3320312s2.8139648-1.9169922,4.9384766-1.9169922
		c2.03125,0,3.6391602,0.6533203,4.8242188,1.9619141C431.8881836,769.0800781,432.4804688,770.84375,432.4804688,773.0605469z
		 M422.2607422,773.0605469c0,3.2421875,1.1977539,4.8623047,3.5927734,4.8623047
		c2.3696289,0,3.5546875-1.6201172,3.5546875-4.8623047c0-3.2070312-1.1933594-4.8115234-3.5800781-4.8115234
		c-1.2524414,0-2.1601562,0.4150391-2.7231445,1.2441406S422.2607422,771.5117188,422.2607422,773.0605469z"/>
	<path class="st1" d="M441.1386719,777.9482422c0.7280273,0,1.4555664-0.1142578,2.1835938-0.3427734v2.2470703
		c-0.3300781,0.1435547-0.7553711,0.2646484-1.2758789,0.3623047c-0.5205078,0.0966797-1.0600586,0.1455078-1.6186523,0.1455078
		c-2.8266602,0-4.2402344-1.4892578-4.2402344-4.46875v-7.5664062h-1.9169922v-1.3203125l2.0566406-1.0917969l1.015625-2.9707031
		h1.8408203v3.1230469h3.9990234v2.2597656h-3.9990234v7.515625c0,0.7197266,0.1796875,1.2509766,0.5395508,1.5927734
		C440.0830078,777.7773438,440.5546875,777.9482422,441.1386719,777.9482422z"/>
	<path class="st1" d="M445.9501953,762.3457031c0-0.5332031,0.1459961-0.9433594,0.4379883-1.2314453
		s0.7089844-0.4316406,1.2504883-0.4316406c0.5249023,0,0.9331055,0.1435547,1.2250977,0.4316406
		s0.4379883,0.6982422,0.4379883,1.2314453c0,0.5078125-0.1459961,0.9082031-0.4379883,1.1992188
		c-0.2919922,0.2929688-0.7001953,0.4384766-1.2250977,0.4384766c-0.5415039,0-0.9584961-0.1455078-1.2504883-0.4384766
		C446.0961914,763.2539062,445.9501953,762.8535156,445.9501953,762.3457031z M449.1113281,780.1064453h-2.9833984v-14.0410156
		h2.9833984V780.1064453z"/>
	<path class="st1" d="M460.4990234,765.8115234c0.6010742,0,1.0961914,0.0419922,1.4853516,0.1269531l-0.2919922,2.7802734
		c-0.4233398-0.1015625-0.8632812-0.1523438-1.3203125-0.1523438c-1.1933594,0-2.1601562,0.3886719-2.9008789,1.1679688
		s-1.1108398,1.7900391-1.1108398,3.0341797v7.3378906h-2.9833984v-14.0410156h2.3359375l0.3935547,2.4755859h0.1523438
		c0.465332-0.8378906,1.0727539-1.5019531,1.8217773-1.9931641S459.6357422,765.8115234,460.4990234,765.8115234z"/>
	<path class="st1" d="M464.4091797,762.3457031c0-0.5332031,0.1459961-0.9433594,0.4379883-1.2314453
		s0.7089844-0.4316406,1.2504883-0.4316406c0.5249023,0,0.9331055,0.1435547,1.2250977,0.4316406
		s0.4379883,0.6982422,0.4379883,1.2314453c0,0.5078125-0.1459961,0.9082031-0.4379883,1.1992188
		c-0.2919922,0.2929688-0.7001953,0.4384766-1.2250977,0.4384766c-0.5415039,0-0.9584961-0.1455078-1.2504883-0.4384766
		C464.5551758,763.2539062,464.4091797,762.8535156,464.4091797,762.3457031z M467.5703125,780.1064453h-2.9833984v-14.0410156
		h2.9833984V780.1064453z"/>
</g>
</svg>
