<?xml version="1.0" encoding="utf-8"?>
<!-- Generator: Adobe Illustrator 22.0.1, SVG Export Plug-In . SVG Version: 6.00 Build 0)  -->
<svg version="1.1" id="Layer_1" xmlns="http://www.w3.org/2000/svg" xmlns:xlink="http://www.w3.org/1999/xlink" x="0px" y="0px"
	 viewBox="0 0 20 20" style="enable-background:new 0 0 20 20;" xml:space="preserve">
<g>
	<g>
		<path d="M19.5,19.9c-0.1,0-0.2,0-0.3-0.1l-19-19c-0.1-0.1-0.1-0.4,0-0.5s0.4-0.1,0.5,0l19,19c0.1,0.1,0.1,0.4,0,0.5
			C19.7,19.8,19.6,19.9,19.5,19.9z"/>
	</g>
	<g>
		<path d="M0.5,19.9c-0.1,0-0.2,0-0.3-0.1c-0.1-0.1-0.1-0.4,0-0.5l19-19c0.1-0.1,0.4-0.1,0.5,0c0.1,0.1,0.1,0.4,0,0.5l-19,19
			C0.7,19.8,0.6,19.9,0.5,19.9z"/>
	</g>
</g>
</svg>
